KumbhSans-Black.ufo
<glyph name="exclam" format="1">
  <advance width="498"/>
  <unicode hex="0021"/>
  <outline>
    <contour>
      <point x="355" y="420" type="line"/>
      <point x="399" y="1500" type="line"/>
      <point x="100" y="1500" type="line"/>
      <point x="144" y="420" type="line"/>
    </contour>
    <contour>
      <point x="248" y="-20" type="curve" smooth="yes"/>
      <point x="338" y="-20"/>
      <point x="408" y="48"/>
      <point x="408" y="135" type="curve" smooth="yes"/>
      <point x="408" y="221"/>
      <point x="338" y="290"/>
      <point x="248" y="290" type="curve" smooth="yes"/>
      <point x="158" y="290"/>
      <point x="90" y="221"/>
      <point x="90" y="135" type="curve" smooth="yes"/>
      <point x="90" y="48"/>
      <point x="158" y="-20"/>
    </contour>
  </outline>
</glyph>
<glyph name="quotedbl" format="1">
  <advance width="808"/>
  <unicode hex="0022"/>
  <outline>
    <contour>
      <point x="326" y="1085" type="line"/>
      <point x="360" y="1520" type="line"/>
      <point x="100" y="1520" type="line"/>
      <point x="134" y="1085" type="line"/>
    </contour>
    <contour>
      <point x="674" y="1085" type="line"/>
      <point x="708" y="1520" type="line"/>
      <point x="448" y="1520" type="line"/>
      <point x="482" y="1085" type="line"/>
    </contour>
  </outline>
</glyph>
<glyph name="numbersign" format="2">
  <advance width="1341"/>
  <unicode hex="0023"/>
  <outline>
    <contour>
      <point x="1283" y="814" type="line"/>
      <point x="1321" y="1054" type="line"/>
      <point x="1115" y="1054" type="line"/>
      <point x="1194" y="1500" type="line"/>
      <point x="905" y="1500" type="line"/>
      <point x="826" y="1054" type="line"/>
      <point x="611" y="1054" type="line"/>
      <point x="690" y="1500" type="line"/>
      <point x="402" y="1500" type="line"/>
      <point x="323" y="1054" type="line"/>
      <point x="130" y="1054" type="line"/>
      <point x="91" y="814" type="line"/>
      <point x="280" y="814" type="line"/>
      <point x="238" y="572" type="line"/>
      <point x="57" y="572" type="line"/>
      <point x="20" y="332" type="line"/>
      <point x="195" y="332" type="line"/>
      <point x="137" y="0" type="line"/>
      <point x="425" y="0" type="line"/>
      <point x="484" y="332" type="line"/>
      <point x="699" y="332" type="line"/>
      <point x="640" y="0" type="line"/>
      <point x="929" y="0" type="line"/>
      <point x="988" y="332" type="line"/>
      <point x="1211" y="332" type="line"/>
      <point x="1249" y="572" type="line"/>
      <point x="1030" y="572" type="line"/>
      <point x="1073" y="814" type="line"/>
    </contour>
    <contour>
      <point x="526" y="572" type="line"/>
      <point x="569" y="814" type="line"/>
      <point x="784" y="814" type="line"/>
      <point x="741" y="572" type="line"/>
    </contour>
  </outline>
</glyph>
<glyph name="dollar" format="1">
  <advance width="1106"/>
  <unicode hex="0024"/>
  <outline>
    <contour>
      <point x="30" y="239" type="line"/>
      <point x="157" y="140"/>
      <point x="308" y="79"/>
      <point x="465" y="64" type="curve"/>
      <point x="456" y="-120" type="line"/>
      <point x="686" y="-120" type="line"/>
      <point x="677" y="71" type="line"/>
      <point x="915" y="111"/>
      <point x="1066" y="259"/>
      <point x="1066" y="462" type="curve" smooth="yes"/>
      <point x="1066" y="700"/>
      <point x="857" y="791"/>
      <point x="687" y="866" type="curve" smooth="yes"/>
      <point x="569" y="918"/>
      <point x="470" y="961"/>
      <point x="470" y="1039" type="curve" smooth="yes"/>
      <point x="470" y="1097"/>
      <point x="525" y="1135"/>
      <point x="613" y="1135" type="curve" smooth="yes"/>
      <point x="696" y="1135"/>
      <point x="806" y="1101"/>
      <point x="891" y="1049" type="curve"/>
      <point x="1027" y="1330" type="line"/>
      <point x="907" y="1389"/>
      <point x="788" y="1423"/>
      <point x="677" y="1435" type="curve"/>
      <point x="686" y="1620" type="line"/>
      <point x="456" y="1620" type="line"/>
      <point x="465" y="1429" type="line"/>
      <point x="256" y="1391"/>
      <point x="112" y="1256"/>
      <point x="112" y="1046" type="curve" smooth="yes"/>
      <point x="112" y="797"/>
      <point x="318" y="714"/>
      <point x="495" y="642" type="curve" smooth="yes"/>
      <point x="607" y="596"/>
      <point x="708" y="555"/>
      <point x="708" y="470" type="curve" smooth="yes"/>
      <point x="708" y="402"/>
      <point x="644" y="363"/>
      <point x="534" y="363" type="curve" smooth="yes"/>
      <point x="423" y="363"/>
      <point x="323" y="404"/>
      <point x="194" y="506" type="curve"/>
    </contour>
  </outline>
</glyph>
<glyph name="percent" format="1">
  <advance width="1592"/>
  <unicode hex="0025"/>
  <outline>
    <contour>
      <point x="374" y="873" type="curve" smooth="yes"/>
      <point x="581" y="873"/>
      <point x="719" y="1002"/>
      <point x="719" y="1196" type="curve" smooth="yes"/>
      <point x="719" y="1391"/>
      <point x="581" y="1520"/>
      <point x="374" y="1520" type="curve" smooth="yes"/>
      <point x="167" y="1520"/>
      <point x="30" y="1391"/>
      <point x="30" y="1196" type="curve" smooth="yes"/>
      <point x="30" y="1002"/>
      <point x="167" y="873"/>
    </contour>
    <contour>
      <point x="467" y="1" type="line"/>
      <point x="1434" y="1501" type="line"/>
      <point x="1136" y="1501" type="line"/>
      <point x="169" y="1" type="line"/>
    </contour>
    <contour>
      <point x="374" y="1073" type="curve" smooth="yes"/>
      <point x="317" y="1073"/>
      <point x="280" y="1123"/>
      <point x="280" y="1197" type="curve" smooth="yes"/>
      <point x="280" y="1272"/>
      <point x="317" y="1321"/>
      <point x="374" y="1321" type="curve" smooth="yes"/>
      <point x="430" y="1321"/>
      <point x="469" y="1271"/>
      <point x="469" y="1197" type="curve" smooth="yes"/>
      <point x="469" y="1123"/>
      <point x="430" y="1073"/>
    </contour>
    <contour>
      <point x="1218" y="-21" type="curve" smooth="yes"/>
      <point x="1424" y="-21"/>
      <point x="1562" y="109"/>
      <point x="1562" y="303" type="curve" smooth="yes"/>
      <point x="1562" y="498"/>
      <point x="1425" y="627"/>
      <point x="1218" y="627" type="curve" smooth="yes"/>
      <point x="1012" y="627"/>
      <point x="874" y="498"/>
      <point x="874" y="303" type="curve" smooth="yes"/>
      <point x="874" y="109"/>
      <point x="1012" y="-21"/>
    </contour>
    <contour>
      <point x="1218" y="180" type="curve" smooth="yes"/>
      <point x="1161" y="180"/>
      <point x="1124" y="229"/>
      <point x="1124" y="303" type="curve" smooth="yes"/>
      <point x="1124" y="378"/>
      <point x="1161" y="428"/>
      <point x="1218" y="428" type="curve" smooth="yes"/>
      <point x="1274" y="428"/>
      <point x="1312" y="377"/>
      <point x="1312" y="303" type="curve" smooth="yes"/>
      <point x="1312" y="229"/>
      <point x="1274" y="180"/>
    </contour>
  </outline>
</glyph>
<glyph name="ampersand" format="2">
  <advance width="1447"/>
  <unicode hex="0026"/>
  <outline>
    <contour>
      <point x="1427" y="182" type="line"/>
      <point x="1346" y="232"/>
      <point x="1303" y="261"/>
      <point x="1228" y="319" type="curve"/>
      <point x="1297" y="418"/>
      <point x="1351" y="536"/>
      <point x="1387" y="669" type="curve"/>
      <point x="1117" y="745" type="line"/>
      <point x="1092" y="650"/>
      <point x="1054" y="564"/>
      <point x="1007" y="493" type="curve"/>
      <point x="892" y="591"/>
      <point x="798" y="687"/>
      <point x="725" y="778" type="curve"/>
      <point x="892" y="866"/>
      <point x="1061" y="970"/>
      <point x="1061" y="1190" type="curve" smooth="yes"/>
      <point x="1061" y="1388"/>
      <point x="894" y="1530"/>
      <point x="661" y="1530" type="curve" smooth="yes"/>
      <point x="418" y="1530"/>
      <point x="244" y="1375"/>
      <point x="244" y="1152" type="curve" smooth="yes"/>
      <point x="244" y="1040"/>
      <point x="289" y="912"/>
      <point x="372" y="779" type="curve"/>
      <point x="215" y="692"/>
      <point x="70" y="588"/>
      <point x="70" y="394" type="curve" smooth="yes"/>
      <point x="70" y="150"/>
      <point x="298" y="-30"/>
      <point x="597" y="-30" type="curve" smooth="yes"/>
      <point x="763" y="-30"/>
      <point x="917" y="26"/>
      <point x="1046" y="126" type="curve"/>
      <point x="1121" y="74"/>
      <point x="1201" y="21"/>
      <point x="1285" y="-30" type="curve"/>
    </contour>
    <contour>
      <point x="625" y="925" type="curve"/>
      <point x="580" y="1006"/>
      <point x="556" y="1082"/>
      <point x="556" y="1144" type="curve" smooth="yes"/>
      <point x="556" y="1230"/>
      <point x="601" y="1289"/>
      <point x="661" y="1289" type="curve" smooth="yes"/>
      <point x="719" y="1289"/>
      <point x="755" y="1234"/>
      <point x="755" y="1151" type="curve" smooth="yes"/>
      <point x="755" y="1050"/>
      <point x="702" y="982"/>
    </contour>
    <contour>
      <point x="480" y="629" type="curve"/>
      <point x="568" y="522"/>
      <point x="679" y="413"/>
      <point x="811" y="304" type="curve"/>
      <point x="755" y="274"/>
      <point x="695" y="257"/>
      <point x="637" y="257" type="curve" smooth="yes"/>
      <point x="501" y="257"/>
      <point x="404" y="348"/>
      <point x="404" y="470" type="curve" smooth="yes"/>
      <point x="404" y="537"/>
      <point x="433" y="586"/>
    </contour>
  </outline>
</glyph>
<glyph name="parenleft" format="2">
  <advance width="672"/>
  <unicode hex="0028"/>
  <outline>
    <contour>
      <point x="652" y="-289" type="line" name="av02"/>
      <point x="449" y="-23"/>
      <point x="340" y="297"/>
      <point x="340" y="627" type="curve" smooth="yes"/>
      <point x="340" y="957"/>
      <point x="449" y="1276"/>
      <point x="652" y="1540" type="curve" name="av01"/>
      <point x="296" y="1540" type="line"/>
      <point x="119" y="1300"/>
      <point x="20" y="972"/>
      <point x="20" y="625" type="curve" smooth="yes"/>
      <point x="20" y="278"/>
      <point x="119" y="-50"/>
      <point x="296" y="-289" type="curve"/>
    </contour>
  </outline>
</glyph>
<glyph name="parenright" format="1">
  <advance width="672"/>
  <unicode hex="0029"/>
  <outline>
    <contour>
      <point x="376" y="-289" type="line"/>
      <point x="553" y="-50"/>
      <point x="652" y="278"/>
      <point x="652" y="625" type="curve" smooth="yes"/>
      <point x="652" y="972"/>
      <point x="553" y="1300"/>
      <point x="376" y="1540" type="curve"/>
      <point x="20" y="1540" type="line" name="av01"/>
      <point x="223" y="1276"/>
      <point x="332" y="957"/>
      <point x="332" y="627" type="curve" smooth="yes"/>
      <point x="332" y="297"/>
      <point x="223" y="-23"/>
      <point x="20" y="-289" type="curve" name="av02"/>
    </contour>
  </outline>
</glyph>
<glyph name="plus" format="1">
  <advance width="1106"/>
  <unicode hex="002B"/>
  <outline>
    <contour>
      <point x="1006" y="337" type="line"/>
      <point x="1006" y="627" type="line"/>
      <point x="713" y="627" type="line"/>
      <point x="713" y="911" type="line"/>
      <point x="393" y="911" type="line"/>
      <point x="393" y="627" type="line"/>
      <point x="100" y="627" type="line"/>
      <point x="100" y="337" type="line"/>
      <point x="393" y="337" type="line"/>
      <point x="393" y="52" type="line"/>
      <point x="713" y="52" type="line"/>
      <point x="713" y="337" type="line"/>
    </contour>
  </outline>
</glyph>
<glyph name="comma" format="1">
  <advance width="490"/>
  <unicode hex="002C"/>
  <outline>
    <contour>
      <point x="300" y="-240" type="line"/>
      <point x="420" y="200" type="line"/>
      <point x="130" y="200" type="line" name="av01"/>
      <point x="60" y="-240" type="line"/>
    </contour>
  </outline>
</glyph>
<glyph name="period" format="2">
  <advance width="500"/>
  <unicode hex="002E"/>
  <outline>
    <contour>
      <point x="250" y="-20" type="curve" smooth="yes"/>
      <point x="346" y="-20"/>
      <point x="410" y="44"/>
      <point x="410" y="140" type="curve" smooth="yes"/>
      <point x="410" y="236"/>
      <point x="346" y="300"/>
      <point x="250" y="300" type="curve" smooth="yes"/>
      <point x="154" y="300"/>
      <point x="90" y="236"/>
      <point x="90" y="140" type="curve" smooth="yes"/>
      <point x="90" y="44"/>
      <point x="154" y="-20"/>
    </contour>
  </outline>
</glyph>
<glyph name="slash" format="2">
  <advance width="1005"/>
  <unicode hex="002F"/>
  <outline>
    <contour>
      <point x="356" y="-20" type="line"/>
      <point x="995" y="1520" type="line"/>
      <point x="649" y="1520" type="line"/>
      <point x="10" y="-20" type="line"/>
    </contour>
  </outline>
</glyph>
<glyph name="zero" format="2">
  <advance width="1274"/>
  <unicode hex="0030"/>
  <outline>
    <contour>
      <point x="637" y="-30" type="curve" smooth="yes"/>
      <point x="987" y="-30"/>
      <point x="1214" y="253"/>
      <point x="1214" y="751" type="curve" smooth="yes"/>
      <point x="1214" y="1247"/>
      <point x="987" y="1530"/>
      <point x="637" y="1530" type="curve" smooth="yes"/>
      <point x="287" y="1530"/>
      <point x="60" y="1247"/>
      <point x="60" y="751" type="curve" smooth="yes"/>
      <point x="60" y="253"/>
      <point x="287" y="-30"/>
    </contour>
    <contour>
      <point x="637" y="315" type="curve" smooth="yes"/>
      <point x="527" y="315"/>
      <point x="465" y="471"/>
      <point x="465" y="750" type="curve" smooth="yes"/>
      <point x="465" y="1029"/>
      <point x="527" y="1185"/>
      <point x="637" y="1185" type="curve" smooth="yes"/>
      <point x="747" y="1185"/>
      <point x="809" y="1029"/>
      <point x="809" y="750" type="curve" smooth="yes"/>
      <point x="809" y="471"/>
      <point x="747" y="315"/>
    </contour>
  </outline>
</glyph>
<glyph name="one" format="1">
  <advance width="892"/>
  <unicode hex="0031"/>
  <outline>
    <contour>
      <point x="772" y="0" type="line" name="ab01"/>
      <point x="772" y="1500" type="line" name="dh02"/>
      <point x="460" y="1500" type="line"/>
      <point x="20" y="1340" type="line"/>
      <point x="143" y="1027" type="line"/>
      <point x="376" y="1112" type="line"/>
      <point x="376" y="0" type="line"/>
    </contour>
  </outline>
</glyph>
<glyph name="three" format="2">
  <advance width="1208"/>
  <unicode hex="0033"/>
  <outline>
    <contour>
      <point x="90" y="124" type="line"/>
      <point x="222" y="25"/>
      <point x="387" y="-30"/>
      <point x="559" y="-30" type="curve" smooth="yes"/>
      <point x="878" y="-30"/>
      <point x="1118" y="157"/>
      <point x="1118" y="409" type="curve" smooth="yes"/>
      <point x="1118" y="586"/>
      <point x="1000" y="720"/>
      <point x="806" y="781" type="curve"/>
      <point x="953" y="851"/>
      <point x="1048" y="983"/>
      <point x="1048" y="1140" type="curve" smooth="yes"/>
      <point x="1048" y="1369"/>
      <point x="843" y="1530"/>
      <point x="560" y="1530" type="curve" smooth="yes"/>
      <point x="391" y="1530"/>
      <point x="232" y="1472"/>
      <point x="110" y="1370" type="curve"/>
      <point x="279" y="1095" type="line"/>
      <point x="376" y="1156"/>
      <point x="454" y="1185"/>
      <point x="520" y="1185" type="curve" smooth="yes"/>
      <point x="610" y="1185"/>
      <point x="675" y="1133"/>
      <point x="675" y="1061" type="curve" smooth="yes"/>
      <point x="675" y="972"/>
      <point x="577" y="908"/>
      <point x="441" y="908" type="curve" smooth="yes"/>
      <point x="370" y="908" type="line"/>
      <point x="370" y="637" type="line"/>
      <point x="441" y="637" type="line" smooth="yes"/>
      <point x="607" y="637"/>
      <point x="706" y="576"/>
      <point x="706" y="472" type="curve" smooth="yes"/>
      <point x="706" y="380"/>
      <point x="626" y="315"/>
      <point x="516" y="315" type="curve" smooth="yes"/>
      <point x="435" y="315"/>
      <point x="341" y="350"/>
      <point x="237" y="417" type="curve"/>
    </contour>
  </outline>
</glyph>
<glyph name="four" format="2">
  <advance width="1319"/>
  <unicode hex="0034"/>
  <outline>
    <contour>
      <point x="1116" y="0" type="line"/>
      <point x="1116" y="271" type="line"/>
      <point x="1299" y="271" type="line"/>
      <point x="1299" y="616" type="line"/>
      <point x="1116" y="616" type="line"/>
      <point x="1116" y="1500" type="line"/>
      <point x="721" y="1500" type="line"/>
      <point x="20" y="571" type="line"/>
      <point x="20" y="271" type="line"/>
      <point x="720" y="271" type="line"/>
      <point x="720" y="0" type="line"/>
    </contour>
    <contour>
      <point x="360" y="616" type="line"/>
      <point x="720" y="1094" type="line"/>
      <point x="720" y="616" type="line"/>
    </contour>
  </outline>
</glyph>
<glyph name="five" format="1">
  <advance width="1200"/>
  <unicode hex="0035"/>
  <outline>
    <contour>
      <point x="60" y="151" type="line"/>
      <point x="193" y="36"/>
      <point x="375" y="-30"/>
      <point x="557" y="-30" type="curve" smooth="yes"/>
      <point x="890" y="-30"/>
      <point x="1140" y="189"/>
      <point x="1140" y="473.172" type="curve" smooth="yes"/>
      <point x="1140" y="733"/>
      <point x="931" y="924"/>
      <point x="655" y="924" type="curve" smooth="yes"/>
      <point x="616" y="924"/>
      <point x="576" y="920"/>
      <point x="539" y="912" type="curve"/>
      <point x="566" y="1155" type="line"/>
      <point x="1037" y="1155" type="line"/>
      <point x="1037" y="1500" type="line"/>
      <point x="205" y="1500" type="line"/>
      <point x="138" y="770" type="line"/>
      <point x="327" y="663" type="line"/>
      <point x="377" y="718"/>
      <point x="442" y="747"/>
      <point x="514" y="747" type="curve" smooth="yes"/>
      <point x="642" y="747"/>
      <point x="735" y="656"/>
      <point x="735" y="530" type="curve" smooth="yes"/>
      <point x="735" y="405"/>
      <point x="644" y="315"/>
      <point x="518" y="315" type="curve" smooth="yes"/>
      <point x="410" y="315"/>
      <point x="303" y="381"/>
      <point x="261" y="474" type="curve"/>
    </contour>
  </outline>
</glyph>
<glyph name="six" format="2">
  <advance width="1231"/>
  <unicode hex="0036"/>
  <outline>
    <contour>
      <point x="617" y="-30" type="curve" smooth="yes"/>
      <point x="938" y="-30"/>
      <point x="1171" y="183"/>
      <point x="1171" y="481" type="curve" smooth="yes"/>
      <point x="1171" y="745"/>
      <point x="987" y="930"/>
      <point x="723" y="930" type="curve" smooth="yes"/>
      <point x="604" y="930"/>
      <point x="507" y="893"/>
      <point x="436" y="825" type="curve"/>
      <point x="529" y="986"/>
      <point x="699" y="1137"/>
      <point x="920" y="1249" type="curve"/>
      <point x="739" y="1500" type="line"/>
      <point x="299" y="1287"/>
      <point x="60" y="964"/>
      <point x="60" y="577" type="curve" smooth="yes"/>
      <point x="60" y="209"/>
      <point x="277" y="-30"/>
    </contour>
    <contour>
      <point x="614" y="315" type="curve" smooth="yes"/>
      <point x="531" y="315"/>
      <point x="465" y="397"/>
      <point x="465" y="503" type="curve" smooth="yes"/>
      <point x="465" y="610"/>
      <point x="530" y="691"/>
      <point x="617" y="691" type="curve" smooth="yes"/>
      <point x="702" y="691"/>
      <point x="766" y="613"/>
      <point x="766" y="508" type="curve" smooth="yes"/>
      <point x="766" y="401"/>
      <point x="699" y="315"/>
    </contour>
  </outline>
</glyph>
<glyph name="seven" format="2">
  <advance width="1079"/>
  <unicode hex="0037"/>
  <outline>
    <contour>
      <point x="545" y="0" type="line"/>
      <point x="1058" y="1246" type="line"/>
      <point x="1059" y="1500" type="line"/>
      <point x="20" y="1500" type="line"/>
      <point x="20" y="1155" type="line"/>
      <point x="592" y="1155" type="line"/>
      <point x="116" y="0" type="line"/>
    </contour>
  </outline>
</glyph>
<glyph name="eight" format="1">
  <advance width="1185"/>
  <unicode hex="0038"/>
  <outline>
    <contour>
      <point x="592" y="-30" type="curve" smooth="yes"/>
      <point x="918" y="-30"/>
      <point x="1135" y="142"/>
      <point x="1135" y="399" type="curve" smooth="yes"/>
      <point x="1135" y="589"/>
      <point x="1017" y="732"/>
      <point x="824" y="794" type="curve"/>
      <point x="984" y="853"/>
      <point x="1081" y="978"/>
      <point x="1081" y="1142" type="curve" smooth="yes"/>
      <point x="1081" y="1377"/>
      <point x="888" y="1530"/>
      <point x="592" y="1530" type="curve" smooth="yes"/>
      <point x="296" y="1530"/>
      <point x="103" y="1377"/>
      <point x="103" y="1142" type="curve" smooth="yes"/>
      <point x="103" y="977"/>
      <point x="199" y="853"/>
      <point x="360" y="794" type="curve"/>
      <point x="168" y="732"/>
      <point x="50" y="588"/>
      <point x="50" y="398" type="curve" smooth="yes"/>
      <point x="50" y="140"/>
      <point x="266" y="-30"/>
    </contour>
    <contour>
      <point x="592" y="968" type="curve" smooth="yes"/>
      <point x="530" y="968"/>
      <point x="488" y="1024"/>
      <point x="488" y="1106" type="curve" smooth="yes"/>
      <point x="488" y="1189"/>
      <point x="530" y="1245"/>
      <point x="592" y="1245" type="curve" smooth="yes"/>
      <point x="654" y="1245"/>
      <point x="696" y="1189"/>
      <point x="696" y="1106" type="curve" smooth="yes"/>
      <point x="696" y="1024"/>
      <point x="654" y="968"/>
    </contour>
    <contour>
      <point x="592" y="275" type="curve" smooth="yes"/>
      <point x="504" y="275"/>
      <point x="445" y="348"/>
      <point x="445" y="455" type="curve" smooth="yes"/>
      <point x="445" y="563"/>
      <point x="504" y="636"/>
      <point x="592" y="636" type="curve" smooth="yes"/>
      <point x="680" y="636"/>
      <point x="740" y="563"/>
      <point x="740" y="455" type="curve" smooth="yes"/>
      <point x="740" y="348"/>
      <point x="680" y="275"/>
    </contour>
  </outline>
</glyph>
<glyph name="nine" format="2">
  <advance width="1231"/>
  <unicode hex="0039"/>
  <outline>
    <contour>
      <point x="492" y="0" type="line"/>
      <point x="932" y="213"/>
      <point x="1171" y="536"/>
      <point x="1171" y="923" type="curve" smooth="yes"/>
      <point x="1171" y="1291"/>
      <point x="955" y="1530"/>
      <point x="615" y="1530" type="curve" smooth="yes"/>
      <point x="294" y="1530"/>
      <point x="60" y="1317"/>
      <point x="60" y="1019" type="curve" smooth="yes"/>
      <point x="60" y="755"/>
      <point x="244" y="570"/>
      <point x="508" y="570" type="curve" smooth="yes"/>
      <point x="627" y="570"/>
      <point x="724" y="607"/>
      <point x="795" y="675" type="curve"/>
      <point x="702" y="514"/>
      <point x="533" y="363"/>
      <point x="312" y="251" type="curve"/>
    </contour>
    <contour>
      <point x="614" y="809" type="curve" smooth="yes"/>
      <point x="529" y="809"/>
      <point x="466" y="887"/>
      <point x="466" y="992" type="curve" smooth="yes"/>
      <point x="466" y="1100"/>
      <point x="533" y="1185"/>
      <point x="618" y="1185" type="curve" smooth="yes"/>
      <point x="701" y="1185"/>
      <point x="766" y="1103"/>
      <point x="766" y="997" type="curve" smooth="yes"/>
      <point x="766" y="890"/>
      <point x="701" y="809"/>
    </contour>
  </outline>
</glyph>
<glyph name="colon" format="2">
  <advance width="500"/>
  <unicode hex="003A"/>
  <outline>
    <contour>
      <point x="249" y="658" type="curve" smooth="yes"/>
      <point x="339" y="658"/>
      <point x="410" y="729"/>
      <point x="410" y="819" type="curve" smooth="yes"/>
      <point x="410" y="908"/>
      <point x="339" y="980"/>
      <point x="249" y="980" type="curve" smooth="yes"/>
      <point x="159" y="980"/>
      <point x="90" y="908"/>
      <point x="90" y="819" type="curve" smooth="yes"/>
      <point x="90" y="729"/>
      <point x="159" y="658"/>
    </contour>
    <contour>
      <point x="249" y="-20" type="curve" smooth="yes"/>
      <point x="339" y="-20"/>
      <point x="410" y="51"/>
      <point x="410" y="141" type="curve" smooth="yes"/>
      <point x="410" y="230"/>
      <point x="339" y="302"/>
      <point x="249" y="302" type="curve" smooth="yes"/>
      <point x="159" y="302"/>
      <point x="90" y="230"/>
      <point x="90" y="141" type="curve" smooth="yes"/>
      <point x="90" y="51"/>
      <point x="159" y="-20"/>
    </contour>
  </outline>
</glyph>
<glyph name="greater" format="2">
  <advance width="1027"/>
  <unicode hex="003E"/>
  <outline>
    <contour>
      <point x="100" y="0" type="line"/>
      <point x="1007" y="431" type="line"/>
      <point x="1007" y="588" type="line"/>
      <point x="100" y="1020" type="line"/>
      <point x="100" y="719" type="line"/>
      <point x="615" y="509" type="line"/>
      <point x="100" y="300" type="line"/>
    </contour>
  </outline>
</glyph>
<glyph name="question" format="2">
  <advance width="943"/>
  <unicode hex="003F"/>
  <outline>
    <contour>
      <point x="183" y="1092" type="line"/>
      <point x="224" y="1163"/>
      <point x="298" y="1207"/>
      <point x="375" y="1207" type="curve" smooth="yes"/>
      <point x="460" y="1207"/>
      <point x="517" y="1154"/>
      <point x="517" y="1075" type="curve" smooth="yes"/>
      <point x="517" y="1008"/>
      <point x="475" y="962"/>
      <point x="424" y="906" type="curve" smooth="yes"/>
      <point x="342" y="816"/>
      <point x="235" y="698"/>
      <point x="235" y="420" type="curve"/>
      <point x="548" y="420" type="line"/>
      <point x="548" y="632"/>
      <point x="650" y="729"/>
      <point x="747" y="823" type="curve" smooth="yes"/>
      <point x="852" y="923"/>
      <point x="923" y="1004"/>
      <point x="923" y="1155" type="curve" smooth="yes"/>
      <point x="923" y="1389"/>
      <point x="752" y="1530"/>
      <point x="480" y="1530" type="curve" smooth="yes"/>
      <point x="323" y="1530"/>
      <point x="179" y="1483"/>
      <point x="50" y="1390" type="curve"/>
    </contour>
    <contour>
      <point x="392" y="-20" type="curve" smooth="yes"/>
      <point x="488" y="-20"/>
      <point x="552" y="44"/>
      <point x="552" y="140" type="curve" smooth="yes"/>
      <point x="552" y="236"/>
      <point x="488" y="300"/>
      <point x="392" y="300" type="curve" smooth="yes"/>
      <point x="296" y="300"/>
      <point x="232" y="236"/>
      <point x="232" y="140" type="curve" smooth="yes"/>
      <point x="232" y="44"/>
      <point x="296" y="-20"/>
    </contour>
  </outline>
</glyph>
<glyph name="at" format="1">
  <advance width="1879"/>
  <unicode hex="0040"/>
  <outline>
    <contour>
      <point x="889" y="64" type="curve" smooth="yes"/>
      <point x="1026" y="64"/>
      <point x="1148" y="125"/>
      <point x="1234" y="236" type="curve"/>
      <point x="1280" y="125"/>
      <point x="1374" y="62"/>
      <point x="1492" y="62" type="curve" smooth="yes"/>
      <point x="1712" y="62"/>
      <point x="1859" y="287"/>
      <point x="1859" y="625" type="curve" smooth="yes"/>
      <point x="1859" y="1094"/>
      <point x="1509" y="1419"/>
      <point x="1002" y="1419" type="curve" smooth="yes"/>
      <point x="450" y="1419"/>
      <point x="40" y="1034"/>
      <point x="40" y="516" type="curve" smooth="yes"/>
      <point x="40" y="54"/>
      <point x="366" y="-266"/>
      <point x="837" y="-266" type="curve" smooth="yes"/>
      <point x="997" y="-266"/>
      <point x="1161" y="-229"/>
      <point x="1321" y="-157" type="curve"/>
      <point x="1250" y="36" type="line"/>
      <point x="1121" y="-33"/>
      <point x="984" y="-69"/>
      <point x="852" y="-69" type="curve" smooth="yes"/>
      <point x="511" y="-69"/>
      <point x="274" y="170"/>
      <point x="274" y="516" type="curve" smooth="yes"/>
      <point x="274" y="915"/>
      <point x="591" y="1218"/>
      <point x="1011" y="1218" type="curve" smooth="yes"/>
      <point x="1391" y="1218"/>
      <point x="1649" y="971"/>
      <point x="1649" y="606" type="curve" smooth="yes"/>
      <point x="1649" y="408"/>
      <point x="1573" y="242"/>
      <point x="1483" y="242" type="curve" smooth="yes"/>
      <point x="1426" y="242"/>
      <point x="1387" y="308"/>
      <point x="1387" y="394" type="curve" smooth="yes"/>
      <point x="1387" y="499"/>
      <point x="1425" y="837"/>
      <point x="1446" y="984" type="curve"/>
      <point x="1262" y="984" type="line"/>
      <point x="1255" y="899" type="line"/>
      <point x="1181" y="994"/>
      <point x="1070" y="1045"/>
      <point x="940" y="1045" type="curve" smooth="yes"/>
      <point x="668" y="1045"/>
      <point x="456" y="820"/>
      <point x="456" y="532" type="curve" smooth="yes"/>
      <point x="456" y="264"/>
      <point x="641" y="64"/>
    </contour>
    <contour>
      <point x="939" y="264" type="curve" smooth="yes"/>
      <point x="801" y="264"/>
      <point x="709" y="369"/>
      <point x="709" y="526" type="curve" smooth="yes"/>
      <point x="709" y="707"/>
      <point x="832" y="846"/>
      <point x="992" y="846" type="curve" smooth="yes"/>
      <point x="1132" y="846"/>
      <point x="1226" y="741"/>
      <point x="1226" y="585" type="curve"/>
      <point x="1220" y="518" type="line"/>
      <point x="1193" y="368"/>
      <point x="1077" y="264"/>
    </contour>
  </outline>
</glyph>
<glyph name="A" format="2">
  <advance width="1606"/>
  <unicode hex="0041"/>
  <anchor x="803" y="0" name="bottom"/>
  <anchor x="1466" y="0" name="ogonek"/>
  <anchor x="803" y="1500" name="top"/>
  <outline>
    <contour>
      <point x="425" y="0" type="line" name="ab02"/>
      <point x="522" y="267" type="line"/>
      <point x="1084" y="267" type="line"/>
      <point x="1181" y="0" type="line"/>
      <point x="1596" y="0" type="line" name="n7"/>
      <point x="1011" y="1500" type="line"/>
      <point x="596" y="1500" type="line" name="at02"/>
      <point x="10" y="0" type="line"/>
    </contour>
    <contour>
      <point x="648" y="612" type="line"/>
      <point x="803" y="1040" type="line"/>
      <point x="959" y="612" type="line"/>
    </contour>
  </outline>
</glyph>
<glyph name="B" format="1">
  <advance width="1340"/>
  <unicode hex="0042"/>
  <outline>
    <contour>
      <point x="100" y="0" type="line"/>
      <point x="774" y="0" type="line" smooth="yes" name="ab02"/>
      <point x="1090" y="0"/>
      <point x="1290" y="166"/>
      <point x="1290" y="426" type="curve" smooth="yes" name="sh02"/>
      <point x="1290" y="601"/>
      <point x="1197" y="723"/>
      <point x="1034" y="777" type="curve"/>
      <point x="1143" y="840"/>
      <point x="1212" y="955"/>
      <point x="1212" y="1098" type="curve" smooth="yes" name="dh03"/>
      <point x="1212" y="1354"/>
      <point x="1016" y="1500"/>
      <point x="671" y="1500" type="curve" smooth="yes"/>
      <point x="100" y="1500" type="line" name="at01"/>
    </contour>
    <contour>
      <point x="496" y="895" type="line"/>
      <point x="496" y="1155" type="line"/>
      <point x="644" y="1155" type="line" smooth="yes" name="sv03"/>
      <point x="756" y="1155"/>
      <point x="822" y="1107"/>
      <point x="822" y="1028" type="curve" smooth="yes" name="dh02"/>
      <point x="822" y="943"/>
      <point x="757" y="895"/>
      <point x="644" y="895" type="curve" smooth="yes" name="sv02"/>
    </contour>
    <contour>
      <point x="496" y="345" type="line"/>
      <point x="496" y="605" type="line"/>
      <point x="695" y="605" type="line" smooth="yes" name="dv01"/>
      <point x="817" y="605"/>
      <point x="885" y="560"/>
      <point x="885" y="477" type="curve" smooth="yes" name="ih01"/>
      <point x="885" y="393"/>
      <point x="807" y="345"/>
      <point x="671" y="345" type="curve" smooth="yes" name="sv05"/>
    </contour>
  </outline>
</glyph>
<glyph name="C" format="1">
  <advance width="1481"/>
  <unicode hex="0043"/>
  <outline>
    <contour>
      <point x="1421" y="186" type="curve"/>
      <point x="1141" y="465" type="line"/>
      <point x="1071" y="372"/>
      <point x="968" y="315"/>
      <point x="850" y="315" type="curve" smooth="yes" name="dv02"/>
      <point x="631" y="315"/>
      <point x="465" y="504"/>
      <point x="465" y="751" type="curve" smooth="yes" name="sh02"/>
      <point x="465" y="996"/>
      <point x="631" y="1185"/>
      <point x="850" y="1185" type="curve" smooth="yes" name="sv01"/>
      <point x="968" y="1185"/>
      <point x="1072" y="1128"/>
      <point x="1142" y="1035" type="curve"/>
      <point x="1418" y="1313" type="line"/>
      <point x="1277" y="1449"/>
      <point x="1081" y="1530"/>
      <point x="856" y="1530" type="curve" smooth="yes" name="at01"/>
      <point x="399" y="1530"/>
      <point x="60" y="1197"/>
      <point x="60" y="750" type="curve" smooth="yes" name="sh01"/>
      <point x="60" y="303"/>
      <point x="399" y="-30"/>
      <point x="856" y="-30" type="curve" smooth="yes" name="dv01"/>
      <point x="1083" y="-30"/>
      <point x="1280" y="50"/>
    </contour>
  </outline>
</glyph>
<glyph name="D" format="1">
  <advance width="1580"/>
  <unicode hex="0044"/>
  <outline>
    <contour>
      <point x="100" y="0" type="line"/>
      <point x="631" y="0" type="line" smooth="yes"/>
      <point x="1168" y="0"/>
      <point x="1520" y="297"/>
      <point x="1520" y="750" type="curve" smooth="yes"/>
      <point x="1520" y="1203"/>
      <point x="1168" y="1500"/>
      <point x="631" y="1500" type="curve" smooth="yes"/>
      <point x="100" y="1500" type="line"/>
    </contour>
    <contour>
      <point x="496" y="345" type="line"/>
      <point x="496" y="1155" type="line"/>
      <point x="644" y="1155" type="line" smooth="yes"/>
      <point x="947" y="1155"/>
      <point x="1115" y="1011"/>
      <point x="1115" y="750" type="curve" smooth="yes"/>
      <point x="1115" y="490"/>
      <point x="947" y="345"/>
      <point x="644" y="345" type="curve" smooth="yes"/>
    </contour>
  </outline>
</glyph>
<glyph name="E" format="2">
  <advance width="1200"/>
  <unicode hex="0045"/>
  <anchor x="600" y="0" name="bottom"/>
  <anchor x="1071" y="0" name="ogonek"/>
  <anchor x="600" y="1500" name="top"/>
  <anchor x="20" y="1500" name="topleft"/>
  <outline>
    <contour>
      <point x="100" y="0" type="line" name="ab01"/>
      <point x="1110" y="0" type="line"/>
      <point x="1110" y="345" type="line" name="sv01"/>
      <point x="496" y="345" type="line" name="dh01"/>
      <point x="496" y="578" type="line" name="dv01"/>
      <point x="1060" y="578" type="line"/>
      <point x="1060" y="923" type="line"/>
      <point x="496" y="923" type="line" name="dv02"/>
      <point x="496" y="1155" type="line" name="sv02"/>
      <point x="1100" y="1155" type="line"/>
      <point x="1100" y="1500" type="line" name="at01"/>
      <point x="100" y="1500" type="line"/>
    </contour>
  </outline>
</glyph>
<glyph name="F" format="1">
  <advance width="1150"/>
  <unicode hex="0046"/>
  <outline>
    <contour>
      <point x="100" y="0" type="line" name="ab01"/>
      <point x="496" y="0" type="line"/>
      <point x="496" y="578" type="line" name="dv01"/>
      <point x="1020" y="578" type="line"/>
      <point x="1020" y="923" type="line"/>
      <point x="496" y="923" type="line" name="dv02"/>
      <point x="496" y="1155" type="line" name="sv02"/>
      <point x="1060" y="1155" type="line"/>
      <point x="1060" y="1500" type="line" name="at01"/>
      <point x="100" y="1500" type="line"/>
    </contour>
  </outline>
</glyph>
<glyph name="I" format="2">
  <advance width="596"/>
  <unicode hex="0049"/>
  <anchor x="298" y="0" name="bottom"/>
  <anchor x="454" y="0" name="ogonek"/>
  <anchor x="298" y="1500" name="top"/>
  <anchor x="20" y="1500" name="topleft"/>
  <outline>
    <contour>
      <point x="100" y="0" type="line" name="dh01"/>
      <point x="496" y="0" type="line" name="ab01"/>
      <point x="496" y="1500" type="line" name="at01"/>
      <point x="100" y="1500" type="line"/>
    </contour>
  </outline>
</glyph>
<glyph name="J" format="2">
  <advance width="581"/>
  <unicode hex="004A"/>
  <anchor x="291" y="0" name="bottom"/>
  <anchor x="291" y="1500" name="top"/>
  <outline>
    <contour>
      <point x="-230" y="-360" type="line"/>
      <point x="282" y="-360"/>
      <point x="481" y="-174"/>
      <point x="481" y="306" type="curve" smooth="yes"/>
      <point x="481" y="1500" type="line"/>
      <point x="85" y="1500" type="line"/>
      <point x="85" y="306" type="line" smooth="yes"/>
      <point x="85" y="88"/>
      <point x="-22" y="-15"/>
      <point x="-250" y="-15" type="curve"/>
    </contour>
  </outline>
</glyph>
<glyph name="K" format="2">
  <advance width="1543"/>
  <unicode hex="004B"/>
  <anchor x="722" y="0" name="bottom"/>
  <anchor x="772" y="1500" name="top"/>
  <outline>
    <contour>
      <point x="496" y="0" type="line"/>
      <point x="496" y="309" type="line"/>
      <point x="637" y="487" type="line"/>
      <point x="1032" y="0" type="line"/>
      <point x="1543" y="0" type="line"/>
      <point x="890" y="805" type="line"/>
      <point x="1443" y="1500" type="line"/>
      <point x="977" y="1500" type="line"/>
      <point x="678" y="1124" type="line" smooth="yes"/>
      <point x="634" y="1069"/>
      <point x="567" y="977"/>
      <point x="496" y="873" type="curve"/>
      <point x="496" y="1500" type="line"/>
      <point x="100" y="1500" type="line"/>
      <point x="100" y="0" type="line"/>
    </contour>
  </outline>
</glyph>
<glyph name="L" format="2">
  <advance width="1140"/>
  <unicode hex="004C"/>
  <anchor x="610" y="0" name="bottom"/>
  <anchor x="323" y="750" name="center"/>
  <anchor x="323" y="1500" name="top"/>
  <anchor x="1120" y="1500" name="topright"/>
  <outline>
    <contour>
      <point x="1120" y="0" type="line"/>
      <point x="1120" y="345" type="line"/>
      <point x="496" y="345" type="line"/>
      <point x="496" y="1500" type="line"/>
      <point x="100" y="1500" type="line"/>
      <point x="100" y="0" type="line"/>
    </contour>
  </outline>
</glyph>
<glyph name="M" format="1">
  <advance width="1865"/>
  <unicode hex="004D"/>
  <outline>
    <contour>
      <point x="1765" y="0" type="line"/>
      <point x="1765" y="1500" type="line"/>
      <point x="1265" y="1500" type="line"/>
      <point x="932" y="698" type="line"/>
      <point x="600" y="1500" type="line"/>
      <point x="100" y="1500" type="line"/>
      <point x="100" y="0" type="line"/>
      <point x="496" y="0" type="line"/>
      <point x="496" y="930" type="line"/>
      <point x="786" y="252" type="line"/>
      <point x="1078" y="252" type="line"/>
      <point x="1369" y="932" type="line"/>
      <point x="1369" y="0" type="line"/>
    </contour>
  </outline>
</glyph>
<glyph name="O" format="2">
  <advance width="1710"/>
  <unicode hex="004F"/>
  <anchor x="855" y="0" name="bottom"/>
  <anchor x="855" y="750" name="center"/>
  <anchor x="1539" y="10" name="ogonek"/>
  <anchor x="855" y="1500" name="top"/>
  <anchor x="20" y="1500" name="topleft"/>
  <anchor x="1690" y="1500" name="topright"/>
  <outline>
    <contour>
      <point x="856" y="-30" type="curve" smooth="yes" name="dv01"/>
      <point x="1316" y="-30"/>
      <point x="1650" y="303"/>
      <point x="1650" y="750" type="curve" smooth="yes" name="sh03"/>
      <point x="1650" y="1197"/>
      <point x="1316" y="1530"/>
      <point x="856" y="1530" type="curve" smooth="yes" name="at01"/>
      <point x="396" y="1530"/>
      <point x="60" y="1197"/>
      <point x="60" y="750" type="curve" smooth="yes" name="sh01"/>
      <point x="60" y="303"/>
      <point x="396" y="-30"/>
    </contour>
    <contour>
      <point x="856" y="315" type="curve" smooth="yes" name="dv02"/>
      <point x="634" y="315"/>
      <point x="465" y="505"/>
      <point x="465" y="750" type="curve" smooth="yes" name="sh02"/>
      <point x="465" y="995"/>
      <point x="634" y="1185"/>
      <point x="856" y="1185" type="curve" smooth="yes" name="sv01"/>
      <point x="1078" y="1185"/>
      <point x="1245" y="995"/>
      <point x="1245" y="750" type="curve" smooth="yes" name="ah01"/>
      <point x="1245" y="505"/>
      <point x="1078" y="315"/>
    </contour>
  </outline>
</glyph>
<glyph name="P" format="2">
  <advance width="1376"/>
  <unicode hex="0050"/>
  <outline>
    <contour>
      <point x="100" y="0" type="line"/>
      <point x="496" y="0" type="line"/>
      <point x="496" y="439" type="line"/>
      <point x="652" y="439" type="line" smooth="yes"/>
      <point x="1034.2" y="439"/>
      <point x="1276" y="645"/>
      <point x="1276" y="971" type="curve" smooth="yes"/>
      <point x="1276" y="1296"/>
      <point x="1034.11" y="1500"/>
      <point x="646.702" y="1500" type="curve" smooth="yes"/>
      <point x="100" y="1500" type="line"/>
    </contour>
    <contour>
      <point x="496" y="784" type="line"/>
      <point x="496" y="1155" type="line"/>
      <point x="608.025" y="1155" type="line" smooth="yes"/>
      <point x="777.962" y="1155"/>
      <point x="871" y="1090.01"/>
      <point x="871" y="970.854" type="curve" smooth="yes"/>
      <point x="871" y="849.895"/>
      <point x="778.911" y="784"/>
      <point x="608.025" y="784" type="curve" smooth="yes"/>
    </contour>
  </outline>
</glyph>
<glyph name="Q" format="2">
  <advance width="1718"/>
  <unicode hex="0051"/>
  <outline>
    <contour>
      <point x="1572" y="-265" type="curve"/>
      <point x="1658" y="44" type="line"/>
      <point x="1518" y="50"/>
      <point x="1406" y="62"/>
      <point x="1287" y="85" type="curve"/>
      <point x="1510" y="219"/>
      <point x="1650" y="461"/>
      <point x="1650" y="750" type="curve" smooth="yes" name="sh03.1"/>
      <point x="1650" y="1197"/>
      <point x="1316" y="1530"/>
      <point x="856" y="1530" type="curve" smooth="yes" name="at01.1"/>
      <point x="396" y="1530"/>
      <point x="60" y="1197"/>
      <point x="60" y="750" type="curve" smooth="yes" name="sh01.1"/>
      <point x="60" y="303"/>
      <point x="396" y="-29"/>
      <point x="856" y="-29" type="curve" smooth="yes" name="dv01.1"/>
      <point x="903" y="-29" type="line"/>
      <point x="1128" y="-144"/>
      <point x="1289" y="-201"/>
    </contour>
    <contour>
      <point x="856" y="315" type="curve" smooth="yes" name="dv02.1"/>
      <point x="634" y="315"/>
      <point x="465" y="505"/>
      <point x="465" y="750" type="curve" smooth="yes" name="sh02.1"/>
      <point x="465" y="995"/>
      <point x="634" y="1185"/>
      <point x="856" y="1185" type="curve" smooth="yes" name="sv01.1"/>
      <point x="1078" y="1185"/>
      <point x="1245" y="995"/>
      <point x="1245" y="750" type="curve" smooth="yes" name="ah01.1"/>
      <point x="1245" y="505"/>
      <point x="1078" y="315"/>
    </contour>
  </outline>
</glyph>
<glyph name="R" format="1">
  <advance width="1448"/>
  <unicode hex="0052"/>
  <outline>
    <contour>
      <point x="1428" y="0" type="line"/>
      <point x="1099" y="571" type="line"/>
      <point x="1260" y="653"/>
      <point x="1348" y="799"/>
      <point x="1348" y="998" type="curve" smooth="yes"/>
      <point x="1348" y="1316"/>
      <point x="1123" y="1500"/>
      <point x="734" y="1500" type="curve" smooth="yes"/>
      <point x="100" y="1500" type="line"/>
      <point x="100" y="0" type="line"/>
      <point x="496" y="0" type="line"/>
      <point x="496" y="496" type="line"/>
      <point x="704" y="496" type="line"/>
      <point x="990" y="0" type="line"/>
    </contour>
    <contour>
      <point x="496" y="801" type="line"/>
      <point x="496" y="1155" type="line"/>
      <point x="703" y="1155" type="line" smooth="yes"/>
      <point x="862" y="1155"/>
      <point x="943" y="1095"/>
      <point x="943" y="978" type="curve" smooth="yes"/>
      <point x="943" y="861"/>
      <point x="862" y="801"/>
      <point x="703" y="801" type="curve" smooth="yes"/>
    </contour>
  </outline>
</glyph>
<glyph name="T" format="2">
  <advance width="1248"/>
  <unicode hex="0054"/>
  <anchor x="624" y="0" name="bottom"/>
  <anchor x="624" y="750" name="center"/>
  <anchor x="624" y="1500" name="top"/>
  <outline>
    <contour>
      <point x="822" y="0" type="line"/>
      <point x="822" y="1155" type="line"/>
      <point x="1238" y="1155" type="line"/>
      <point x="1238" y="1500" type="line"/>
      <point x="10" y="1500" type="line"/>
      <point x="10" y="1155" type="line"/>
      <point x="426" y="1155" type="line"/>
      <point x="426" y="0" type="line"/>
    </contour>
  </outline>
</glyph>
<glyph name="U" format="2">
  <advance width="1544"/>
  <unicode hex="0055"/>
  <anchor x="772" y="0" name="bottom"/>
  <anchor x="1013" y="0" name="ogonek"/>
  <anchor x="772" y="1500" name="top"/>
  <anchor x="1524" y="1500" name="topright"/>
  <outline>
    <contour>
      <point x="1444" y="1500" type="line"/>
      <point x="1048" y="1500" type="line"/>
      <point x="1048" y="731" type="line" smooth="yes"/>
      <point x="1048" y="445"/>
      <point x="962" y="315"/>
      <point x="772" y="315" type="curve" smooth="yes"/>
      <point x="582" y="315"/>
      <point x="496" y="445"/>
      <point x="496" y="731" type="curve" smooth="yes"/>
      <point x="496" y="1500" type="line"/>
      <point x="100" y="1500" type="line"/>
      <point x="100" y="677" type="line" smooth="yes"/>
      <point x="100" y="236"/>
      <point x="353" y="-30"/>
      <point x="772" y="-30" type="curve" smooth="yes"/>
      <point x="1191" y="-30"/>
      <point x="1444" y="236"/>
      <point x="1444" y="677" type="curve" smooth="yes"/>
    </contour>
  </outline>
</glyph>
<glyph name="V" format="1">
  <advance width="1606"/>
  <unicode hex="0056"/>
  <outline>
    <contour>
      <point x="1011" y="0" type="line"/>
      <point x="1596" y="1500" type="line" name="n7"/>
      <point x="1181" y="1500" type="line"/>
      <point x="803" y="460" type="line"/>
      <point x="425" y="1500" type="line" name="ab02"/>
      <point x="10" y="1500" type="line"/>
      <point x="596" y="0" type="line" name="at02"/>
    </contour>
  </outline>
</glyph>
<glyph name="W" format="2">
  <advance width="2249"/>
  <unicode hex="0057"/>
  <anchor x="1125" y="0" name="bottom"/>
  <anchor x="1125" y="1500" name="top"/>
  <outline>
    <contour>
      <point x="1753" y="0" type="line"/>
      <point x="2239" y="1500" type="line"/>
      <point x="1823" y="1500" type="line"/>
      <point x="1567" y="640" type="line"/>
      <point x="1311" y="1500" type="line"/>
      <point x="940" y="1500" type="line"/>
      <point x="683" y="638" type="line"/>
      <point x="426" y="1500" type="line"/>
      <point x="10" y="1500" type="line"/>
      <point x="498" y="0" type="line"/>
      <point x="869" y="0" type="line"/>
      <point x="1126" y="855" type="line"/>
      <point x="1382" y="0" type="line"/>
    </contour>
  </outline>
</glyph>
<glyph name="X" format="2">
  <advance width="1637"/>
  <unicode hex="0058"/>
  <outline>
    <contour>
      <point x="1627" y="0" type="line"/>
      <point x="1058" y="778" type="line"/>
      <point x="1584" y="1500" type="line"/>
      <point x="1096" y="1500" type="line"/>
      <point x="831" y="1095" type="line"/>
      <point x="554" y="1500" type="line"/>
      <point x="55" y="1500" type="line"/>
      <point x="578" y="764" type="line"/>
      <point x="10" y="0" type="line"/>
      <point x="479" y="0" type="line"/>
      <point x="804" y="471" type="line"/>
      <point x="1128" y="0" type="line"/>
    </contour>
  </outline>
</glyph>
<glyph name="Y" format="2">
  <advance width="1532"/>
  <unicode hex="0059"/>
  <anchor x="766" y="0" name="bottom"/>
  <anchor x="766" y="1500" name="top"/>
  <anchor x="20" y="1500" name="topleft"/>
  <outline>
    <contour>
      <point x="964" y="0" type="line"/>
      <point x="964" y="640" type="line"/>
      <point x="1522" y="1500" type="line"/>
      <point x="1041" y="1500" type="line"/>
      <point x="764" y="994" type="line"/>
      <point x="491" y="1500" type="line"/>
      <point x="10" y="1500" type="line"/>
      <point x="568" y="641" type="line"/>
      <point x="568" y="0" type="line"/>
    </contour>
  </outline>
</glyph>
<glyph name="Z" format="1">
  <advance width="1282"/>
  <unicode hex="005A"/>
  <outline>
    <contour>
      <point x="1222" y="0" type="line"/>
      <point x="1222" y="345" type="line"/>
      <point x="590" y="345" type="line"/>
      <point x="1212" y="1200" type="line"/>
      <point x="1212" y="1500" type="line"/>
      <point x="100" y="1500" type="line"/>
      <point x="100" y="1155" type="line"/>
      <point x="689" y="1155" type="line"/>
      <point x="60" y="290" type="line"/>
      <point x="60" y="0" type="line"/>
    </contour>
  </outline>
</glyph>
<glyph name="bracketleft" format="2">
  <advance width="690"/>
  <unicode hex="005B"/>
  <outline>
    <contour>
      <point x="670" y="-289" type="line"/>
      <point x="670" y="5" type="line"/>
      <point x="420" y="5" type="line"/>
      <point x="420" y="1250" type="line"/>
      <point x="670" y="1250" type="line"/>
      <point x="670" y="1540" type="line"/>
      <point x="100" y="1540" type="line"/>
      <point x="100" y="-289" type="line"/>
    </contour>
  </outline>
</glyph>
<glyph name="asciicircum" format="2">
  <advance width="1089"/>
  <unicode hex="005E"/>
  <outline>
    <contour>
      <point x="1069" y="700" type="line"/>
      <point x="643" y="1500" type="line"/>
      <point x="446" y="1500" type="line"/>
      <point x="20" y="700" type="line"/>
      <point x="298" y="700" type="line"/>
      <point x="545" y="1215" type="line"/>
      <point x="791" y="700" type="line"/>
    </contour>
  </outline>
</glyph>
<glyph name="underscore" format="1">
  <advance width="1303"/>
  <unicode hex="005F"/>
  <outline>
    <contour>
      <point x="1203" y="0" type="line"/>
      <point x="1203" y="290" type="line"/>
      <point x="100" y="290" type="line"/>
      <point x="100" y="0" type="line"/>
    </contour>
  </outline>
</glyph>
<glyph name="b" format="1">
  <advance width="1265"/>
  <unicode hex="0062"/>
  <outline>
    <contour>
      <point x="423" y="0" type="line"/>
      <point x="441" y="129" type="line"/>
      <point x="521" y="35"/>
      <point x="635" y="-20"/>
      <point x="766" y="-20" type="curve" smooth="yes" name="dv01"/>
      <point x="1027" y="-20"/>
      <point x="1215" y="200"/>
      <point x="1215" y="500" type="curve" smooth="yes" name="sh03"/>
      <point x="1215" y="800"/>
      <point x="1027" y="1020"/>
      <point x="766" y="1020" type="curve" smooth="yes" name="at01"/>
      <point x="649" y="1020"/>
      <point x="547" y="976"/>
      <point x="469" y="900" type="curve"/>
      <point x="469" y="1500" type="line"/>
      <point x="100" y="1500" type="line" name="at01"/>
      <point x="100" y="0" type="line" name="dh01"/>
    </contour>
    <contour>
      <point x="653" y="310" type="curve" smooth="yes" name="dv02"/>
      <point x="552" y="310"/>
      <point x="477" y="381"/>
      <point x="469" y="483" type="curve"/>
      <point x="469" y="520" type="line" name="sh02"/>
      <point x="477" y="619"/>
      <point x="552" y="690"/>
      <point x="653" y="690" type="curve" smooth="yes" name="sv01"/>
      <point x="760" y="690"/>
      <point x="837" y="610"/>
      <point x="837" y="502" type="curve" smooth="yes" name="ah01"/>
      <point x="837" y="390"/>
      <point x="760" y="310"/>
    </contour>
  </outline>
</glyph>
<glyph name="e" format="2">
  <advance width="1166"/>
  <unicode hex="0065"/>
  <anchor x="583" y="0" name="bottom"/>
  <anchor x="829" y="0" name="ogonek"/>
  <anchor x="583" y="1000" name="top"/>
  <outline>
    <contour>
      <point x="1051" y="105" type="curve"/>
      <point x="955" y="360" type="line"/>
      <point x="874.1" y="302.15"/>
      <point x="779.15" y="270.2"/>
      <point x="688.35" y="270.2" type="curve" smooth="yes"/>
      <point x="559.298" y="270.2"/>
      <point x="481.187" y="332.116"/>
      <point x="446.186" y="410" type="curve"/>
      <point x="1116" y="410" type="line"/>
      <point x="1116" y="442" type="line" smooth="yes"/>
      <point x="1116" y="785.9"/>
      <point x="900.1" y="1020"/>
      <point x="583" y="1020" type="curve" smooth="yes"/>
      <point x="278.45" y="1020"/>
      <point x="50" y="804.4"/>
      <point x="50" y="517" type="curve" smooth="yes"/>
      <point x="50" y="211.95"/>
      <point x="306.95" y="-20"/>
      <point x="645" y="-20" type="curve" smooth="yes"/>
      <point x="789.05" y="-20"/>
      <point x="928.35" y="22.9"/>
    </contour>
    <contour>
      <point x="428.516" y="560" type="line"/>
      <point x="444.502" y="647.1"/>
      <point x="505.645" y="720"/>
      <point x="602" y="720" type="curve" smooth="yes"/>
      <point x="696.95" y="720"/>
      <point x="768.9" y="654.6"/>
      <point x="778" y="560" type="curve"/>
    </contour>
  </outline>
</glyph>
<glyph name="f" format="2">
  <advance width="985"/>
  <unicode hex="0066"/>
  <outline>
    <contour>
      <point x="554" y="0" type="line"/>
      <point x="554" y="671" type="line"/>
      <point x="846" y="671" type="line"/>
      <point x="846" y="1000" type="line"/>
      <point x="554" y="1000" type="line"/>
      <point x="554" y="1044" type="line" smooth="yes"/>
      <point x="554" y="1147"/>
      <point x="620" y="1200"/>
      <point x="698" y="1200" type="curve" smooth="yes"/>
      <point x="744" y="1200"/>
      <point x="794" y="1182"/>
      <point x="836" y="1144" type="curve"/>
      <point x="975" y="1430" type="line"/>
      <point x="863" y="1499"/>
      <point x="745" y="1530"/>
      <point x="636" y="1530" type="curve" smooth="yes"/>
      <point x="377" y="1530"/>
      <point x="185" y="1354"/>
      <point x="185" y="1116" type="curve" smooth="yes"/>
      <point x="185" y="1000" type="line"/>
      <point x="10" y="1000" type="line"/>
      <point x="10" y="671" type="line"/>
      <point x="185" y="671" type="line"/>
      <point x="185" y="0" type="line"/>
    </contour>
  </outline>
</glyph>
<glyph name="g" format="2">
  <advance width="1255"/>
  <unicode hex="0067"/>
  <anchor x="628" y="-500" name="bottom"/>
  <anchor x="628" y="1000" name="top"/>
  <outline>
    <contour>
      <point x="499" y="-20" type="curve" smooth="yes" name="dv01"/>
      <point x="616" y="-20"/>
      <point x="718" y="24"/>
      <point x="796" y="100" type="curve"/>
      <point x="796" y="45" type="line" smooth="yes"/>
      <point x="796" y="-92"/>
      <point x="681" y="-190"/>
      <point x="522" y="-190" type="curve" smooth="yes"/>
      <point x="416" y="-190"/>
      <point x="314" y="-147"/>
      <point x="229" y="-66" type="curve"/>
      <point x="84" y="-369" type="line"/>
      <point x="231" y="-472"/>
      <point x="379" y="-520"/>
      <point x="551" y="-520" type="curve" smooth="yes"/>
      <point x="919" y="-520"/>
      <point x="1165" y="-300"/>
      <point x="1165" y="29" type="curve" smooth="yes"/>
      <point x="1165" y="1000" type="line"/>
      <point x="842" y="1000" type="line"/>
      <point x="825" y="869" type="line"/>
      <point x="745" y="963"/>
      <point x="631" y="1020"/>
      <point x="499" y="1020" type="curve" smooth="yes" name="at01"/>
      <point x="239" y="1020"/>
      <point x="50" y="801"/>
      <point x="50" y="500" type="curve" smooth="yes" name="sh03"/>
      <point x="50" y="199"/>
      <point x="239" y="-20"/>
    </contour>
    <contour>
      <point x="613" y="310" type="curve" smooth="yes" name="dv02"/>
      <point x="506" y="310"/>
      <point x="428" y="390"/>
      <point x="428" y="500" type="curve" smooth="yes" name="ah01"/>
      <point x="428" y="610"/>
      <point x="507" y="690"/>
      <point x="613" y="690" type="curve" smooth="yes" name="sv01"/>
      <point x="713" y="690"/>
      <point x="796" y="620"/>
      <point x="796" y="522" type="curve" smooth="yes" name="sh02"/>
      <point x="796" y="481" type="line" smooth="yes"/>
      <point x="796" y="380"/>
      <point x="714" y="310"/>
    </contour>
  </outline>
</glyph>
<glyph name="h" format="1">
  <advance width="1219"/>
  <unicode hex="0068"/>
  <outline>
    <contour>
      <point x="100" y="0" type="line" name="at01"/>
      <point x="469" y="0" type="line"/>
      <point x="469" y="482" type="line" smooth="yes"/>
      <point x="469" y="614"/>
      <point x="525" y="690"/>
      <point x="622" y="690" type="curve" smooth="yes" name="sv01"/>
      <point x="717" y="690"/>
      <point x="770" y="615"/>
      <point x="770" y="482" type="curve" smooth="yes"/>
      <point x="770" y="0" type="line" name="dh02"/>
      <point x="1139" y="0" type="line" name="ab02"/>
      <point x="1139" y="583" type="line" smooth="yes"/>
      <point x="1139" y="857"/>
      <point x="995" y="1020"/>
      <point x="752" y="1020" type="curve" smooth="yes" name="at02"/>
      <point x="633" y="1020"/>
      <point x="538" y="980"/>
      <point x="469" y="904" type="curve"/>
      <point x="469" y="1500" type="line"/>
      <point x="100" y="1500" type="line" name="dh01"/>
    </contour>
  </outline>
</glyph>
<glyph name="j" format="2">
  <advance width="553"/>
  <unicode hex="006A"/>
  <outline>
    <contour>
      <point x="278" y="1188" type="curve" smooth="yes"/>
      <point x="368" y="1188"/>
      <point x="439" y="1259"/>
      <point x="439" y="1349" type="curve" smooth="yes"/>
      <point x="439" y="1438"/>
      <point x="368" y="1510"/>
      <point x="278" y="1510" type="curve" smooth="yes"/>
      <point x="188" y="1510"/>
      <point x="119" y="1438"/>
      <point x="119" y="1349" type="curve" smooth="yes"/>
      <point x="119" y="1259"/>
      <point x="188" y="1188"/>
    </contour>
    <contour>
      <point x="-169" y="-499" type="line"/>
      <point x="-99" y="-513"/>
      <point x="-35" y="-520"/>
      <point x="23" y="-520" type="curve" smooth="yes"/>
      <point x="316" y="-520"/>
      <point x="463" y="-347"/>
      <point x="463" y="-2" type="curve" smooth="yes"/>
      <point x="463" y="1000" type="line"/>
      <point x="94" y="1000" type="line"/>
      <point x="94" y="15" type="line" smooth="yes"/>
      <point x="94" y="-132"/>
      <point x="20" y="-214"/>
      <point x="-113.282" y="-214" type="curve" smooth="yes"/>
      <point x="-128" y="-214"/>
      <point x="-148" y="-213"/>
      <point x="-169" y="-209" type="curve"/>
    </contour>
  </outline>
</glyph>
<glyph name="k" format="2">
  <advance width="1282"/>
  <unicode hex="006B"/>
  <anchor x="585" y="0" name="bottom"/>
  <anchor x="641" y="1500" name="top"/>
  <outline>
    <contour>
      <point x="469" y="0" type="line"/>
      <point x="469" y="277" type="line"/>
      <point x="546" y="328" type="line"/>
      <point x="797" y="0" type="line"/>
      <point x="1272" y="0" type="line"/>
      <point x="799" y="547" type="line"/>
      <point x="1232" y="1000" type="line"/>
      <point x="770" y="1000" type="line"/>
      <point x="580" y="801" type="line"/>
      <point x="469" y="667" type="line"/>
      <point x="469" y="1500" type="line"/>
      <point x="100" y="1500" type="line"/>
      <point x="100" y="0" type="line"/>
    </contour>
  </outline>
</glyph>
<glyph name="l" format="2">
  <advance width="596"/>
  <unicode hex="006C"/>
  <anchor x="298" y="0" name="bottom"/>
  <anchor x="298" y="500" name="center"/>
  <anchor x="298" y="1500" name="top"/>
  <anchor x="576" y="1500" name="topright"/>
  <outline>
    <contour>
      <point x="496" y="0" type="line"/>
      <point x="496" y="1500" type="line" name="av01"/>
      <point x="100" y="1500" type="line" name="dh01"/>
      <point x="100" y="0" type="line" name="ab01"/>
    </contour>
  </outline>
</glyph>
<glyph name="m" format="1">
  <advance width="1837"/>
  <unicode hex="006D"/>
  <outline>
    <contour>
      <point x="1757" y="0" type="line" name="ab02"/>
      <point x="1757" y="583" type="line" smooth="yes"/>
      <point x="1757" y="857"/>
      <point x="1614" y="1020"/>
      <point x="1373" y="1020" type="curve" smooth="yes" name="at02"/>
      <point x="1229" y="1020"/>
      <point x="1120" y="961"/>
      <point x="1051" y="849" type="curve"/>
      <point x="987" y="959"/>
      <point x="876" y="1020"/>
      <point x="729" y="1020" type="curve" smooth="yes" name="at02"/>
      <point x="583" y="1020"/>
      <point x="472" y="959"/>
      <point x="404" y="844" type="curve"/>
      <point x="392" y="1000" type="line"/>
      <point x="100" y="1000" type="line" name="dh01"/>
      <point x="100" y="0" type="line" name="at01"/>
      <point x="469" y="0" type="line"/>
      <point x="469" y="482" type="line" smooth="yes"/>
      <point x="469" y="614"/>
      <point x="520" y="690"/>
      <point x="609" y="690" type="curve" smooth="yes" name="sv01"/>
      <point x="696" y="690"/>
      <point x="744" y="615"/>
      <point x="744" y="482" type="curve" smooth="yes"/>
      <point x="744" y="0" type="line" name="dh02"/>
      <point x="1113" y="0" type="line" name="ab02"/>
      <point x="1113" y="482" type="line" smooth="yes"/>
      <point x="1113" y="614"/>
      <point x="1164" y="690"/>
      <point x="1253" y="690" type="curve" smooth="yes" name="sv01"/>
      <point x="1340" y="690"/>
      <point x="1388" y="615"/>
      <point x="1388" y="482" type="curve" smooth="yes"/>
      <point x="1388" y="0" type="line" name="dh02"/>
    </contour>
  </outline>
</glyph>
<glyph name="n" format="2">
  <advance width="1219"/>
  <unicode hex="006E"/>
  <anchor x="610" y="0" name="bottom"/>
  <anchor x="630" y="1000" name="top"/>
  <outline>
    <contour>
      <point x="1139" y="0" type="line" name="ab02"/>
      <point x="1139" y="583" type="line" smooth="yes"/>
      <point x="1139" y="857"/>
      <point x="991" y="1020"/>
      <point x="743" y="1020" type="curve" smooth="yes" name="at02"/>
      <point x="590" y="1020"/>
      <point x="474" y="958"/>
      <point x="404" y="841" type="curve"/>
      <point x="392" y="1000" type="line"/>
      <point x="100" y="1000" type="line" name="dh01"/>
      <point x="100" y="0" type="line" name="at01"/>
      <point x="469" y="0" type="line"/>
      <point x="469" y="482" type="line" smooth="yes"/>
      <point x="469" y="614"/>
      <point x="525" y="690"/>
      <point x="622" y="690" type="curve" smooth="yes" name="sv01"/>
      <point x="717" y="690"/>
      <point x="770" y="615"/>
      <point x="770" y="482" type="curve" smooth="yes"/>
      <point x="770" y="0" type="line" name="dh02"/>
    </contour>
  </outline>
</glyph>
<glyph name="o" format="2">
  <advance width="1188"/>
  <unicode hex="006F"/>
  <anchor x="594" y="0" name="bottom"/>
  <anchor x="594" y="500" name="center"/>
  <anchor x="1069" y="10" name="ogonek"/>
  <anchor x="594" y="1000" name="top"/>
  <anchor x="1168" y="1000" name="topright"/>
  <outline>
    <contour>
      <point x="595" y="-20" type="curve" smooth="yes" name="dv01"/>
      <point x="910" y="-20"/>
      <point x="1138" y="200"/>
      <point x="1138" y="500" type="curve" smooth="yes" name="sh03"/>
      <point x="1138" y="800"/>
      <point x="910" y="1020"/>
      <point x="595" y="1020" type="curve" smooth="yes" name="at01"/>
      <point x="280" y="1020"/>
      <point x="50" y="800"/>
      <point x="50" y="500" type="curve" smooth="yes" name="sh01"/>
      <point x="50" y="200"/>
      <point x="280" y="-20"/>
    </contour>
    <contour>
      <point x="594" y="310" type="curve" smooth="yes" name="dv02"/>
      <point x="498" y="310"/>
      <point x="428" y="390"/>
      <point x="428" y="502" type="curve" smooth="yes" name="sh02"/>
      <point x="428" y="610"/>
      <point x="498" y="690"/>
      <point x="594" y="690" type="curve" smooth="yes" name="sv01"/>
      <point x="690" y="690"/>
      <point x="760" y="610"/>
      <point x="760" y="502" type="curve" smooth="yes" name="ah01"/>
      <point x="760" y="390"/>
      <point x="690" y="310"/>
    </contour>
  </outline>
</glyph>
<glyph name="q" format="2">
  <advance width="1266"/>
  <unicode hex="0071"/>
  <outline>
    <contour>
      <point x="1166" y="-500" type="line" name="at01"/>
      <point x="1166" y="1000" type="line" name="dh01"/>
      <point x="843" y="1000" type="line"/>
      <point x="824" y="870" type="line"/>
      <point x="744" y="964"/>
      <point x="630" y="1020"/>
      <point x="499" y="1020" type="curve" smooth="yes" name="dv01"/>
      <point x="238" y="1020"/>
      <point x="50" y="800"/>
      <point x="50" y="500" type="curve" smooth="yes" name="sh03"/>
      <point x="50" y="200"/>
      <point x="238" y="-20"/>
      <point x="499" y="-20" type="curve" smooth="yes" name="at01"/>
      <point x="616" y="-20"/>
      <point x="719" y="24"/>
      <point x="797" y="100" type="curve"/>
      <point x="797" y="-500" type="line"/>
    </contour>
    <contour>
      <point x="613" y="310" type="curve" smooth="yes" name="sv01"/>
      <point x="506" y="310"/>
      <point x="428" y="390"/>
      <point x="428" y="500" type="curve" smooth="yes" name="ah01"/>
      <point x="428" y="610"/>
      <point x="506" y="690"/>
      <point x="613" y="690" type="curve" smooth="yes" name="dv02"/>
      <point x="714" y="690"/>
      <point x="789" y="619"/>
      <point x="797" y="517" type="curve"/>
      <point x="797" y="480" type="line" name="sh02"/>
      <point x="789" y="381"/>
      <point x="714" y="310"/>
    </contour>
  </outline>
</glyph>
<glyph name="r" format="1">
  <advance width="894"/>
  <unicode hex="0072"/>
  <outline>
    <contour>
      <point x="469" y="0" type="line"/>
      <point x="469" y="443" type="line" smooth="yes"/>
      <point x="469" y="594"/>
      <point x="561" y="690"/>
      <point x="707" y="690" type="curve" smooth="yes"/>
      <point x="748" y="690"/>
      <point x="794" y="682"/>
      <point x="843" y="666" type="curve"/>
      <point x="889" y="998" type="line"/>
      <point x="839" y="1013"/>
      <point x="791" y="1020"/>
      <point x="745" y="1020" type="curve" smooth="yes"/>
      <point x="608" y="1020"/>
      <point x="498" y="955"/>
      <point x="432" y="843" type="curve"/>
      <point x="420" y="1000" type="line"/>
      <point x="100" y="1000" type="line" name="dh01"/>
      <point x="100" y="0" type="line" name="at01"/>
    </contour>
  </outline>
</glyph>
<glyph name="s" format="2">
  <advance width="910"/>
  <unicode hex="0073"/>
  <anchor x="455" y="0" name="bottom"/>
  <anchor x="484" y="1000" name="top"/>
  <outline>
    <contour>
      <point x="30" y="85" type="line"/>
      <point x="155" y="17"/>
      <point x="300" y="-20"/>
      <point x="445" y="-20" type="curve" smooth="yes"/>
      <point x="711" y="-20"/>
      <point x="880" y="104"/>
      <point x="880" y="298" type="curve" smooth="yes"/>
      <point x="880" y="496"/>
      <point x="705" y="557"/>
      <point x="572" y="604" type="curve" smooth="yes"/>
      <point x="491" y="633"/>
      <point x="426" y="656"/>
      <point x="426" y="701" type="curve" smooth="yes"/>
      <point x="426" y="728"/>
      <point x="448" y="744"/>
      <point x="492" y="744" type="curve" smooth="yes"/>
      <point x="572" y="744"/>
      <point x="712" y="690"/>
      <point x="777" y="634" type="curve"/>
      <point x="880" y="915" type="line"/>
      <point x="741" y="984"/>
      <point x="596" y="1020"/>
      <point x="459" y="1020" type="curve" smooth="yes"/>
      <point x="209" y="1020"/>
      <point x="48" y="900"/>
      <point x="48" y="710" type="curve" smooth="yes"/>
      <point x="48" y="513"/>
      <point x="223" y="451"/>
      <point x="351.28" y="405.229" type="curve" smooth="yes"/>
      <point x="436" y="375"/>
      <point x="501" y="352"/>
      <point x="501" y="306" type="curve" smooth="yes"/>
      <point x="501" y="276"/>
      <point x="472" y="260"/>
      <point x="419" y="260" type="curve" smooth="yes"/>
      <point x="313" y="260"/>
      <point x="159" y="324"/>
      <point x="106" y="389" type="curve"/>
    </contour>
  </outline>
</glyph>
<glyph name="v" format="2">
  <advance width="1197"/>
  <unicode hex="0076"/>
  <outline>
    <contour>
      <point x="1177" y="1000" type="line"/>
      <point x="784" y="1000" type="line"/>
      <point x="599" y="368" type="line"/>
      <point x="414" y="1000" type="line"/>
      <point x="20" y="1000" type="line"/>
      <point x="420" y="0" type="line"/>
      <point x="777" y="0" type="line"/>
    </contour>
  </outline>
</glyph>
<glyph name="w" format="2">
  <advance width="1742"/>
  <unicode hex="0077"/>
  <anchor x="871" y="0" name="bottom"/>
  <anchor x="871" y="1000" name="top"/>
  <outline>
    <contour>
      <point x="1407" y="0" type="line"/>
      <point x="1732" y="1000" type="line"/>
      <point x="1342" y="1000" type="line"/>
      <point x="1203" y="367" type="line"/>
      <point x="1029" y="1000" type="line"/>
      <point x="713" y="1000" type="line"/>
      <point x="539" y="371" type="line"/>
      <point x="400" y="1000" type="line"/>
      <point x="10" y="1000" type="line"/>
      <point x="335" y="0" type="line"/>
      <point x="755" y="0" type="line"/>
      <point x="871" y="519" type="line"/>
      <point x="987" y="0" type="line"/>
    </contour>
  </outline>
</glyph>
<glyph name="x" format="1">
  <advance width="1393"/>
  <unicode hex="0078"/>
  <outline>
    <contour>
      <point x="528" y="0" type="line"/>
      <point x="696" y="281" type="line"/>
      <point x="865" y="0" type="line"/>
      <point x="1383" y="0" type="line"/>
      <point x="955" y="510" type="line"/>
      <point x="1368" y="1000" type="line"/>
      <point x="850" y="1000" type="line"/>
      <point x="697" y="744" type="line"/>
      <point x="543" y="1000" type="line"/>
      <point x="25" y="1000" type="line"/>
      <point x="438" y="508" type="line"/>
      <point x="10" y="0" type="line"/>
    </contour>
  </outline>
</glyph>
<glyph name="y" format="2">
  <advance width="1369"/>
  <unicode hex="0079"/>
  <anchor x="1216" y="0" name="bottom"/>
  <anchor x="715" y="1000" name="top"/>
  <outline>
    <contour>
      <point x="737" y="-500" type="line"/>
      <point x="1359" y="1000" type="line"/>
      <point x="969" y="1000" type="line"/>
      <point x="727" y="416" type="line"/>
      <point x="450" y="1000" type="line"/>
      <point x="30" y="1000" type="line"/>
      <point x="553" y="-3" type="line"/>
      <point x="347" y="-500" type="line"/>
    </contour>
  </outline>
</glyph>
<glyph name="z" format="2">
  <advance width="1148"/>
  <unicode hex="007A"/>
  <anchor x="574" y="0" name="bottom"/>
  <anchor x="574" y="500" name="center"/>
  <anchor x="594" y="1000" name="top"/>
  <outline>
    <contour>
      <point x="1098" y="0" type="line"/>
      <point x="1098" y="330" type="line"/>
      <point x="612" y="330" type="line"/>
      <point x="1056" y="850" type="line"/>
      <point x="1056" y="1000" type="line"/>
      <point x="75" y="1000" type="line"/>
      <point x="75" y="670" type="line"/>
      <point x="469" y="670" type="line"/>
      <point x="50" y="180" type="line"/>
      <point x="50" y="0" type="line"/>
    </contour>
  </outline>
</glyph>
<glyph name="bar" format="1">
  <advance width="520"/>
  <unicode hex="007C"/>
  <outline>
    <contour>
      <point x="420" y="-250" type="line"/>
      <point x="420" y="1540" type="line" name="av01"/>
      <point x="100" y="1540" type="line" name="dh01"/>
      <point x="100" y="-250" type="line" name="av02"/>
    </contour>
  </outline>
</glyph>
<glyph name="asciitilde" format="1">
  <advance width="1242"/>
  <unicode hex="007E"/>
  <outline>
    <contour>
      <point x="1142" y="538" type="curve" name="iv01"/>
      <point x="1142" y="800" type="line" name="iv01"/>
      <point x="1050" y="700"/>
      <point x="962" y="652"/>
      <point x="865" y="652" type="curve" smooth="yes"/>
      <point x="784" y="652"/>
      <point x="706" y="686"/>
      <point x="629" y="721" type="curve" smooth="yes"/>
      <point x="551" y="756"/>
      <point x="473" y="791"/>
      <point x="388" y="791" type="curve" smooth="yes"/>
      <point x="291" y="791"/>
      <point x="199" y="744"/>
      <point x="100" y="647" type="curve"/>
      <point x="100" y="385" type="line"/>
      <point x="197" y="482"/>
      <point x="289" y="529"/>
      <point x="386" y="529" type="curve" smooth="yes"/>
      <point x="471" y="529"/>
      <point x="549" y="494"/>
      <point x="627" y="459" type="curve" smooth="yes"/>
      <point x="704" y="424"/>
      <point x="782" y="390"/>
      <point x="863" y="390" type="curve" smooth="yes"/>
      <point x="959" y="390"/>
      <point x="1048" y="438"/>
    </contour>
  </outline>
</glyph>
<glyph name="sterling" format="2">
  <advance width="1253"/>
  <unicode hex="00A3"/>
  <outline>
    <contour>
      <point x="966" y="650" type="line"/>
      <point x="966" y="850" type="line"/>
      <point x="579" y="850" type="line"/>
      <point x="574" y="895"/>
      <point x="571" y="942"/>
      <point x="571" y="990" type="curve" smooth="yes"/>
      <point x="571" y="1107"/>
      <point x="644" y="1191"/>
      <point x="746" y="1191" type="curve" smooth="yes"/>
      <point x="825" y="1191"/>
      <point x="897" y="1141"/>
      <point x="942" y="1054" type="curve"/>
      <point x="1183" y="1231" type="line"/>
      <point x="1079" y="1413"/>
      <point x="894" y="1520"/>
      <point x="685" y="1520" type="curve" smooth="yes"/>
      <point x="411" y="1520"/>
      <point x="215" y="1338"/>
      <point x="215" y="1084" type="curve" smooth="yes"/>
      <point x="215" y="999"/>
      <point x="237" y="924"/>
      <point x="261" y="850" type="curve"/>
      <point x="70" y="850" type="line"/>
      <point x="70" y="650" type="line"/>
      <point x="320" y="650" type="line"/>
      <point x="326" y="621"/>
      <point x="329" y="590"/>
      <point x="329" y="559" type="curve" smooth="yes"/>
      <point x="329" y="383"/>
      <point x="223" y="258"/>
      <point x="70" y="200" type="curve"/>
      <point x="70" y="0" type="line"/>
      <point x="1120" y="0" type="line"/>
      <point x="1120" y="330" type="line"/>
      <point x="533" y="330" type="line"/>
      <point x="581" y="401"/>
      <point x="603" y="482"/>
      <point x="603" y="576" type="curve" smooth="yes"/>
      <point x="603" y="604"/>
      <point x="602" y="626"/>
      <point x="597" y="650" type="curve"/>
    </contour>
  </outline>
</glyph>
<glyph name="currency" format="2">
  <advance width="1228"/>
  <unicode hex="00A4"/>
  <outline>
    <contour>
      <point x="1157" y="379" type="line"/>
      <point x="993" y="538" type="line"/>
      <point x="1036" y="607"/>
      <point x="1060" y="691"/>
      <point x="1060" y="784" type="curve" smooth="yes"/>
      <point x="1060" y="876"/>
      <point x="1036" y="958"/>
      <point x="994" y="1027" type="curve"/>
      <point x="1158" y="1186" type="line"/>
      <point x="1017" y="1327" type="line"/>
      <point x="858" y="1163" type="line"/>
      <point x="789" y="1205"/>
      <point x="707" y="1230"/>
      <point x="614" y="1230" type="curve" smooth="yes"/>
      <point x="522" y="1230"/>
      <point x="438" y="1206"/>
      <point x="369" y="1163" type="curve"/>
      <point x="211" y="1325" type="line"/>
      <point x="70" y="1185" type="line"/>
      <point x="233" y="1027" type="line"/>
      <point x="191" y="958"/>
      <point x="168" y="875"/>
      <point x="168" y="783" type="curve" smooth="yes"/>
      <point x="168" y="690"/>
      <point x="192" y="607"/>
      <point x="234" y="538" type="curve"/>
      <point x="70" y="380" type="line"/>
      <point x="211" y="239" type="line"/>
      <point x="369" y="402" type="line"/>
      <point x="438" y="359"/>
      <point x="521" y="336"/>
      <point x="613" y="336" type="curve" smooth="yes"/>
      <point x="706" y="336"/>
      <point x="790" y="360"/>
      <point x="859" y="403" type="curve"/>
      <point x="1017" y="239" type="line"/>
    </contour>
    <contour>
      <point x="614" y="576" type="curve" smooth="yes"/>
      <point x="507" y="576"/>
      <point x="428" y="663"/>
      <point x="428" y="783" type="curve" smooth="yes"/>
      <point x="428" y="903"/>
      <point x="508" y="990"/>
      <point x="614" y="990" type="curve" smooth="yes"/>
      <point x="721" y="990"/>
      <point x="800" y="903"/>
      <point x="800" y="783" type="curve" smooth="yes"/>
      <point x="800" y="662"/>
      <point x="721" y="576"/>
    </contour>
  </outline>
</glyph>
<glyph name="yen" format="2">
  <advance width="1364"/>
  <unicode hex="00A5"/>
  <outline>
    <contour>
      <point x="871" y="0" type="line"/>
      <point x="871" y="245" type="line"/>
      <point x="1135" y="245" type="line"/>
      <point x="1135" y="395" type="line"/>
      <point x="871" y="395" type="line"/>
      <point x="871" y="496" type="line"/>
      <point x="1135" y="496" type="line"/>
      <point x="1135" y="646" type="line"/>
      <point x="878" y="646" type="line"/>
      <point x="1344" y="1500" type="line"/>
      <point x="914" y="1500" type="line"/>
      <point x="681" y="945" type="line"/>
      <point x="450" y="1500" type="line"/>
      <point x="20" y="1500" type="line"/>
      <point x="492" y="646" type="line"/>
      <point x="228" y="646" type="line"/>
      <point x="228" y="496" type="line"/>
      <point x="495" y="496" type="line"/>
      <point x="495" y="395" type="line"/>
      <point x="228" y="395" type="line"/>
      <point x="228" y="245" type="line"/>
      <point x="495" y="245" type="line"/>
      <point x="495" y="0" type="line"/>
    </contour>
  </outline>
</glyph>
<glyph name="brokenbar" format="2">
  <advance width="520"/>
  <unicode hex="00A6"/>
  <outline>
    <contour>
      <point x="420" y="820" type="line"/>
      <point x="420" y="1540" type="line" name="av01"/>
      <point x="100" y="1540" type="line" name="dh01"/>
      <point x="100" y="820" type="line"/>
    </contour>
    <contour>
      <point x="420" y="-250" type="line"/>
      <point x="420" y="470" type="line" name="sh01"/>
      <point x="100" y="470" type="line" name="sh02"/>
      <point x="100" y="-250" type="line" name="av02"/>
    </contour>
  </outline>
</glyph>
<glyph name="section" format="1">
  <advance width="1077"/>
  <unicode hex="00A7"/>
  <outline>
    <contour>
      <point x="101" y="17" type="line"/>
      <point x="224" y="-53"/>
      <point x="362" y="-90"/>
      <point x="496" y="-90" type="curve" smooth="yes"/>
      <point x="760" y="-90"/>
      <point x="952" y="55"/>
      <point x="952" y="255" type="curve" smooth="yes"/>
      <point x="952" y="357"/>
      <point x="901" y="427"/>
      <point x="831" y="479" type="curve"/>
      <point x="923" y="548"/>
      <point x="977" y="640"/>
      <point x="977" y="744" type="curve" smooth="yes"/>
      <point x="977" y="932"/>
      <point x="799" y="1002"/>
      <point x="657" y="1058" type="curve" smooth="yes"/>
      <point x="564" y="1095"/>
      <point x="486" y="1125"/>
      <point x="486" y="1179" type="curve" smooth="yes"/>
      <point x="486" y="1216"/>
      <point x="521" y="1238"/>
      <point x="581" y="1238" type="curve" smooth="yes"/>
      <point x="660" y="1238"/>
      <point x="775" y="1198"/>
      <point x="852" y="1145" type="curve"/>
      <point x="976" y="1423" type="line"/>
      <point x="853" y="1493"/>
      <point x="714" y="1530"/>
      <point x="580" y="1530" type="curve" smooth="yes"/>
      <point x="316" y="1530"/>
      <point x="125" y="1385"/>
      <point x="125" y="1185" type="curve" smooth="yes"/>
      <point x="125" y="1083"/>
      <point x="175" y="1013"/>
      <point x="245" y="961" type="curve"/>
      <point x="153" y="892"/>
      <point x="100" y="800"/>
      <point x="100" y="696" type="curve" smooth="yes"/>
      <point x="100" y="508"/>
      <point x="278" y="438"/>
      <point x="420" y="382" type="curve" smooth="yes"/>
      <point x="513" y="345"/>
      <point x="590" y="315"/>
      <point x="590" y="261" type="curve" smooth="yes"/>
      <point x="590" y="224"/>
      <point x="556" y="202"/>
      <point x="496" y="202" type="curve" smooth="yes"/>
      <point x="417" y="202"/>
      <point x="302" y="242"/>
      <point x="225" y="295" type="curve"/>
    </contour>
    <contour>
      <point x="681" y="562" type="curve"/>
      <point x="478" y="627"/>
      <point x="376" y="707"/>
      <point x="376" y="803" type="curve" smooth="yes"/>
      <point x="376" y="828"/>
      <point x="383" y="854"/>
      <point x="395" y="878" type="curve"/>
      <point x="598" y="813"/>
      <point x="701" y="733"/>
      <point x="701" y="637" type="curve" smooth="yes"/>
      <point x="701" y="612"/>
      <point x="693" y="586"/>
    </contour>
  </outline>
</glyph>
<glyph name="copyright" format="1">
  <advance width="1239"/>
  <unicode hex="00A9"/>
  <outline>
    <contour>
      <point x="620" y="-104" type="curve" smooth="yes"/>
      <point x="966" y="-104"/>
      <point x="1219" y="149"/>
      <point x="1219" y="495" type="curve" smooth="yes"/>
      <point x="1219" y="840"/>
      <point x="966" y="1093"/>
      <point x="620" y="1093" type="curve" smooth="yes"/>
      <point x="273" y="1093"/>
      <point x="20" y="840"/>
      <point x="20" y="495" type="curve" smooth="yes"/>
      <point x="20" y="149"/>
      <point x="273" y="-104"/>
    </contour>
    <contour>
      <point x="620" y="67" type="curve" smooth="yes"/>
      <point x="374" y="67"/>
      <point x="194" y="248"/>
      <point x="194" y="494" type="curve" smooth="yes"/>
      <point x="194" y="741"/>
      <point x="375" y="922"/>
      <point x="620" y="922" type="curve" smooth="yes"/>
      <point x="864" y="922"/>
      <point x="1045" y="740"/>
      <point x="1045" y="494" type="curve" smooth="yes"/>
      <point x="1045" y="249"/>
      <point x="866" y="67"/>
    </contour>
    <contour>
      <point x="887" y="260" type="curve"/>
      <point x="774" y="380" type="line"/>
      <point x="744" y="344"/>
      <point x="699" y="324"/>
      <point x="648" y="324" type="curve" smooth="yes" name="dv02.1"/>
      <point x="552" y="324"/>
      <point x="482" y="396"/>
      <point x="482" y="495" type="curve" smooth="yes" name="sh02.1"/>
      <point x="482" y="594"/>
      <point x="552" y="666"/>
      <point x="648" y="666" type="curve" smooth="yes" name="sv01.1"/>
      <point x="699" y="666"/>
      <point x="744" y="646"/>
      <point x="774" y="610" type="curve"/>
      <point x="887" y="730" type="line"/>
      <point x="823" y="791"/>
      <point x="735" y="824"/>
      <point x="637" y="824" type="curve" smooth="yes" name="at01.1"/>
      <point x="436" y="824"/>
      <point x="293" y="685"/>
      <point x="293" y="495" type="curve" smooth="yes" name="sh01.1"/>
      <point x="293" y="305"/>
      <point x="436" y="166"/>
      <point x="637" y="166" type="curve" smooth="yes" name="dv01.1"/>
      <point x="735" y="166"/>
      <point x="823" y="199"/>
    </contour>
  </outline>
</glyph>
<glyph name="ordfeminine" format="1">
  <advance width="803"/>
  <unicode hex="00AA"/>
  <outline>
    <contour>
      <point x="703" y="810" type="line" name="n0"/>
      <point x="703" y="1250" type="line" smooth="yes" name="n1"/>
      <point x="703" y="1417"/>
      <point x="579" y="1520"/>
      <point x="378" y="1520" type="curve" smooth="yes"/>
      <point x="269" y="1520"/>
      <point x="171" y="1489"/>
      <point x="87" y="1430" type="curve" name="n7"/>
      <point x="173" y="1268" type="line"/>
      <point x="225" y="1304"/>
      <point x="288" y="1325"/>
      <point x="351" y="1325" type="curve" smooth="yes"/>
      <point x="442" y="1325"/>
      <point x="496" y="1284"/>
      <point x="496" y="1214" type="curve" smooth="yes" name="n14"/>
      <point x="496" y="1204" type="line"/>
      <point x="445" y="1224"/>
      <point x="390" y="1235"/>
      <point x="337" y="1235" type="curve" smooth="yes"/>
      <point x="174" y="1235"/>
      <point x="50" y="1136"/>
      <point x="50" y="1007" type="curve" smooth="yes" name="n20"/>
      <point x="50" y="888" name="n21"/>
      <point x="156" y="800" name="n22"/>
      <point x="301" y="800" type="curve" smooth="yes" name="n23"/>
      <point x="387" y="800"/>
      <point x="459" y="832"/>
      <point x="505" y="892" type="curve"/>
      <point x="513" y="810" type="line" name="n16"/>
    </contour>
    <contour>
      <point x="358" y="964" type="curve" smooth="yes"/>
      <point x="300" y="964"/>
      <point x="261" y="994"/>
      <point x="261" y="1037" type="curve" smooth="yes"/>
      <point x="261" y="1087"/>
      <point x="314" y="1123"/>
      <point x="387" y="1123" type="curve" smooth="yes"/>
      <point x="427" y="1123"/>
      <point x="466" y="1111"/>
      <point x="496" y="1091" type="curve" name="n13"/>
      <point x="496" y="1066" type="line" smooth="yes" name="n1.1"/>
      <point x="496" y="1013"/>
      <point x="430" y="964"/>
    </contour>
  </outline>
</glyph>
<glyph name="guillemotleft" format="2">
  <advance width="1246"/>
  <unicode hex="00AB"/>
  <outline>
    <contour>
      <point x="1146" y="111" type="line"/>
      <point x="804" y="496" type="line"/>
      <point x="1146" y="882" type="line"/>
      <point x="807" y="882" type="line"/>
      <point x="484" y="497" type="line"/>
      <point x="807" y="111" type="line"/>
    </contour>
    <contour>
      <point x="682" y="111" type="line"/>
      <point x="340" y="496" type="line"/>
      <point x="682" y="882" type="line"/>
      <point x="343" y="882" type="line"/>
      <point x="20" y="497" type="line"/>
      <point x="343" y="111" type="line"/>
    </contour>
  </outline>
</glyph>
<glyph name="logicalnot" format="2">
  <advance width="1029"/>
  <unicode hex="00AC"/>
  <outline>
    <contour>
      <point x="929" y="52" type="line"/>
      <point x="929" y="627" type="line"/>
      <point x="100" y="627" type="line"/>
      <point x="100" y="337" type="line"/>
      <point x="609" y="337" type="line"/>
      <point x="609" y="52" type="line"/>
    </contour>
  </outline>
</glyph>
<glyph name="uni00AD" format="1">
  <advance width="1106"/>
  <unicode hex="00AD"/>
  <outline>
    <contour>
      <point x="1006" y="337" type="line"/>
      <point x="1006" y="627" type="line"/>
      <point x="100" y="627" type="line"/>
      <point x="100" y="337" type="line"/>
    </contour>
  </outline>
</glyph>
<glyph name="registered" format="2">
  <advance width="1239"/>
  <unicode hex="00AE"/>
  <outline>
    <contour>
      <point x="620" y="424" type="curve" smooth="yes"/>
      <point x="966" y="424"/>
      <point x="1219" y="677"/>
      <point x="1219" y="1023" type="curve" smooth="yes"/>
      <point x="1219" y="1368"/>
      <point x="966" y="1621"/>
      <point x="620" y="1621" type="curve" smooth="yes"/>
      <point x="273" y="1621"/>
      <point x="20" y="1368"/>
      <point x="20" y="1023" type="curve" smooth="yes"/>
      <point x="20" y="677"/>
      <point x="273" y="424"/>
    </contour>
    <contour>
      <point x="620" y="595" type="curve" smooth="yes"/>
      <point x="374" y="595"/>
      <point x="194" y="776"/>
      <point x="194" y="1022" type="curve" smooth="yes"/>
      <point x="194" y="1270"/>
      <point x="376" y="1451"/>
      <point x="620" y="1451" type="curve" smooth="yes"/>
      <point x="864" y="1451"/>
      <point x="1045" y="1269"/>
      <point x="1045" y="1022" type="curve" smooth="yes"/>
      <point x="1045" y="776"/>
      <point x="865" y="595"/>
    </contour>
    <contour>
      <point x="890" y="700" type="line"/>
      <point x="759" y="959" type="line"/>
      <point x="834" y="990"/>
      <point x="878" y="1055"/>
      <point x="878" y="1142" type="curve" smooth="yes"/>
      <point x="878" y="1265"/>
      <point x="789" y="1345"/>
      <point x="651" y="1345" type="curve" smooth="yes"/>
      <point x="383" y="1345" type="line"/>
      <point x="383" y="703" type="line"/>
      <point x="543" y="703" type="line"/>
      <point x="543" y="939" type="line"/>
      <point x="600" y="939" type="line"/>
      <point x="714" y="700" type="line"/>
    </contour>
    <contour>
      <point x="543" y="1069" type="line"/>
      <point x="543" y="1215" type="line"/>
      <point x="612" y="1215" type="line" smooth="yes"/>
      <point x="678" y="1215"/>
      <point x="713" y="1191"/>
      <point x="713" y="1144" type="curve" smooth="yes"/>
      <point x="713" y="1095"/>
      <point x="677" y="1069"/>
      <point x="612" y="1069" type="curve" smooth="yes"/>
    </contour>
  </outline>
</glyph>
<glyph name="macron" format="1">
  <advance width="898"/>
  <unicode hex="00AF"/>
  <outline>
    <contour>
      <point x="798" y="1225" type="line"/>
      <point x="798" y="1430" type="line"/>
      <point x="100" y="1430" type="line"/>
      <point x="100" y="1225" type="line"/>
    </contour>
  </outline>
</glyph>
<glyph name="plusminus" format="2">
  <advance width="1106"/>
  <unicode hex="00B1"/>
  <outline>
    <contour>
      <point x="713" y="332" type="line"/>
      <point x="713" y="617" type="line"/>
      <point x="1006" y="617" type="line"/>
      <point x="1006" y="907" type="line"/>
      <point x="713" y="907" type="line"/>
      <point x="713" y="1191" type="line"/>
      <point x="393" y="1191" type="line"/>
      <point x="393" y="907" type="line"/>
      <point x="100" y="907" type="line"/>
      <point x="100" y="617" type="line"/>
      <point x="393" y="617" type="line"/>
      <point x="393" y="332" type="line"/>
    </contour>
    <contour>
      <point x="1006" y="0" type="line"/>
      <point x="1006" y="280" type="line"/>
      <point x="100" y="280" type="line" name="dv02"/>
      <point x="100" y="0" type="line" name="dv01"/>
    </contour>
  </outline>
</glyph>
<glyph name="twosuperior" format="1">
  <advance width="705"/>
  <unicode hex="00B2"/>
  <outline>
    <contour>
      <point x="615" y="790" type="line"/>
      <point x="615" y="953" type="line"/>
      <point x="409" y="953" type="line"/>
      <point x="542" y="1058"/>
      <point x="614" y="1174"/>
      <point x="614" y="1287" type="curve" smooth="yes"/>
      <point x="614" y="1424"/>
      <point x="510" y="1520"/>
      <point x="365" y="1520" type="curve" smooth="yes"/>
      <point x="266" y="1520"/>
      <point x="163" y="1476"/>
      <point x="100" y="1407" type="curve"/>
      <point x="192" y="1287" type="line"/>
      <point x="224" y="1330"/>
      <point x="278" y="1359"/>
      <point x="327" y="1359" type="curve" smooth="yes"/>
      <point x="386" y="1359"/>
      <point x="423" y="1319"/>
      <point x="423" y="1258" type="curve" smooth="yes"/>
      <point x="423" y="1178"/>
      <point x="359" y="1092"/>
      <point x="148" y="897" type="curve"/>
      <point x="148" y="790" type="line"/>
    </contour>
  </outline>
</glyph>
<glyph name="threesuperior" format="2">
  <advance width="671"/>
  <unicode hex="00B3"/>
  <outline>
    <contour>
      <point x="90" y="862" type="line"/>
      <point x="152" y="816"/>
      <point x="231" y="790"/>
      <point x="313" y="790" type="curve" smooth="yes"/>
      <point x="467" y="790"/>
      <point x="581" y="879"/>
      <point x="581" y="997" type="curve" smooth="yes"/>
      <point x="581" y="1079"/>
      <point x="526" y="1142"/>
      <point x="436" y="1170" type="curve"/>
      <point x="505" y="1203"/>
      <point x="548" y="1263"/>
      <point x="548" y="1336" type="curve" smooth="yes"/>
      <point x="548" y="1444"/>
      <point x="450" y="1520"/>
      <point x="314" y="1520" type="curve" smooth="yes"/>
      <point x="233" y="1520"/>
      <point x="157" y="1493"/>
      <point x="100" y="1445" type="curve"/>
      <point x="179" y="1316" type="line"/>
      <point x="224" y="1344"/>
      <point x="262" y="1359"/>
      <point x="296" y="1359" type="curve" smooth="yes"/>
      <point x="341" y="1359"/>
      <point x="374" y="1335"/>
      <point x="374" y="1301" type="curve" smooth="yes"/>
      <point x="374" y="1261"/>
      <point x="323" y="1229"/>
      <point x="256" y="1229" type="curve" smooth="yes"/>
      <point x="221" y="1229" type="line"/>
      <point x="221" y="1102" type="line"/>
      <point x="256" y="1102" type="line" smooth="yes"/>
      <point x="339" y="1102"/>
      <point x="388" y="1074"/>
      <point x="388" y="1025" type="curve" smooth="yes"/>
      <point x="388" y="982"/>
      <point x="349" y="951"/>
      <point x="294" y="951" type="curve" smooth="yes"/>
      <point x="254" y="951"/>
      <point x="207" y="968"/>
      <point x="159" y="999" type="curve"/>
    </contour>
  </outline>
</glyph>
<glyph name="acute" format="1">
  <advance width="531"/>
  <unicode hex="00B4"/>
  <outline>
    <contour>
      <point x="301" y="1160" type="line" name="av01"/>
      <point x="501" y="1500" type="line" name="at01"/>
      <point x="172" y="1500" type="line"/>
      <point x="40" y="1160" type="line"/>
    </contour>
  </outline>
</glyph>
<glyph name="paragraph" format="2">
  <advance width="1339"/>
  <unicode hex="00B6"/>
  <outline>
    <contour>
      <point x="1239" y="-150" type="line" name="av01"/>
      <point x="1239" y="1500" type="line" name="at01"/>
      <point x="605" y="1500" type="line" smooth="yes" name="sh03"/>
      <point x="287" y="1500"/>
      <point x="80" y="1336"/>
      <point x="80" y="1084" type="curve" smooth="yes"/>
      <point x="80" y="824"/>
      <point x="299" y="640"/>
      <point x="609" y="640" type="curve"/>
      <point x="609" y="-150" type="line" name="sh02"/>
      <point x="859" y="-150" type="line" name="av02"/>
      <point x="859" y="1250" type="line"/>
      <point x="989" y="1250" type="line" name="sv01"/>
      <point x="989" y="-150" type="line" name="sh01"/>
    </contour>
  </outline>
</glyph>
<glyph name="periodcentered" format="1">
  <advance width="500"/>
  <unicode hex="00B7"/>
  <outline>
    <contour>
      <point x="250" y="370" type="curve" smooth="yes"/>
      <point x="346" y="370"/>
      <point x="410" y="434"/>
      <point x="410" y="530" type="curve" smooth="yes"/>
      <point x="410" y="626"/>
      <point x="346" y="690"/>
      <point x="250" y="690" type="curve" smooth="yes"/>
      <point x="154" y="690"/>
      <point x="90" y="626"/>
      <point x="90" y="530" type="curve" smooth="yes"/>
      <point x="90" y="434"/>
      <point x="154" y="370"/>
    </contour>
  </outline>
</glyph>
<glyph name="onesuperior" format="1">
  <advance width="491"/>
  <unicode hex="00B9"/>
  <outline>
    <contour>
      <point x="391" y="780" type="line" name="ab01"/>
      <point x="391" y="1500" type="line" name="dh02"/>
      <point x="231" y="1500" type="line"/>
      <point x="20" y="1423" type="line"/>
      <point x="79" y="1273" type="line"/>
      <point x="191" y="1314" type="line"/>
      <point x="191" y="780" type="line"/>
    </contour>
  </outline>
</glyph>
<glyph name="ordmasculine" format="2">
  <advance width="770"/>
  <unicode hex="00BA"/>
  <outline>
    <contour>
      <point x="386" y="800" type="curve" smooth="yes" name="av01"/>
      <point x="596" y="800"/>
      <point x="750" y="952"/>
      <point x="750" y="1160" type="curve" smooth="yes" name="sh03"/>
      <point x="750" y="1369"/>
      <point x="597" y="1520"/>
      <point x="386" y="1520" type="curve" smooth="yes" name="at01"/>
      <point x="175" y="1520"/>
      <point x="20" y="1368"/>
      <point x="20" y="1160" type="curve" smooth="yes" name="sh01"/>
      <point x="20" y="953"/>
      <point x="175" y="800"/>
    </contour>
    <contour>
      <point x="386" y="985" type="curve" smooth="yes"/>
      <point x="294" y="985"/>
      <point x="225" y="1059"/>
      <point x="225" y="1160" type="curve" smooth="yes" name="sh02"/>
      <point x="225" y="1261"/>
      <point x="294" y="1335"/>
      <point x="386" y="1335" type="curve" smooth="yes"/>
      <point x="478" y="1335"/>
      <point x="545" y="1261"/>
      <point x="545" y="1160" type="curve" smooth="yes" name="ah01"/>
      <point x="545" y="1059"/>
      <point x="478" y="985"/>
    </contour>
  </outline>
</glyph>
<glyph name="guillemotright" format="2">
  <advance width="1246"/>
  <unicode hex="00BB"/>
  <outline>
    <contour>
      <point x="439" y="111" type="line"/>
      <point x="762" y="497" type="line"/>
      <point x="439" y="882" type="line"/>
      <point x="100" y="882" type="line"/>
      <point x="442" y="496" type="line"/>
      <point x="100" y="111" type="line"/>
    </contour>
    <contour>
      <point x="903" y="111" type="line"/>
      <point x="1226" y="497" type="line"/>
      <point x="903" y="882" type="line"/>
      <point x="564" y="882" type="line"/>
      <point x="907" y="496" type="line"/>
      <point x="564" y="111" type="line"/>
    </contour>
  </outline>
</glyph>
<glyph name="onequarter" format="2">
  <advance width="1656"/>
  <unicode hex="00BC"/>
  <outline>
    <contour>
      <point x="435" y="0" type="line" name="av01.1"/>
      <point x="1453" y="1540" type="line" name="at01.1"/>
      <point x="1236" y="1540" type="line"/>
      <point x="211" y="0" type="line"/>
    </contour>
    <contour>
      <point x="441" y="780" type="line" name="ab01.1"/>
      <point x="441" y="1500" type="line" name="dh02.1"/>
      <point x="281" y="1500" type="line"/>
      <point x="70" y="1423" type="line"/>
      <point x="129" y="1273" type="line"/>
      <point x="241" y="1314" type="line"/>
      <point x="241" y="780" type="line"/>
    </contour>
    <contour>
      <point x="1498" y="0" type="line"/>
      <point x="1498" y="130" type="line"/>
      <point x="1586" y="130" type="line"/>
      <point x="1586" y="295" type="line"/>
      <point x="1498" y="295" type="line"/>
      <point x="1498" y="720" type="line"/>
      <point x="1308" y="720" type="line"/>
      <point x="972" y="274" type="line"/>
      <point x="972" y="130" type="line"/>
      <point x="1308" y="130" type="line"/>
      <point x="1308" y="0" type="line"/>
    </contour>
    <contour>
      <point x="1135" y="295" type="line"/>
      <point x="1308" y="525" type="line"/>
      <point x="1308" y="295" type="line"/>
    </contour>
  </outline>
</glyph>
<glyph name="onehalf" format="2">
  <advance width="1698"/>
  <unicode hex="00BD"/>
  <outline>
    <contour>
      <point x="435" y="0" type="line" name="av01"/>
      <point x="1453" y="1540" type="line" name="at01"/>
      <point x="1236" y="1540" type="line"/>
      <point x="211" y="0" type="line"/>
    </contour>
    <contour>
      <point x="441" y="780" type="line" name="ab01.1"/>
      <point x="441" y="1500" type="line" name="dh02.1"/>
      <point x="281" y="1500" type="line"/>
      <point x="70" y="1423" type="line"/>
      <point x="129" y="1273" type="line"/>
      <point x="241" y="1314" type="line"/>
      <point x="241" y="780" type="line"/>
    </contour>
    <contour>
      <point x="1628" y="0" type="line"/>
      <point x="1628" y="167" type="line"/>
      <point x="1416" y="167" type="line"/>
      <point x="1545" y="268"/>
      <point x="1627" y="384"/>
      <point x="1627" y="508" type="curve" smooth="yes"/>
      <point x="1627" y="654"/>
      <point x="1513" y="740"/>
      <point x="1380" y="740" type="curve" smooth="yes"/>
      <point x="1289" y="740"/>
      <point x="1195" y="701"/>
      <point x="1134" y="631" type="curve"/>
      <point x="1228" y="507" type="line"/>
      <point x="1258" y="549"/>
      <point x="1300" y="574"/>
      <point x="1342" y="574" type="curve" smooth="yes"/>
      <point x="1395" y="574"/>
      <point x="1431" y="536"/>
      <point x="1431" y="473" type="curve" smooth="yes"/>
      <point x="1431" y="391"/>
      <point x="1370" y="315"/>
      <point x="1148" y="110" type="curve"/>
      <point x="1148" y="0" type="line"/>
    </contour>
  </outline>
</glyph>
<glyph name="threequarters" format="2">
  <advance width="1648"/>
  <unicode hex="00BE"/>
  <outline>
    <contour>
      <point x="427" y="0" type="line" name="av01.1"/>
      <point x="1445" y="1540" type="line" name="at01.1"/>
      <point x="1228" y="1540" type="line"/>
      <point x="203" y="0" type="line"/>
    </contour>
    <contour>
      <point x="70" y="853" type="line"/>
      <point x="133" y="806"/>
      <point x="211" y="780"/>
      <point x="293" y="780" type="curve" smooth="yes"/>
      <point x="444" y="780"/>
      <point x="558" y="868"/>
      <point x="558" y="987" type="curve" smooth="yes"/>
      <point x="558" y="1071"/>
      <point x="502" y="1135"/>
      <point x="410" y="1164" type="curve"/>
      <point x="480" y="1197"/>
      <point x="525" y="1261"/>
      <point x="525" y="1335" type="curve" smooth="yes"/>
      <point x="525" y="1443"/>
      <point x="428" y="1520"/>
      <point x="293" y="1520" type="curve" smooth="yes"/>
      <point x="213" y="1520"/>
      <point x="138" y="1492"/>
      <point x="80" y="1444" type="curve"/>
      <point x="160" y="1313" type="line"/>
      <point x="206" y="1342"/>
      <point x="243" y="1356"/>
      <point x="274" y="1356" type="curve" smooth="yes"/>
      <point x="317" y="1356"/>
      <point x="348" y="1331"/>
      <point x="348" y="1297" type="curve" smooth="yes"/>
      <point x="348" y="1255"/>
      <point x="301" y="1225"/>
      <point x="236" y="1225" type="curve" smooth="yes"/>
      <point x="203" y="1225" type="line"/>
      <point x="203" y="1096" type="line"/>
      <point x="236" y="1096" type="line" smooth="yes"/>
      <point x="315" y="1096"/>
      <point x="362" y="1067"/>
      <point x="362" y="1018" type="curve" smooth="yes"/>
      <point x="362" y="974"/>
      <point x="325" y="943"/>
      <point x="272" y="943" type="curve" smooth="yes"/>
      <point x="235" y="943"/>
      <point x="189" y="959"/>
      <point x="140" y="991" type="curve"/>
    </contour>
    <contour>
      <point x="1490" y="0" type="line"/>
      <point x="1490" y="130" type="line"/>
      <point x="1578" y="130" type="line"/>
      <point x="1578" y="295" type="line"/>
      <point x="1490" y="295" type="line"/>
      <point x="1490" y="720" type="line"/>
      <point x="1300" y="720" type="line"/>
      <point x="964" y="274" type="line"/>
      <point x="964" y="130" type="line"/>
      <point x="1300" y="130" type="line"/>
      <point x="1300" y="0" type="line"/>
    </contour>
    <contour>
      <point x="1127" y="295" type="line"/>
      <point x="1300" y="525" type="line"/>
      <point x="1300" y="295" type="line"/>
    </contour>
  </outline>
</glyph>
<glyph name="questiondown" format="1">
  <advance width="943"/>
  <unicode hex="00BF"/>
  <outline>
    <contour>
      <point x="581" y="1030" type="curve" smooth="yes"/>
      <point x="485" y="1030"/>
      <point x="421" y="966"/>
      <point x="421" y="870" type="curve" smooth="yes"/>
      <point x="421" y="774"/>
      <point x="485" y="710"/>
      <point x="581" y="710" type="curve" smooth="yes"/>
      <point x="677" y="710"/>
      <point x="741" y="774"/>
      <point x="741" y="870" type="curve" smooth="yes"/>
      <point x="741" y="966"/>
      <point x="677" y="1030"/>
    </contour>
    <contour>
      <point x="790" y="-81" type="line"/>
      <point x="749" y="-152"/>
      <point x="675" y="-197"/>
      <point x="598" y="-197" type="curve" smooth="yes"/>
      <point x="513" y="-197"/>
      <point x="456" y="-144"/>
      <point x="456" y="-65" type="curve" smooth="yes"/>
      <point x="456" y="2"/>
      <point x="498" y="48"/>
      <point x="549" y="104" type="curve" smooth="yes"/>
      <point x="631" y="194"/>
      <point x="738" y="312"/>
      <point x="738" y="590" type="curve"/>
      <point x="425" y="590" type="line"/>
      <point x="425" y="378"/>
      <point x="323" y="281"/>
      <point x="226" y="187" type="curve" smooth="yes"/>
      <point x="136" y="101"/>
      <point x="50" y="18"/>
      <point x="50" y="-147" type="curve" smooth="yes"/>
      <point x="50" y="-379"/>
      <point x="221" y="-520"/>
      <point x="493" y="-520" type="curve" smooth="yes"/>
      <point x="650" y="-520"/>
      <point x="794" y="-473"/>
      <point x="923" y="-380" type="curve"/>
    </contour>
  </outline>
</glyph>
<glyph name="Aring" format="1">
  <advance width="1606"/>
  <unicode hex="00C5"/>
  <outline>
    <contour>
      <point x="803" y="1570" type="curve" smooth="yes"/>
      <point x="941" y="1570"/>
      <point x="1033" y="1658"/>
      <point x="1033" y="1790" type="curve" smooth="yes"/>
      <point x="1033" y="1922"/>
      <point x="941" y="2010"/>
      <point x="803" y="2010" type="curve" smooth="yes"/>
      <point x="665" y="2010"/>
      <point x="573" y="1922"/>
      <point x="573" y="1790" type="curve" smooth="yes"/>
      <point x="573" y="1658"/>
      <point x="665" y="1570"/>
    </contour>
    <contour>
      <point x="803" y="1709" type="curve" smooth="yes"/>
      <point x="755" y="1709"/>
      <point x="723" y="1742"/>
      <point x="723" y="1790" type="curve" smooth="yes"/>
      <point x="723" y="1838"/>
      <point x="755" y="1870"/>
      <point x="803" y="1870" type="curve" smooth="yes"/>
      <point x="851" y="1870"/>
      <point x="883" y="1838"/>
      <point x="883" y="1790" type="curve" smooth="yes"/>
      <point x="883" y="1742"/>
      <point x="851" y="1709"/>
    </contour>
    <contour>
      <point x="425" y="0" type="line" name="ab02"/>
      <point x="522" y="267" type="line"/>
      <point x="1084" y="267" type="line"/>
      <point x="1181" y="0" type="line"/>
      <point x="1596" y="0" type="line" name="n7"/>
      <point x="1011" y="1500" type="line"/>
      <point x="596" y="1500" type="line" name="at02"/>
      <point x="10" y="0" type="line"/>
    </contour>
    <contour>
      <point x="648" y="612" type="line"/>
      <point x="803" y="1040" type="line"/>
      <point x="959" y="612" type="line"/>
    </contour>
  </outline>
</glyph>
<glyph name="AE" format="2">
  <advance width="2276"/>
  <unicode hex="00C6"/>
  <outline>
    <contour>
      <point x="2226" y="0" type="line"/>
      <point x="2179" y="345" type="line"/>
      <point x="1570" y="345" type="line"/>
      <point x="1538" y="577" type="line"/>
      <point x="2118" y="577" type="line"/>
      <point x="2071" y="922" type="line"/>
      <point x="1492" y="922" type="line"/>
      <point x="1460" y="1155" type="line"/>
      <point x="2069" y="1155" type="line"/>
      <point x="2022" y="1500" type="line"/>
      <point x="812" y="1500" type="line"/>
      <point x="10" y="0" type="line"/>
      <point x="459" y="0" type="line"/>
      <point x="596" y="267" type="line"/>
      <point x="1183" y="267" type="line"/>
      <point x="1219" y="0" type="line"/>
    </contour>
    <contour>
      <point x="774" y="612" type="line"/>
      <point x="1055" y="1168" type="line"/>
      <point x="1060" y="1168" type="line"/>
      <point x="1136" y="612" type="line"/>
    </contour>
  </outline>
</glyph>
<glyph name="Eacute" format="1">
  <advance width="1200"/>
  <unicode hex="00C9"/>
  <outline>
    <contour>
      <point x="706" y="1660" type="line" name="av01"/>
      <point x="907" y="2000" type="line" name="at01.1"/>
      <point x="577" y="2000" type="line"/>
      <point x="446" y="1660" type="line"/>
    </contour>
    <contour>
      <point x="100" y="0" type="line" name="ab01"/>
      <point x="1110" y="0" type="line"/>
      <point x="1110" y="345" type="line" name="sv01"/>
      <point x="496" y="345" type="line" name="dh01"/>
      <point x="496" y="578" type="line" name="dv01"/>
      <point x="1060" y="578" type="line"/>
      <point x="1060" y="923" type="line"/>
      <point x="496" y="923" type="line" name="dv02"/>
      <point x="496" y="1155" type="line" name="sv02"/>
      <point x="1100" y="1155" type="line"/>
      <point x="1100" y="1500" type="line" name="at01"/>
      <point x="100" y="1500" type="line"/>
    </contour>
  </outline>
</glyph>
<glyph name="Ecircumflex" format="1">
  <advance width="1200"/>
  <unicode hex="00CA"/>
  <outline>
    <contour>
      <point x="977" y="1660" type="line"/>
      <point x="752" y="2000" type="line" name="at01.1"/>
      <point x="459" y="2000" type="line" name="at01.1.1"/>
      <point x="234" y="1660" type="line"/>
      <point x="504" y="1660" type="line" name="av01"/>
      <point x="605" y="1852" type="line"/>
      <point x="707" y="1660" type="line" name="av01.1"/>
    </contour>
    <contour>
      <point x="100" y="0" type="line" name="ab01"/>
      <point x="1110" y="0" type="line"/>
      <point x="1110" y="345" type="line" name="sv01"/>
      <point x="496" y="345" type="line" name="dh01"/>
      <point x="496" y="578" type="line" name="dv01"/>
      <point x="1060" y="578" type="line"/>
      <point x="1060" y="923" type="line"/>
      <point x="496" y="923" type="line" name="dv02"/>
      <point x="496" y="1155" type="line" name="sv02"/>
      <point x="1100" y="1155" type="line"/>
      <point x="1100" y="1500" type="line" name="at01"/>
      <point x="100" y="1500" type="line"/>
    </contour>
  </outline>
</glyph>
<glyph name="Igrave" format="1">
  <advance width="596"/>
  <unicode hex="00CC"/>
  <outline>
    <contour>
      <point x="447" y="1660" type="line"/>
      <point x="187" y="1660" type="line" name="av01"/>
      <point x="-14" y="2000" type="line" name="at01.1"/>
      <point x="316" y="2000" type="line"/>
    </contour>
    <contour>
      <point x="496" y="1500" type="line" name="at01"/>
      <point x="496" y="0" type="line" name="ab01"/>
      <point x="100" y="0" type="line" name="dh01"/>
      <point x="100" y="1500" type="line"/>
    </contour>
  </outline>
</glyph>
<glyph name="Icircumflex" format="1">
  <advance width="597"/>
  <unicode hex="00CE"/>
  <outline>
    <contour>
      <point x="670" y="1660" type="line"/>
      <point x="400" y="1660" type="line" name="av01.1"/>
      <point x="298" y="1852" type="line"/>
      <point x="196" y="1660" type="line" name="av01"/>
      <point x="-73" y="1660" type="line"/>
      <point x="152" y="2000" type="line" name="at01.1"/>
      <point x="445" y="2000" type="line" name="at01.2"/>
    </contour>
    <contour>
      <point x="497" y="1500" type="line" name="at01"/>
      <point x="497" y="0" type="line" name="ab01"/>
      <point x="101" y="0" type="line" name="dh01"/>
      <point x="101" y="1500" type="line"/>
    </contour>
  </outline>
</glyph>
<glyph name="Eth" format="1">
  <advance width="1634"/>
  <unicode hex="00D0"/>
  <outline>
    <contour>
      <point x="194" y="0" type="line"/>
      <point x="725" y="0" type="line" smooth="yes"/>
      <point x="1262" y="0"/>
      <point x="1614" y="297"/>
      <point x="1614" y="750" type="curve" smooth="yes"/>
      <point x="1614" y="1203"/>
      <point x="1262" y="1500"/>
      <point x="725" y="1500" type="curve" smooth="yes"/>
      <point x="194" y="1500" type="line"/>
      <point x="194" y="883" type="line"/>
      <point x="10" y="883" type="line" name="dv02"/>
      <point x="10" y="603" type="line" name="dv01"/>
      <point x="194" y="603" type="line"/>
    </contour>
    <contour>
      <point x="810" y="603" type="line"/>
      <point x="810" y="883" type="line"/>
      <point x="590" y="883" type="line"/>
      <point x="590" y="1155" type="line"/>
      <point x="738" y="1155" type="line" smooth="yes"/>
      <point x="1041" y="1155"/>
      <point x="1209" y="1011"/>
      <point x="1209" y="750" type="curve" smooth="yes"/>
      <point x="1209" y="490"/>
      <point x="1041" y="345"/>
      <point x="738" y="345" type="curve" smooth="yes"/>
      <point x="590" y="345" type="line"/>
      <point x="590" y="603" type="line"/>
    </contour>
  </outline>
</glyph>
<glyph name="Ntilde" format="1">
  <advance width="1602"/>
  <unicode hex="00D1"/>
  <outline>
    <contour>
      <point x="1217" y="1981" type="curve"/>
      <point x="1089" y="1981" type="line"/>
      <point x="1085" y="1905"/>
      <point x="1049" y="1865"/>
      <point x="987" y="1865" type="curve" smooth="yes"/>
      <point x="938" y="1865"/>
      <point x="901" y="1890"/>
      <point x="859" y="1917" type="curve" smooth="yes"/>
      <point x="806" y="1951"/>
      <point x="748" y="1990"/>
      <point x="650" y="1990" type="curve" smooth="yes" name="av01"/>
      <point x="493" y="1990"/>
      <point x="412" y="1889"/>
      <point x="412" y="1696" type="curve"/>
      <point x="540" y="1696" type="line"/>
      <point x="544" y="1771"/>
      <point x="586" y="1813"/>
      <point x="655" y="1813" type="curve" smooth="yes"/>
      <point x="709" y="1813"/>
      <point x="747" y="1787"/>
      <point x="788" y="1759" type="curve" smooth="yes"/>
      <point x="837" y="1725"/>
      <point x="891" y="1688"/>
      <point x="985" y="1688" type="curve" smooth="yes" name="av02"/>
      <point x="1139" y="1688"/>
      <point x="1217" y="1787"/>
    </contour>
    <contour>
      <point x="1502" y="0" type="line"/>
      <point x="1502" y="1500" type="line"/>
      <point x="1106" y="1500" type="line"/>
      <point x="1106" y="607" type="line"/>
      <point x="566" y="1500" type="line"/>
      <point x="100" y="1500" type="line"/>
      <point x="100" y="0" type="line"/>
      <point x="496" y="0" type="line"/>
      <point x="496" y="890" type="line"/>
      <point x="1036" y="0" type="line"/>
    </contour>
  </outline>
</glyph>
<glyph name="multiply" format="1">
  <advance width="1126"/>
  <unicode hex="00D7"/>
  <outline>
    <contour>
      <point x="821" y="22" type="line"/>
      <point x="1026" y="227" type="line"/>
      <point x="768" y="485" type="line"/>
      <point x="1026" y="743" type="line"/>
      <point x="821" y="948" type="line"/>
      <point x="562" y="690" type="line"/>
      <point x="305" y="948" type="line"/>
      <point x="100" y="743" type="line"/>
      <point x="358" y="485" type="line"/>
      <point x="100" y="227" type="line"/>
      <point x="305" y="22" type="line"/>
      <point x="563" y="280" type="line"/>
    </contour>
  </outline>
</glyph>
<glyph name="Oslash" format="2">
  <advance width="1710"/>
  <unicode hex="00D8"/>
  <outline>
    <contour>
      <point x="600" y="-105" type="line" name="av01"/>
      <point x="641" y="-4" type="line"/>
      <point x="709" y="-21"/>
      <point x="781" y="-30"/>
      <point x="856" y="-30" type="curve" smooth="yes" name="dv01"/>
      <point x="1316" y="-30"/>
      <point x="1650" y="303"/>
      <point x="1650" y="750" type="curve" smooth="yes" name="sh03"/>
      <point x="1650" y="1059"/>
      <point x="1490" y="1314"/>
      <point x="1239" y="1442" type="curve"/>
      <point x="1278" y="1535" type="line" name="at01"/>
      <point x="1122" y="1597" type="line"/>
      <point x="1082" y="1501" type="line"/>
      <point x="1011" y="1520"/>
      <point x="935" y="1530"/>
      <point x="856" y="1530" type="curve" smooth="yes" name="at01.1"/>
      <point x="396" y="1530"/>
      <point x="60" y="1197"/>
      <point x="60" y="750" type="curve" smooth="yes" name="sh01"/>
      <point x="60" y="437"/>
      <point x="225" y="180"/>
      <point x="481" y="54" type="curve"/>
      <point x="444" y="-35" type="line"/>
    </contour>
    <contour>
      <point x="623" y="397" type="line"/>
      <point x="526" y="475"/>
      <point x="465" y="603"/>
      <point x="465" y="750" type="curve" smooth="yes" name="sh02"/>
      <point x="465" y="995"/>
      <point x="634" y="1185"/>
      <point x="856" y="1185" type="curve" smooth="yes" name="sv01"/>
      <point x="887" y="1185"/>
      <point x="917" y="1181"/>
      <point x="946" y="1174" type="curve"/>
    </contour>
    <contour>
      <point x="856" y="315" type="curve" smooth="yes" name="dv02"/>
      <point x="829" y="315"/>
      <point x="803" y="318"/>
      <point x="777" y="323" type="curve"/>
      <point x="1096" y="1096" type="line"/>
      <point x="1188" y="1017"/>
      <point x="1245" y="893"/>
      <point x="1245" y="750" type="curve" smooth="yes" name="ah01"/>
      <point x="1245" y="505"/>
      <point x="1078" y="315"/>
    </contour>
  </outline>
</glyph>
<glyph name="Uacute" format="1">
  <advance width="1544"/>
  <unicode hex="00DA"/>
  <outline>
    <contour>
      <point x="883" y="1660" type="line" name="av01"/>
      <point x="1084" y="2000" type="line" name="at01"/>
      <point x="754" y="2000" type="line"/>
      <point x="623" y="1660" type="line"/>
    </contour>
    <contour>
      <point x="1444" y="1500" type="line"/>
      <point x="1048" y="1500" type="line"/>
      <point x="1048" y="731" type="line" smooth="yes"/>
      <point x="1048" y="445"/>
      <point x="962" y="315"/>
      <point x="772" y="315" type="curve" smooth="yes"/>
      <point x="582" y="315"/>
      <point x="496" y="445"/>
      <point x="496" y="731" type="curve" smooth="yes"/>
      <point x="496" y="1500" type="line"/>
      <point x="100" y="1500" type="line"/>
      <point x="100" y="677" type="line" smooth="yes"/>
      <point x="100" y="236"/>
      <point x="353" y="-30"/>
      <point x="772" y="-30" type="curve" smooth="yes"/>
      <point x="1191" y="-30"/>
      <point x="1444" y="236"/>
      <point x="1444" y="677" type="curve" smooth="yes"/>
    </contour>
  </outline>
</glyph>
<glyph name="Thorn" format="2">
  <advance width="1242"/>
  <unicode hex="00DE"/>
  <outline>
    <contour>
      <point x="470" y="0" type="line" name="ab01.1"/>
      <point x="470" y="290" type="line"/>
      <point x="645" y="290" type="line" smooth="yes" name="dv01"/>
      <point x="956" y="290"/>
      <point x="1162" y="475"/>
      <point x="1162" y="754" type="curve" smooth="yes" name="dh03"/>
      <point x="1162" y="1031"/>
      <point x="959" y="1210"/>
      <point x="645" y="1210" type="curve" smooth="yes" name="sv02"/>
      <point x="470" y="1210" type="line"/>
      <point x="470" y="1500" type="line" name="dh01.1"/>
      <point x="100" y="1500" type="line" name="at01.1"/>
      <point x="100" y="0" type="line"/>
    </contour>
    <contour>
      <point x="470" y="620" type="line"/>
      <point x="470" y="880" type="line"/>
      <point x="563" y="880" type="line" smooth="yes" name="sv01"/>
      <point x="714" y="880"/>
      <point x="784" y="839"/>
      <point x="784" y="750" type="curve" smooth="yes" name="dh02"/>
      <point x="784" y="661"/>
      <point x="714" y="620"/>
      <point x="564" y="620" type="curve" smooth="yes" name="dv02"/>
    </contour>
  </outline>
</glyph>
<glyph name="germandbls" format="2">
  <advance width="1294"/>
  <unicode hex="00DF"/>
  <outline>
    <contour>
      <point x="496" y="0" type="line"/>
      <point x="496" y="988" type="line" smooth="yes"/>
      <point x="496" y="1114"/>
      <point x="549" y="1185"/>
      <point x="643" y="1185" type="curve" smooth="yes"/>
      <point x="731" y="1185"/>
      <point x="787" y="1125"/>
      <point x="787" y="1031" type="curve" smooth="yes"/>
      <point x="787" y="947"/>
      <point x="741" y="913"/>
      <point x="699" y="881" type="curve" smooth="yes"/>
      <point x="661" y="852"/>
      <point x="630" y="826"/>
      <point x="630" y="774" type="curve" smooth="yes"/>
      <point x="630" y="706"/>
      <point x="684" y="676"/>
      <point x="741" y="645" type="curve" smooth="yes"/>
      <point x="802" y="612"/>
      <point x="865" y="577"/>
      <point x="865" y="491" type="curve" smooth="yes"/>
      <point x="865" y="380"/>
      <point x="759" y="315"/>
      <point x="572" y="315" type="curve"/>
      <point x="639" y="-20" type="line"/>
      <point x="1009" y="-20"/>
      <point x="1244" y="142"/>
      <point x="1244" y="398" type="curve" smooth="yes"/>
      <point x="1244" y="580"/>
      <point x="1126" y="643"/>
      <point x="1041" y="688" type="curve" smooth="yes"/>
      <point x="981" y="720"/>
      <point x="935" y="743"/>
      <point x="935" y="786" type="curve" smooth="yes"/>
      <point x="935" y="824"/>
      <point x="970" y="848"/>
      <point x="1013" y="877" type="curve" smooth="yes"/>
      <point x="1080" y="923"/>
      <point x="1166" y="984"/>
      <point x="1166" y="1132" type="curve" smooth="yes"/>
      <point x="1166" y="1367"/>
      <point x="947" y="1530"/>
      <point x="631" y="1530" type="curve" smooth="yes"/>
      <point x="315" y="1530"/>
      <point x="100" y="1344"/>
      <point x="100" y="1069" type="curve" smooth="yes"/>
      <point x="100" y="0" type="line"/>
    </contour>
  </outline>
</glyph>
<glyph name="ae" format="2">
  <advance width="1776"/>
  <unicode hex="00E6"/>
  <outline>
    <contour>
      <point x="1662" y="105" type="curve"/>
      <point x="1565" y="369" type="line"/>
      <point x="1484" y="310"/>
      <point x="1390" y="278"/>
      <point x="1299" y="278" type="curve" smooth="yes"/>
      <point x="1187" y="278"/>
      <point x="1098" y="327"/>
      <point x="1059" y="410" type="curve"/>
      <point x="1726" y="410" type="line"/>
      <point x="1726" y="442" type="line" smooth="yes"/>
      <point x="1726" y="786"/>
      <point x="1528" y="1020"/>
      <point x="1236" y="1020" type="curve" smooth="yes"/>
      <point x="1083" y="1020"/>
      <point x="943" y="955"/>
      <point x="850" y="841" type="curve"/>
      <point x="766" y="957"/>
      <point x="631" y="1020"/>
      <point x="468" y="1020" type="curve" smooth="yes"/>
      <point x="350" y="1020"/>
      <point x="221" y="986"/>
      <point x="90" y="921" type="curve" name="n7.1"/>
      <point x="177" y="632" type="line" name="n8.1"/>
      <point x="261" y="683"/>
      <point x="356" y="710"/>
      <point x="450" y="710" type="curve" smooth="yes"/>
      <point x="577" y="710"/>
      <point x="676" y="660"/>
      <point x="708" y="580" type="curve" smooth="yes"/>
      <point x="712" y="572" type="line"/>
      <point x="636" y="606"/>
      <point x="553" y="624"/>
      <point x="467" y="624" type="curve" smooth="yes"/>
      <point x="227" y="624"/>
      <point x="50" y="484"/>
      <point x="50" y="294" type="curve" smooth="yes" name="n20"/>
      <point x="50" y="109" name="n21"/>
      <point x="218" y="-20" name="n22"/>
      <point x="460" y="-20" type="curve" smooth="yes" name="n23"/>
      <point x="636" y="-20"/>
      <point x="784" y="48"/>
      <point x="868" y="168" type="curve"/>
      <point x="971" y="48"/>
      <point x="1123" y="-20"/>
      <point x="1289" y="-20" type="curve" smooth="yes"/>
      <point x="1422" y="-20"/>
      <point x="1551" y="23"/>
    </contour>
    <contour>
      <point x="1042" y="545" type="line"/>
      <point x="1058" y="632"/>
      <point x="1124" y="689"/>
      <point x="1212" y="689" type="curve" smooth="yes"/>
      <point x="1301" y="689"/>
      <point x="1370" y="631"/>
      <point x="1386" y="545" type="curve"/>
    </contour>
    <contour>
      <point x="723" y="394" type="curve" name="n1"/>
      <point x="717" y="373" type="line" smooth="yes"/>
      <point x="693" y="298"/>
      <point x="614" y="248"/>
      <point x="519" y="248" type="curve" smooth="yes"/>
      <point x="432" y="248"/>
      <point x="374" y="289"/>
      <point x="374" y="348" type="curve" smooth="yes" name="n7"/>
      <point x="374" y="410"/>
      <point x="438" y="448"/>
      <point x="540" y="448" type="curve" smooth="yes"/>
      <point x="616" y="448"/>
      <point x="691" y="426"/>
    </contour>
  </outline>
</glyph>
<glyph name="ccedilla" format="1">
  <advance width="1063"/>
  <unicode hex="00E7"/>
  <outline>
    <contour>
      <point x="1023" y="169" type="curve"/>
      <point x="806" y="393" type="line"/>
      <point x="766" y="342"/>
      <point x="694" y="310"/>
      <point x="622" y="310" type="curve" smooth="yes" name="dv02"/>
      <point x="509" y="310"/>
      <point x="428" y="390"/>
      <point x="428" y="502" type="curve" smooth="yes" name="sh02"/>
      <point x="428" y="612"/>
      <point x="509" y="690"/>
      <point x="622" y="690" type="curve" smooth="yes" name="sv01"/>
      <point x="694" y="690"/>
      <point x="764" y="658"/>
      <point x="806" y="607" type="curve"/>
      <point x="1021" y="834" type="line"/>
      <point x="924" y="949"/>
      <point x="773" y="1020"/>
      <point x="595" y="1020" type="curve" smooth="yes" name="at01"/>
      <point x="280" y="1020"/>
      <point x="50" y="800"/>
      <point x="50" y="500" type="curve" smooth="yes" name="sh01"/>
      <point x="50" y="220"/>
      <point x="250" y="10"/>
      <point x="533" y="-17" type="curve"/>
      <point x="487" y="-135" type="line"/>
      <point x="495" y="-134"/>
      <point x="504" y="-134"/>
      <point x="511" y="-134" type="curve" smooth="yes"/>
      <point x="580" y="-134"/>
      <point x="609" y="-163"/>
      <point x="609" y="-206" type="curve" smooth="yes"/>
      <point x="609" y="-251"/>
      <point x="574" y="-282"/>
      <point x="524" y="-282" type="curve" smooth="yes"/>
      <point x="500" y="-282"/>
      <point x="475" y="-276"/>
      <point x="451" y="-263" type="curve"/>
      <point x="403" y="-395" type="line"/>
      <point x="454" y="-419"/>
      <point x="508" y="-432"/>
      <point x="559" y="-432" type="curve" smooth="yes"/>
      <point x="684" y="-432"/>
      <point x="776" y="-357"/>
      <point x="776" y="-255" type="curve" smooth="yes"/>
      <point x="776" y="-170"/>
      <point x="713" y="-113"/>
      <point x="613" y="-102" type="curve"/>
      <point x="653" y="-17" type="line" name="ih01"/>
      <point x="807" y="-3"/>
      <point x="937" y="64"/>
    </contour>
  </outline>
</glyph>
<glyph name="iacute" format="1">
  <advance width="569"/>
  <unicode hex="00ED"/>
  <outline>
    <contour>
      <point x="402" y="1160" type="line" name="av01"/>
      <point x="602" y="1500" type="line" name="at01"/>
      <point x="273" y="1500" type="line"/>
      <point x="141" y="1160" type="line"/>
    </contour>
    <contour>
      <point x="469" y="0" type="line" name="sh01"/>
      <point x="469" y="1000" type="line"/>
      <point x="100" y="1000" type="line"/>
      <point x="100" y="0" type="line" name="ab01"/>
    </contour>
  </outline>
</glyph>
<glyph name="eth" format="2">
  <advance width="1181"/>
  <unicode hex="00F0"/>
  <outline>
    <contour>
      <point x="1079" y="1249" type="line"/>
      <point x="1024" y="1389" type="line"/>
      <point x="791.745" y="1304" type="line"/>
      <point x="696.015" y="1376.94"/>
      <point x="582" y="1442"/>
      <point x="462" y="1500" type="curve"/>
      <point x="313" y="1256" type="line"/>
      <point x="386.321" y="1236.39"/>
      <point x="423.773" y="1221.43"/>
      <point x="483.235" y="1188" type="curve"/>
      <point x="289" y="1113" type="line" name="dv04"/>
      <point x="345" y="973" type="line" name="dv03"/>
      <point x="605.009" y="1076.19" type="line"/>
      <point x="690.009" y="1002.19"/>
      <point x="745.693" y="914.675"/>
      <point x="785" y="825" type="curve"/>
      <point x="714" y="893"/>
      <point x="617" y="930"/>
      <point x="498" y="930" type="curve" smooth="yes"/>
      <point x="234" y="930"/>
      <point x="50" y="745"/>
      <point x="50" y="481" type="curve" smooth="yes"/>
      <point x="50" y="183"/>
      <point x="284" y="-30"/>
      <point x="605" y="-30" type="curve" smooth="yes"/>
      <point x="945" y="-30"/>
      <point x="1161" y="209"/>
      <point x="1161" y="577" type="curve" smooth="yes"/>
      <point x="1161" y="806"/>
      <point x="1077" y="1013"/>
      <point x="918" y="1188" type="curve"/>
    </contour>
    <contour>
      <point x="608" y="315" type="curve" smooth="yes"/>
      <point x="523" y="315"/>
      <point x="456" y="401"/>
      <point x="456" y="508" type="curve" smooth="yes"/>
      <point x="456" y="613"/>
      <point x="519" y="691"/>
      <point x="604" y="691" type="curve" smooth="yes"/>
      <point x="691" y="691"/>
      <point x="756" y="610"/>
      <point x="756" y="503" type="curve" smooth="yes"/>
      <point x="756" y="397"/>
      <point x="691" y="315"/>
    </contour>
  </outline>
</glyph>
<glyph name="divide" format="2">
  <advance width="1000"/>
  <unicode hex="00F7"/>
  <outline>
    <contour>
      <point x="500" y="658" type="curve" smooth="yes"/>
      <point x="590" y="658"/>
      <point x="661" y="729"/>
      <point x="661" y="819" type="curve" smooth="yes"/>
      <point x="661" y="908"/>
      <point x="590" y="980"/>
      <point x="500" y="980" type="curve" smooth="yes"/>
      <point x="410" y="980"/>
      <point x="341" y="908"/>
      <point x="341" y="819" type="curve" smooth="yes"/>
      <point x="341" y="729"/>
      <point x="410" y="658"/>
    </contour>
    <contour>
      <point x="900" y="390" type="line"/>
      <point x="900" y="570" type="line"/>
      <point x="100" y="570" type="line" name="dv02"/>
      <point x="100" y="390" type="line" name="dv01"/>
    </contour>
    <contour>
      <point x="500" y="-20" type="curve" smooth="yes"/>
      <point x="590" y="-20"/>
      <point x="661" y="51"/>
      <point x="661" y="141" type="curve" smooth="yes"/>
      <point x="661" y="230"/>
      <point x="590" y="302"/>
      <point x="500" y="302" type="curve" smooth="yes"/>
      <point x="410" y="302"/>
      <point x="341" y="230"/>
      <point x="341" y="141" type="curve" smooth="yes"/>
      <point x="341" y="51"/>
      <point x="410" y="-20"/>
    </contour>
  </outline>
</glyph>
<glyph name="oslash" format="2">
  <advance width="1188"/>
  <unicode hex="00F8"/>
  <outline>
    <contour>
      <point x="414" y="-72" type="line" name="av01"/>
      <point x="443" y="-2" type="line"/>
      <point x="491" y="-14"/>
      <point x="542" y="-20"/>
      <point x="595" y="-20" type="curve" smooth="yes" name="dv01"/>
      <point x="910" y="-20"/>
      <point x="1138" y="200"/>
      <point x="1138" y="500" type="curve" smooth="yes" name="sh03"/>
      <point x="1138" y="713"/>
      <point x="1024" y="886"/>
      <point x="845" y="968" type="curve"/>
      <point x="871" y="1031" type="line" name="at01"/>
      <point x="773" y="1072" type="line"/>
      <point x="744" y="1002" type="line"/>
      <point x="697" y="1014"/>
      <point x="647" y="1020"/>
      <point x="595" y="1020" type="curve" smooth="yes" name="at01.1"/>
      <point x="280" y="1020"/>
      <point x="50" y="800"/>
      <point x="50" y="500" type="curve" smooth="yes" name="sh01"/>
      <point x="50" y="288"/>
      <point x="165" y="116"/>
      <point x="344" y="33" type="curve"/>
      <point x="317" y="-32" type="line"/>
    </contour>
    <contour>
      <point x="479" y="360" type="line"/>
      <point x="447" y="394"/>
      <point x="428" y="444"/>
      <point x="428" y="502" type="curve" smooth="yes" name="sh02"/>
      <point x="428" y="610"/>
      <point x="498" y="690"/>
      <point x="594" y="690" type="curve" smooth="yes" name="sv01"/>
      <point x="601" y="690"/>
      <point x="608" y="690"/>
      <point x="615" y="689" type="curve"/>
    </contour>
    <contour>
      <point x="594" y="310" type="curve" smooth="yes" name="dv02"/>
      <point x="587" y="310"/>
      <point x="580" y="310"/>
      <point x="573" y="311" type="curve"/>
      <point x="709" y="641" type="line"/>
      <point x="741" y="607"/>
      <point x="760" y="558"/>
      <point x="760" y="502" type="curve" smooth="yes" name="ah01"/>
      <point x="760" y="390"/>
      <point x="690" y="310"/>
    </contour>
  </outline>
</glyph>
<glyph name="yacute" format="1">
  <advance width="1367"/>
  <unicode hex="00FD"/>
  <outline>
    <contour>
      <point x="830" y="1160" type="line" name="av01"/>
      <point x="1030" y="1500" type="line" name="at01"/>
      <point x="701" y="1500" type="line"/>
      <point x="569" y="1160" type="line"/>
    </contour>
    <contour>
      <point x="735" y="-500" type="line"/>
      <point x="1357" y="1000" type="line"/>
      <point x="968" y="1000" type="line"/>
      <point x="726" y="416" type="line"/>
      <point x="449" y="1000" type="line"/>
      <point x="10" y="1000" type="line"/>
      <point x="552" y="-3" type="line"/>
      <point x="346" y="-500" type="line"/>
    </contour>
  </outline>
</glyph>
<glyph name="thorn" format="2">
  <advance width="1236"/>
  <unicode hex="00FE"/>
  <outline>
    <contour>
      <point x="470" y="-500" type="line"/>
      <point x="470" y="100" type="line"/>
      <point x="548" y="24"/>
      <point x="650" y="-20"/>
      <point x="767" y="-20" type="curve" smooth="yes" name="at01"/>
      <point x="1028" y="-20"/>
      <point x="1216" y="200"/>
      <point x="1216" y="500" type="curve" smooth="yes" name="sh03"/>
      <point x="1216" y="800"/>
      <point x="1028" y="1020"/>
      <point x="767" y="1020" type="curve" smooth="yes" name="dv01"/>
      <point x="650" y="1020"/>
      <point x="548" y="976"/>
      <point x="470" y="900" type="curve"/>
      <point x="470" y="1500" type="line"/>
      <point x="100" y="1500" type="line" name="dh01"/>
      <point x="100" y="-500" type="line" name="at01"/>
    </contour>
    <contour>
      <point x="654" y="310" type="curve" smooth="yes" name="sv01"/>
      <point x="553" y="310"/>
      <point x="478" y="381"/>
      <point x="470" y="480" type="curve" name="sh02"/>
      <point x="470" y="517" type="line"/>
      <point x="478" y="619"/>
      <point x="553" y="690"/>
      <point x="654" y="690" type="curve" smooth="yes" name="dv02"/>
      <point x="761" y="690"/>
      <point x="838" y="610"/>
      <point x="838" y="500" type="curve" smooth="yes" name="ah01"/>
      <point x="838" y="390"/>
      <point x="761" y="310"/>
    </contour>
  </outline>
</glyph>
<glyph name="abreve" format="1">
  <advance width="1129"/>
  <unicode hex="0103"/>
  <outline>
    <contour>
      <point x="888" y="1500" type="curve" name="at01"/>
      <point x="688" y="1500" type="line" name="ah01"/>
      <point x="688" y="1399"/>
      <point x="643" y="1340"/>
      <point x="565" y="1340" type="curve" smooth="yes"/>
      <point x="487" y="1340"/>
      <point x="441" y="1399"/>
      <point x="441" y="1500" type="curve" name="sh01"/>
      <point x="240" y="1500" type="line" name="at02"/>
      <point x="240" y="1304"/>
      <point x="372" y="1170"/>
      <point x="564" y="1170" type="curve" smooth="yes" name="av01"/>
      <point x="756" y="1170"/>
      <point x="888" y="1304"/>
    </contour>
    <contour>
      <point x="1049" y="0" type="line" name="n0.1"/>
      <point x="1049" y="528" type="line" smooth="yes" name="n1.1"/>
      <point x="1049" y="827" name="n2.1"/>
      <point x="849" y="1020" name="n3.1"/>
      <point x="535" y="1020" type="curve" smooth="yes" name="n4.1"/>
      <point x="403" y="1020" name="n5.1"/>
      <point x="257" y="986" name="n6.1"/>
      <point x="110" y="921" type="curve" name="n7.1"/>
      <point x="204" y="650" type="line" name="n8.1"/>
      <point x="271" y="699"/>
      <point x="359" y="727"/>
      <point x="447" y="727" type="curve" smooth="yes"/>
      <point x="584" y="727"/>
      <point x="680" y="663"/>
      <point x="680" y="571" type="curve" smooth="yes" name="n14"/>
      <point x="680" y="555" type="line"/>
      <point x="604" y="587"/>
      <point x="523" y="604"/>
      <point x="441" y="604" type="curve" smooth="yes" name="n17"/>
      <point x="213" y="604" name="n18"/>
      <point x="50" y="474" name="n19"/>
      <point x="50" y="287" type="curve" smooth="yes" name="n20"/>
      <point x="50" y="109" name="n21"/>
      <point x="199" y="-20" name="n22"/>
      <point x="405" y="-20" type="curve" smooth="yes" name="n23"/>
      <point x="528" y="-20"/>
      <point x="634" y="26"/>
      <point x="708" y="110" type="curve"/>
      <point x="726" y="0" type="line" name="n16.1"/>
    </contour>
    <contour>
      <point x="490" y="249" type="curve" smooth="yes" name="n4"/>
      <point x="423" y="249" name="n5"/>
      <point x="374" y="287" name="n6"/>
      <point x="374" y="340" type="curve" smooth="yes" name="n7"/>
      <point x="374" y="394" name="n8"/>
      <point x="426" y="428" name="n9"/>
      <point x="510" y="428" type="curve" smooth="yes" name="n10"/>
      <point x="568" y="428" name="n11"/>
      <point x="630" y="412"/>
      <point x="678" y="384" type="curve" name="n1"/>
      <point x="678" y="383" type="line"/>
      <point x="678" y="318"/>
      <point x="580" y="249" name="n3"/>
    </contour>
  </outline>
</glyph>
<glyph name="Aogonek" format="1">
  <advance width="1606"/>
  <unicode hex="0104"/>
  <outline>
    <contour>
      <point x="425" y="0" type="line" name="ab02"/>
      <point x="522" y="267" type="line"/>
      <point x="1084" y="267" type="line"/>
      <point x="1181" y="0" type="line"/>
      <point x="1340" y="0" type="line" name="ab01"/>
      <point x="1226" y="-50"/>
      <point x="1154" y="-139"/>
      <point x="1154" y="-232" type="curve" smooth="yes"/>
      <point x="1154" y="-343"/>
      <point x="1258" y="-416"/>
      <point x="1414" y="-416" type="curve" name="av01"/>
      <point x="1443" y="-238" type="line"/>
      <point x="1378" y="-238"/>
      <point x="1329" y="-199"/>
      <point x="1329" y="-145" type="curve" smooth="yes"/>
      <point x="1329" y="-92"/>
      <point x="1380" y="-35"/>
      <point x="1457" y="0" type="curve"/>
      <point x="1596" y="0" type="line" name="n7"/>
      <point x="1011" y="1500" type="line"/>
      <point x="596" y="1500" type="line" name="at02"/>
      <point x="10" y="0" type="line"/>
    </contour>
    <contour>
      <point x="648" y="612" type="line"/>
      <point x="803" y="1040" type="line"/>
      <point x="959" y="612" type="line"/>
    </contour>
  </outline>
</glyph>
<glyph name="aogonek" format="1">
  <advance width="1129"/>
  <unicode hex="0105"/>
  <outline>
    <contour>
      <point x="1049" y="0" type="line" name="n0.1"/>
      <point x="1049" y="528" type="line" smooth="yes" name="n1.1"/>
      <point x="1049" y="827" name="n2.1"/>
      <point x="849" y="1020" name="n3.1"/>
      <point x="535" y="1020" type="curve" smooth="yes" name="n4.1"/>
      <point x="403" y="1020" name="n5.1"/>
      <point x="257" y="986" name="n6.1"/>
      <point x="110" y="921" type="curve" name="n7.1"/>
      <point x="204" y="650" type="line" name="n8.1"/>
      <point x="271" y="699"/>
      <point x="359" y="727"/>
      <point x="447" y="727" type="curve" smooth="yes"/>
      <point x="584" y="727"/>
      <point x="680" y="663"/>
      <point x="680" y="571" type="curve" smooth="yes" name="n14"/>
      <point x="680" y="555" type="line"/>
      <point x="604" y="587"/>
      <point x="523" y="604"/>
      <point x="441" y="604" type="curve" smooth="yes" name="n17"/>
      <point x="213" y="604" name="n18"/>
      <point x="50" y="474" name="n19"/>
      <point x="50" y="287" type="curve" smooth="yes" name="n20"/>
      <point x="50" y="109" name="n21"/>
      <point x="199" y="-20" name="n22"/>
      <point x="405" y="-20" type="curve" smooth="yes" name="n23"/>
      <point x="528" y="-20"/>
      <point x="634" y="26"/>
      <point x="708" y="110" type="curve"/>
      <point x="726" y="0" type="line" name="n16.1"/>
      <point x="866" y="0" type="line" name="ab01"/>
      <point x="752" y="-50"/>
      <point x="680" y="-139"/>
      <point x="680" y="-232" type="curve" smooth="yes"/>
      <point x="680" y="-343"/>
      <point x="784" y="-416"/>
      <point x="940" y="-416" type="curve" name="av01"/>
      <point x="969" y="-238" type="line"/>
      <point x="904" y="-238"/>
      <point x="855" y="-199"/>
      <point x="855" y="-145" type="curve" smooth="yes"/>
      <point x="855" y="-92"/>
      <point x="906" y="-35"/>
      <point x="983" y="0" type="curve"/>
    </contour>
    <contour>
      <point x="490" y="249" type="curve" smooth="yes" name="n4"/>
      <point x="423" y="249" name="n5"/>
      <point x="374" y="287" name="n6"/>
      <point x="374" y="340" type="curve" smooth="yes" name="n7"/>
      <point x="374" y="394" name="n8"/>
      <point x="426" y="428" name="n9"/>
      <point x="510" y="428" type="curve" smooth="yes" name="n10"/>
      <point x="568" y="428" name="n11"/>
      <point x="630" y="412"/>
      <point x="678" y="384" type="curve" name="n1"/>
      <point x="678" y="383" type="line"/>
      <point x="678" y="318"/>
      <point x="580" y="249" name="n3"/>
    </contour>
  </outline>
</glyph>
<glyph name="dcaron" format="2">
  <advance width="1789"/>
  <unicode hex="010F"/>
  <outline>
    <contour>
      <point x="1574" y="1070" type="line"/>
      <point x="1719" y="1520" type="line"/>
      <point x="1469" y="1520" type="line" name="av01"/>
      <point x="1368" y="1070" type="line"/>
    </contour>
    <component base="d"/>
  </outline>
</glyph>
<glyph name="dcroat" format="2">
  <advance width="1267"/>
  <unicode hex="0111"/>
  <outline>
    <contour>
      <point x="1166" y="0" type="line" name="dh01"/>
      <point x="1166" y="1134" type="line"/>
      <point x="1262" y="1134" type="line"/>
      <point x="1262" y="1339" type="line"/>
      <point x="1166" y="1339" type="line"/>
      <point x="1166" y="1500" type="line" name="at01"/>
      <point x="797" y="1500" type="line"/>
      <point x="797" y="1339" type="line"/>
      <point x="564" y="1339" type="line"/>
      <point x="564" y="1134" type="line"/>
      <point x="797" y="1134" type="line"/>
      <point x="797" y="900" type="line"/>
      <point x="719" y="976"/>
      <point x="616" y="1020"/>
      <point x="499" y="1020" type="curve" smooth="yes" name="at01.1"/>
      <point x="238" y="1020"/>
      <point x="50" y="800"/>
      <point x="50" y="500" type="curve" smooth="yes" name="sh03"/>
      <point x="50" y="200"/>
      <point x="238" y="-20"/>
      <point x="499" y="-20" type="curve" smooth="yes" name="dv01"/>
      <point x="630" y="-20"/>
      <point x="744" y="36"/>
      <point x="824" y="130" type="curve"/>
      <point x="843" y="0" type="line"/>
    </contour>
    <contour>
      <point x="613" y="310" type="curve" smooth="yes" name="dv02"/>
      <point x="506" y="310"/>
      <point x="428" y="390"/>
      <point x="428" y="500" type="curve" smooth="yes" name="ah01"/>
      <point x="428" y="610"/>
      <point x="506" y="690"/>
      <point x="613" y="690" type="curve" smooth="yes" name="sv01"/>
      <point x="714" y="690"/>
      <point x="797" y="619"/>
      <point x="797" y="520" type="curve" smooth="yes" name="sh02"/>
      <point x="797" y="483" type="line" smooth="yes"/>
      <point x="797" y="381"/>
      <point x="714" y="310"/>
    </contour>
  </outline>
</glyph>
<glyph name="eogonek" format="1">
  <advance width="1166"/>
  <unicode hex="0119"/>
  <outline>
    <contour>
      <point x="1051" y="105" type="curve"/>
      <point x="955" y="360" type="line"/>
      <point x="874.1" y="302.15"/>
      <point x="779.15" y="270.2"/>
      <point x="687.236" y="270.2" type="curve" smooth="yes"/>
      <point x="559.3" y="270.2"/>
      <point x="481.2" y="332.1"/>
      <point x="446.2" y="410" type="curve"/>
      <point x="1116" y="410" type="line"/>
      <point x="1116" y="442" type="line" smooth="yes"/>
      <point x="1116" y="785.9"/>
      <point x="900.1" y="1020"/>
      <point x="583" y="1020" type="curve" smooth="yes"/>
      <point x="278.45" y="1020"/>
      <point x="50" y="804.4"/>
      <point x="50" y="517" type="curve" smooth="yes"/>
      <point x="50" y="211.95"/>
      <point x="306.95" y="-20"/>
      <point x="643.113" y="-20" type="curve" smooth="yes"/>
      <point x="651.006" y="-20"/>
      <point x="656.967" y="-19.8721"/>
      <point x="662.956" y="-19.7232" type="curve"/>
      <point x="571.918" y="-71.3653"/>
      <point x="517" y="-149.852"/>
      <point x="517" y="-232" type="curve" smooth="yes"/>
      <point x="517" y="-343"/>
      <point x="621" y="-416"/>
      <point x="777" y="-416" type="curve" name="av01"/>
      <point x="806" y="-238" type="line"/>
      <point x="741" y="-238"/>
      <point x="692" y="-199"/>
      <point x="692" y="-145" type="curve" smooth="yes"/>
      <point x="692" y="-90.0289"/>
      <point x="744.015" y="-24.9174"/>
      <point x="828.873" y="3.9329" type="curve" smooth="yes"/>
      <point x="905.217" y="29.8884"/>
      <point x="981.573" y="58.5269"/>
    </contour>
    <contour>
      <point x="428.5" y="560" type="line"/>
      <point x="444.5" y="647.1"/>
      <point x="505.65" y="720"/>
      <point x="603.895" y="720" type="curve" smooth="yes"/>
      <point x="696.95" y="720"/>
      <point x="768.9" y="654.6"/>
      <point x="778" y="560" type="curve"/>
    </contour>
  </outline>
</glyph>
<glyph name="Ecaron" format="1">
  <advance width="1200"/>
  <unicode hex="011A"/>
  <outline>
    <contour>
      <point x="771" y="1660" type="line" name="at01.1"/>
      <point x="996" y="2000" type="line"/>
      <point x="726" y="2000" type="line" name="av01"/>
      <point x="625" y="1809" type="line"/>
      <point x="524" y="2000" type="line" name="av01.1"/>
      <point x="254" y="2000" type="line"/>
      <point x="479" y="1660" type="line" name="at01.1.1"/>
    </contour>
    <contour>
      <point x="100" y="0" type="line" name="ab01"/>
      <point x="1110" y="0" type="line"/>
      <point x="1110" y="345" type="line" name="sv01"/>
      <point x="496" y="345" type="line" name="dh01"/>
      <point x="496" y="578" type="line" name="dv01"/>
      <point x="1060" y="578" type="line"/>
      <point x="1060" y="923" type="line"/>
      <point x="496" y="923" type="line" name="dv02"/>
      <point x="496" y="1155" type="line" name="sv02"/>
      <point x="1100" y="1155" type="line"/>
      <point x="1100" y="1500" type="line" name="at01"/>
      <point x="100" y="1500" type="line"/>
    </contour>
  </outline>
</glyph>
<glyph name="gbreve" format="1">
  <advance width="1255"/>
  <unicode hex="011F"/>
  <outline>
    <contour>
      <point x="966" y="1500" type="curve" name="at01.1"/>
      <point x="766" y="1500" type="line" name="ah01.1"/>
      <point x="766" y="1399"/>
      <point x="721" y="1340"/>
      <point x="643" y="1340" type="curve" smooth="yes"/>
      <point x="565" y="1340"/>
      <point x="519" y="1399"/>
      <point x="519" y="1500" type="curve" name="sh01"/>
      <point x="318" y="1500" type="line" name="at02"/>
      <point x="318" y="1304"/>
      <point x="450" y="1170"/>
      <point x="642" y="1170" type="curve" smooth="yes" name="av01"/>
      <point x="834" y="1170"/>
      <point x="966" y="1304"/>
    </contour>
    <contour>
      <point x="499" y="-20" type="curve" smooth="yes" name="dv01"/>
      <point x="616" y="-20"/>
      <point x="718" y="24"/>
      <point x="796" y="100" type="curve"/>
      <point x="796" y="45" type="line" smooth="yes"/>
      <point x="796" y="-92"/>
      <point x="681" y="-190"/>
      <point x="522" y="-190" type="curve" smooth="yes"/>
      <point x="416" y="-190"/>
      <point x="314" y="-147"/>
      <point x="229" y="-66" type="curve"/>
      <point x="84" y="-369" type="line"/>
      <point x="231" y="-472"/>
      <point x="379" y="-520"/>
      <point x="551" y="-520" type="curve" smooth="yes"/>
      <point x="919" y="-520"/>
      <point x="1165" y="-300"/>
      <point x="1165" y="29" type="curve" smooth="yes"/>
      <point x="1165" y="1000" type="line"/>
      <point x="842" y="1000" type="line"/>
      <point x="825" y="869" type="line"/>
      <point x="745" y="963"/>
      <point x="631" y="1020"/>
      <point x="499" y="1020" type="curve" smooth="yes" name="at01"/>
      <point x="239" y="1020"/>
      <point x="50" y="801"/>
      <point x="50" y="500" type="curve" smooth="yes" name="sh03"/>
      <point x="50" y="199"/>
      <point x="239" y="-20"/>
    </contour>
    <contour>
      <point x="613" y="310" type="curve" smooth="yes" name="dv02"/>
      <point x="506" y="310"/>
      <point x="428" y="390"/>
      <point x="428" y="500" type="curve" smooth="yes" name="ah01"/>
      <point x="428" y="610"/>
      <point x="507" y="690"/>
      <point x="613" y="690" type="curve" smooth="yes" name="sv01"/>
      <point x="713" y="690"/>
      <point x="796" y="620"/>
      <point x="796" y="522" type="curve" smooth="yes" name="sh02"/>
      <point x="796" y="481" type="line" smooth="yes"/>
      <point x="796" y="380"/>
      <point x="714" y="310"/>
    </contour>
  </outline>
</glyph>
<glyph name="Hbar" format="1">
  <advance width="1570"/>
  <unicode hex="0126"/>
  <outline>
    <contour>
      <point x="1560" y="1103" type="line"/>
      <point x="1560" y="1308" type="line"/>
      <point x="1442" y="1308" type="line"/>
      <point x="1442" y="1500" type="line" name="at01"/>
      <point x="1046" y="1500" type="line" name="sh03"/>
      <point x="1046" y="1308" type="line"/>
      <point x="523" y="1308" type="line"/>
      <point x="523" y="1500" type="line" name="at02"/>
      <point x="127" y="1500" type="line" name="sh01"/>
      <point x="127" y="1308" type="line"/>
      <point x="10" y="1308" type="line"/>
      <point x="10" y="1103" type="line"/>
      <point x="127" y="1103" type="line"/>
      <point x="127" y="0" type="line"/>
      <point x="523" y="0" type="line" name="ab01"/>
      <point x="523" y="565" type="line" name="dv01"/>
      <point x="1046" y="565" type="line"/>
      <point x="1046" y="0" type="line" name="ab02"/>
      <point x="1442" y="0" type="line" name="sh02"/>
      <point x="1442" y="1103" type="line"/>
    </contour>
    <contour>
      <point x="523" y="910" type="line" name="dv02"/>
      <point x="523" y="1103" type="line"/>
      <point x="1046" y="1103" type="line"/>
      <point x="1046" y="910" type="line"/>
    </contour>
  </outline>
</glyph>
<glyph name="hbar" format="1">
  <advance width="1261"/>
  <unicode hex="0127"/>
  <outline>
    <contour>
      <point x="738" y="1118" type="line"/>
      <point x="738" y="1323" type="line"/>
      <point x="511" y="1323" type="line"/>
      <point x="511" y="1500" type="line"/>
      <point x="142" y="1500" type="line" name="dh01"/>
      <point x="142" y="1323" type="line"/>
      <point x="10" y="1323" type="line"/>
      <point x="10" y="1118" type="line"/>
      <point x="142" y="1118" type="line"/>
      <point x="142" y="0" type="line" name="at01"/>
      <point x="511" y="0" type="line"/>
      <point x="511" y="482" type="line" smooth="yes"/>
      <point x="511" y="614"/>
      <point x="567" y="690"/>
      <point x="664" y="690" type="curve" smooth="yes" name="sv01"/>
      <point x="759" y="690"/>
      <point x="812" y="615"/>
      <point x="812" y="482" type="curve" smooth="yes"/>
      <point x="812" y="0" type="line" name="dh02"/>
      <point x="1181" y="0" type="line" name="ab02"/>
      <point x="1181" y="583" type="line" smooth="yes"/>
      <point x="1181" y="857"/>
      <point x="1037" y="1020"/>
      <point x="794" y="1020" type="curve" smooth="yes" name="at02"/>
      <point x="675" y="1020"/>
      <point x="580" y="980"/>
      <point x="511" y="904" type="curve"/>
      <point x="511" y="1118" type="line"/>
    </contour>
  </outline>
</glyph>
<glyph name="dotlessi" format="1">
  <advance width="569"/>
  <unicode hex="0131"/>
  <outline>
    <contour>
      <point x="469" y="0" type="line" name="sh01"/>
      <point x="469" y="1000" type="line"/>
      <point x="100" y="1000" type="line"/>
      <point x="100" y="0" type="line" name="ab01"/>
    </contour>
  </outline>
</glyph>
<glyph name="idotless" format="2">
  <advance width="569"/>
  <unicode hex="0131"/>
  <anchor x="285" y="0" name="bottom"/>
  <anchor x="441" y="0" name="ogonek"/>
  <anchor x="285" y="1000" name="top"/>
  <outline>
    <contour>
      <point x="469" y="0" type="line" name="sh01"/>
      <point x="469" y="1000" type="line"/>
      <point x="100" y="1000" type="line"/>
      <point x="100" y="0" type="line" name="ab01"/>
    </contour>
  </outline>
</glyph>
<glyph name="IJ" format="2">
  <advance width="1332"/>
  <unicode hex="0132"/>
  <outline>
    <contour>
      <point x="496" y="1500" type="line" name="at01"/>
      <point x="496" y="0" type="line" name="ab01"/>
      <point x="100" y="0" type="line" name="dh01"/>
      <point x="100" y="1500" type="line"/>
    </contour>
    <contour>
      <point x="521" y="-360" type="curve"/>
      <point x="501" y="-15" type="line"/>
      <point x="729" y="-15"/>
      <point x="836" y="88"/>
      <point x="836" y="306" type="curve" smooth="yes"/>
      <point x="836" y="1500" type="line"/>
      <point x="1232" y="1500" type="line"/>
      <point x="1232" y="306" type="line" smooth="yes"/>
      <point x="1232" y="-174"/>
      <point x="1033" y="-360"/>
    </contour>
  </outline>
</glyph>
<glyph name="Jcircumflex" format="1">
  <advance width="581"/>
  <unicode hex="0134"/>
  <outline>
    <contour>
      <point x="647" y="1660" type="line"/>
      <point x="422" y="2000" type="line" name="at01"/>
      <point x="129" y="2000" type="line" name="at01.1"/>
      <point x="-96" y="1660" type="line"/>
      <point x="173" y="1660" type="line" name="av01"/>
      <point x="275" y="1852" type="line"/>
      <point x="377" y="1660" type="line" name="av01.1"/>
    </contour>
    <contour>
      <point x="-230" y="-360" type="line"/>
      <point x="282" y="-360"/>
      <point x="481" y="-174"/>
      <point x="481" y="306" type="curve" smooth="yes"/>
      <point x="481" y="1500" type="line"/>
      <point x="85" y="1500" type="line"/>
      <point x="85" y="306" type="line" smooth="yes"/>
      <point x="85" y="88"/>
      <point x="-22" y="-15"/>
      <point x="-250" y="-15" type="curve"/>
    </contour>
  </outline>
</glyph>
<glyph name="jcircumflex" format="1">
  <advance width="529"/>
  <unicode hex="0135"/>
  <outline>
    <contour>
      <point x="607" y="1160" type="line"/>
      <point x="382" y="1500" type="line" name="at01"/>
      <point x="89" y="1500" type="line" name="at01.1"/>
      <point x="-136" y="1160" type="line"/>
      <point x="133" y="1160" type="line" name="av01"/>
      <point x="235" y="1352" type="line"/>
      <point x="337" y="1160" type="line" name="av01.1"/>
    </contour>
    <contour>
      <point x="-204" y="-499" type="line"/>
      <point x="-134" y="-513"/>
      <point x="-70" y="-520"/>
      <point x="-12" y="-520" type="curve" smooth="yes"/>
      <point x="281" y="-520"/>
      <point x="428" y="-347"/>
      <point x="428" y="-2" type="curve" smooth="yes"/>
      <point x="428" y="1000" type="line"/>
      <point x="59" y="1000" type="line"/>
      <point x="59" y="15" type="line" smooth="yes"/>
      <point x="59" y="-132"/>
      <point x="-16" y="-214"/>
      <point x="-144" y="-214" type="curve" smooth="yes"/>
      <point x="-163" y="-214"/>
      <point x="-183" y="-213"/>
      <point x="-204" y="-209" type="curve"/>
    </contour>
  </outline>
</glyph>
<glyph name="kgreenlandic" format="2">
  <advance width="1282"/>
  <unicode hex="0138"/>
  <outline>
    <contour>
      <point x="469" y="0" type="line"/>
      <point x="469" y="277" type="line"/>
      <point x="546" y="328" type="line"/>
      <point x="797" y="0" type="line"/>
      <point x="1272" y="0" type="line"/>
      <point x="799" y="547" type="line"/>
      <point x="1232" y="1000" type="line"/>
      <point x="770" y="1000" type="line"/>
      <point x="580" y="801" type="line"/>
      <point x="469" y="667" type="line"/>
      <point x="469" y="1000" type="line"/>
      <point x="100" y="1000" type="line"/>
      <point x="100" y="0" type="line"/>
    </contour>
  </outline>
</glyph>
<glyph name="lacute" format="1">
  <advance width="596"/>
  <unicode hex="013A"/>
  <outline>
    <contour>
      <point x="429" y="1660" type="line" name="av01.1"/>
      <point x="629" y="2000" type="line" name="at01"/>
      <point x="300" y="2000" type="line"/>
      <point x="168" y="1660" type="line"/>
    </contour>
    <contour>
      <point x="496" y="0" type="line"/>
      <point x="496" y="1540" type="line" name="av01"/>
      <point x="100" y="1540" type="line" name="dh01"/>
      <point x="100" y="0" type="line" name="ab01"/>
    </contour>
  </outline>
</glyph>
<glyph name="uni013B" format="1">
  <advance width="1140"/>
  <unicode hex="013B"/>
  <outline>
    <contour>
      <point x="1120" y="0" type="line"/>
      <point x="1120" y="345" type="line"/>
      <point x="496" y="345" type="line"/>
      <point x="496" y="1500" type="line"/>
      <point x="100" y="1500" type="line"/>
      <point x="100" y="0" type="line"/>
    </contour>
    <contour>
      <point x="573" y="-548" type="line"/>
      <point x="697" y="-484"/>
      <point x="775" y="-345"/>
      <point x="775" y="-190" type="curve" smooth="yes"/>
      <point x="775" y="-139"/>
      <point x="766" y="-86"/>
      <point x="748" y="-35" type="curve"/>
      <point x="476" y="-90" type="line"/>
      <point x="509" y="-135"/>
      <point x="525" y="-191"/>
      <point x="525" y="-247" type="curve" smooth="yes"/>
      <point x="525" y="-320"/>
      <point x="498" y="-392"/>
      <point x="445" y="-437" type="curve"/>
    </contour>
  </outline>
</glyph>
<glyph name="uni013C" format="1">
  <advance width="596"/>
  <unicode hex="013C"/>
  <outline>
    <contour>
      <point x="496" y="0" type="line"/>
      <point x="496" y="1540" type="line" name="av01"/>
      <point x="100" y="1540" type="line" name="dh01"/>
      <point x="100" y="0" type="line" name="ab01"/>
    </contour>
    <contour>
      <point x="258" y="-548" type="line"/>
      <point x="382" y="-484"/>
      <point x="460" y="-345"/>
      <point x="460" y="-190" type="curve" smooth="yes"/>
      <point x="460" y="-139"/>
      <point x="451" y="-86"/>
      <point x="433" y="-35" type="curve"/>
      <point x="161" y="-90" type="line"/>
      <point x="194" y="-135"/>
      <point x="210" y="-191"/>
      <point x="210" y="-247" type="curve" smooth="yes"/>
      <point x="210" y="-320"/>
      <point x="183" y="-392"/>
      <point x="130" y="-437" type="curve"/>
    </contour>
  </outline>
</glyph>
<glyph name="lcaron" format="2">
  <advance width="991"/>
  <unicode hex="013E"/>
  <anchor x="298" y="0" name="bottom"/>
  <anchor x="298" y="500" name="center"/>
  <anchor x="298" y="1500" name="top"/>
  <anchor x="576" y="1500" name="topright"/>
  <outline>
    <contour>
      <point x="836" y="1050" type="line"/>
      <point x="981" y="1500" type="line"/>
      <point x="731" y="1500" type="line" name="av01.1"/>
      <point x="630" y="1050" type="line"/>
    </contour>
    <component base="l"/>
  </outline>
</glyph>
<glyph name="Ldot" format="1">
  <advance width="1140"/>
  <unicode hex="013F"/>
  <outline>
    <contour>
      <point x="1120" y="0" type="line"/>
      <point x="1120" y="345" type="line"/>
      <point x="496" y="345" type="line"/>
      <point x="496" y="1500" type="line"/>
      <point x="100" y="1500" type="line"/>
      <point x="100" y="0" type="line"/>
    </contour>
    <contour>
      <point x="810" y="610" type="curve" smooth="yes"/>
      <point x="894" y="610"/>
      <point x="950" y="666"/>
      <point x="950" y="750" type="curve" smooth="yes"/>
      <point x="950" y="834"/>
      <point x="894" y="890"/>
      <point x="810" y="890" type="curve" smooth="yes"/>
      <point x="726" y="890"/>
      <point x="670" y="834"/>
      <point x="670" y="750" type="curve" smooth="yes"/>
      <point x="670" y="666"/>
      <point x="726" y="610"/>
    </contour>
  </outline>
</glyph>
<glyph name="Lslash" format="1">
  <advance width="1140"/>
  <unicode hex="0141"/>
  <outline>
    <contour>
      <point x="-28" y="432" type="line"/>
      <point x="100" y="506" type="line"/>
      <point x="100" y="0" type="line"/>
      <point x="1120" y="0" type="line"/>
      <point x="1120" y="345" type="line"/>
      <point x="496" y="345" type="line"/>
      <point x="496" y="735" type="line"/>
      <point x="766" y="891" type="line" name="dv01"/>
      <point x="665" y="1068" type="line" name="dv02"/>
      <point x="496" y="970" type="line"/>
      <point x="496" y="1500" type="line"/>
      <point x="100" y="1500" type="line"/>
      <point x="100" y="742" type="line"/>
      <point x="-129" y="610" type="line"/>
    </contour>
  </outline>
</glyph>
<glyph name="lslash" format="1">
  <advance width="497"/>
  <unicode hex="0142"/>
  <outline>
    <contour>
      <point x="-98" y="452" type="line"/>
      <point x="54" y="540" type="line"/>
      <point x="54" y="0" type="line" name="ab01"/>
      <point x="450" y="0" type="line"/>
      <point x="450" y="768" type="line"/>
      <point x="696" y="911" type="line" name="dv01"/>
      <point x="595" y="1088" type="line" name="dv02"/>
      <point x="450" y="1004" type="line"/>
      <point x="450" y="1540" type="line" name="av01"/>
      <point x="54" y="1540" type="line" name="dh01"/>
      <point x="54" y="776" type="line"/>
      <point x="-199" y="630" type="line"/>
    </contour>
  </outline>
</glyph>
<glyph name="ncaron" format="1">
  <advance width="1219"/>
  <unicode hex="0148"/>
  <outline>
    <contour>
      <point x="775" y="1160" type="line" name="at01.1"/>
      <point x="1000" y="1500" type="line"/>
      <point x="731" y="1500" type="line" name="av01"/>
      <point x="629" y="1309" type="line"/>
      <point x="528" y="1500" type="line" name="av01.1"/>
      <point x="258" y="1500" type="line"/>
      <point x="483" y="1160" type="line" name="at01.1.1"/>
    </contour>
    <contour>
      <point x="1139" y="0" type="line" name="ab02"/>
      <point x="1139" y="583" type="line" smooth="yes"/>
      <point x="1139" y="857"/>
      <point x="991" y="1020"/>
      <point x="743" y="1020" type="curve" smooth="yes" name="at02"/>
      <point x="590" y="1020"/>
      <point x="474" y="958"/>
      <point x="404" y="841" type="curve"/>
      <point x="392" y="1000" type="line"/>
      <point x="100" y="1000" type="line" name="dh01"/>
      <point x="100" y="0" type="line" name="at01"/>
      <point x="469" y="0" type="line"/>
      <point x="469" y="482" type="line" smooth="yes"/>
      <point x="469" y="614"/>
      <point x="525" y="690"/>
      <point x="622" y="690" type="curve" smooth="yes" name="sv01"/>
      <point x="717" y="690"/>
      <point x="770" y="615"/>
      <point x="770" y="482" type="curve" smooth="yes"/>
      <point x="770" y="0" type="line" name="dh02"/>
    </contour>
  </outline>
</glyph>
<glyph name="napostrophe" format="2">
  <advance width="1220"/>
  <unicode hex="0149"/>
  <anchor x="610" y="0" name="bottom"/>
  <anchor x="630" y="1000" name="top"/>
  <outline>
    <contour>
      <point x="228" y="1028" type="line"/>
      <point x="352" y="1092"/>
      <point x="430" y="1231"/>
      <point x="430" y="1386" type="curve" smooth="yes"/>
      <point x="430" y="1437"/>
      <point x="421" y="1490"/>
      <point x="403" y="1541" type="curve"/>
      <point x="131" y="1486" type="line"/>
      <point x="164" y="1441"/>
      <point x="180" y="1385"/>
      <point x="180" y="1329" type="curve" smooth="yes"/>
      <point x="180" y="1256"/>
      <point x="153" y="1184"/>
      <point x="100" y="1139" type="curve"/>
    </contour>
    <component base="n"/>
  </outline>
</glyph>
<glyph name="Eng" format="2">
  <advance width="1602"/>
  <unicode hex="014A"/>
  <outline>
    <contour>
      <point x="791" y="-360" type="line"/>
      <point x="1303" y="-360"/>
      <point x="1502" y="-174"/>
      <point x="1502" y="306" type="curve" smooth="yes"/>
      <point x="1502" y="1500" type="line"/>
      <point x="1106" y="1500" type="line"/>
      <point x="1106" y="770.866" type="line"/>
      <point x="1112.34" y="588.158" type="line"/>
      <point x="1103" y="585.601" type="line"/>
      <point x="1065.94" y="658.702"/>
      <point x="956.98" y="839.751"/>
      <point x="905.462" y="913.824" type="curve" smooth="yes"/>
      <point x="497.771" y="1500" type="line"/>
      <point x="100" y="1500" type="line"/>
      <point x="100" y="0" type="line"/>
      <point x="496" y="0" type="line"/>
      <point x="496" y="785.943" type="line"/>
      <point x="491" y="896.882" type="line"/>
      <point x="500" y="901" type="line"/>
      <point x="558.203" y="787.486" type="line"/>
      <point x="786.437" y="450.889" type="line" smooth="yes"/>
      <point x="849.186" y="358.346"/>
      <point x="974.106" y="213.736"/>
      <point x="1076.12" y="115.549" type="curve"/>
      <point x="1020.46" y="26.962"/>
      <point x="896.747" y="-26.195"/>
      <point x="771" y="-15" type="curve"/>
    </contour>
  </outline>
</glyph>
<glyph name="eng" format="1">
  <advance width="1219"/>
  <unicode hex="014B"/>
  <outline>
    <contour>
      <point x="507" y="-499" type="line"/>
      <point x="577" y="-513"/>
      <point x="641" y="-520"/>
      <point x="699" y="-520" type="curve" smooth="yes"/>
      <point x="992" y="-520"/>
      <point x="1139" y="-347"/>
      <point x="1139" y="-2" type="curve" smooth="yes" name="ab02"/>
      <point x="1139" y="583" type="line" smooth="yes"/>
      <point x="1139" y="857"/>
      <point x="991" y="1020"/>
      <point x="743" y="1020" type="curve" smooth="yes" name="at02"/>
      <point x="590" y="1020"/>
      <point x="474" y="958"/>
      <point x="404" y="841" type="curve"/>
      <point x="392" y="1000" type="line"/>
      <point x="100" y="1000" type="line" name="dh01"/>
      <point x="100" y="0" type="line" name="at01"/>
      <point x="469" y="0" type="line"/>
      <point x="469" y="482" type="line" smooth="yes"/>
      <point x="469" y="614"/>
      <point x="525" y="690"/>
      <point x="622" y="690" type="curve" smooth="yes" name="sv01"/>
      <point x="717" y="690"/>
      <point x="770" y="615"/>
      <point x="770" y="482" type="curve" smooth="yes"/>
      <point x="770" y="15" type="line" smooth="yes" name="dh02"/>
      <point x="770" y="-132"/>
      <point x="696" y="-214"/>
      <point x="567" y="-214" type="curve" smooth="yes"/>
      <point x="548" y="-214"/>
      <point x="528" y="-213"/>
      <point x="507" y="-209" type="curve"/>
    </contour>
  </outline>
</glyph>
<glyph name="OE" format="2">
  <advance width="2405"/>
  <unicode hex="0152"/>
  <outline>
    <contour>
      <point x="791" y="-30" type="curve" smooth="yes" name="dv01.1"/>
      <point x="997" y="-30"/>
      <point x="1176" y="50"/>
      <point x="1305" y="183" type="curve"/>
      <point x="1305" y="0" type="line" name="ab01"/>
      <point x="2315" y="0" type="line"/>
      <point x="2315" y="345" type="line" name="sv01"/>
      <point x="1701" y="345" type="line" name="dh01"/>
      <point x="1701" y="578" type="line" name="dv01"/>
      <point x="2265" y="578" type="line"/>
      <point x="2265" y="923" type="line"/>
      <point x="1701" y="923" type="line" name="dv02"/>
      <point x="1701" y="1155" type="line" name="sv02"/>
      <point x="2305" y="1155" type="line"/>
      <point x="2305" y="1500" type="line" name="at01"/>
      <point x="1305" y="1500" type="line"/>
      <point x="1305" y="1317" type="line"/>
      <point x="1176" y="1451"/>
      <point x="997" y="1530"/>
      <point x="791" y="1530" type="curve" smooth="yes" name="at01.1"/>
      <point x="369" y="1530"/>
      <point x="60" y="1197"/>
      <point x="60" y="750" type="curve" smooth="yes" name="sh01"/>
      <point x="60" y="303"/>
      <point x="369" y="-30"/>
    </contour>
    <contour>
      <point x="886" y="315" type="curve" smooth="yes" name="dv02.1"/>
      <point x="647" y="315"/>
      <point x="465" y="505"/>
      <point x="465" y="750" type="curve" smooth="yes" name="sh02"/>
      <point x="465" y="995"/>
      <point x="647" y="1185"/>
      <point x="886" y="1185" type="curve" smooth="yes" name="sv01.1"/>
      <point x="1125" y="1185"/>
      <point x="1305" y="995"/>
      <point x="1305" y="750" type="curve" smooth="yes" name="ah01"/>
      <point x="1305" y="505"/>
      <point x="1125" y="315"/>
    </contour>
  </outline>
</glyph>
<glyph name="oe" format="1">
  <advance width="1964"/>
  <unicode hex="0153"/>
  <outline>
    <contour>
      <point x="1849" y="105" type="curve"/>
      <point x="1753" y="369" type="line"/>
      <point x="1672" y="310"/>
      <point x="1578" y="278"/>
      <point x="1488" y="278" type="curve" smooth="yes"/>
      <point x="1374" y="278"/>
      <point x="1285" y="329"/>
      <point x="1247" y="410" type="curve"/>
      <point x="1914" y="410" type="line"/>
      <point x="1914" y="442" type="line" smooth="yes"/>
      <point x="1914" y="786"/>
      <point x="1698" y="1020"/>
      <point x="1381" y="1020" type="curve" smooth="yes"/>
      <point x="1196" y="1020"/>
      <point x="1040" y="941"/>
      <point x="945" y="815" type="curve"/>
      <point x="858" y="942"/>
      <point x="716" y="1020"/>
      <point x="545" y="1020" type="curve" smooth="yes" name="at01"/>
      <point x="259" y="1020"/>
      <point x="50" y="800"/>
      <point x="50" y="500" type="curve" smooth="yes" name="sh01"/>
      <point x="50" y="200"/>
      <point x="259" y="-20"/>
      <point x="545" y="-20" type="curve" smooth="yes" name="dv01"/>
      <point x="723" y="-20"/>
      <point x="870" y="65"/>
      <point x="956" y="201" type="curve"/>
      <point x="1062" y="65"/>
      <point x="1238" y="-20"/>
      <point x="1443" y="-20" type="curve" smooth="yes"/>
      <point x="1589" y="-20"/>
      <point x="1728" y="24"/>
    </contour>
    <contour>
      <point x="609" y="310" type="curve" smooth="yes" name="dv02"/>
      <point x="504" y="310"/>
      <point x="428" y="390"/>
      <point x="428" y="502" type="curve" smooth="yes" name="sh02"/>
      <point x="428" y="610"/>
      <point x="504" y="690"/>
      <point x="609" y="690" type="curve" smooth="yes" name="sv01"/>
      <point x="714" y="690"/>
      <point x="790" y="610"/>
      <point x="790" y="502" type="curve" smooth="yes" name="ah01"/>
      <point x="790" y="390"/>
      <point x="714" y="310"/>
    </contour>
    <contour>
      <point x="1228" y="530" type="line"/>
      <point x="1239" y="625"/>
      <point x="1305" y="689"/>
      <point x="1399" y="689" type="curve" smooth="yes"/>
      <point x="1495" y="689"/>
      <point x="1566" y="623"/>
      <point x="1576" y="530" type="curve"/>
    </contour>
  </outline>
</glyph>
<glyph name="scircumflex" format="1">
  <advance width="930"/>
  <unicode hex="015D"/>
  <outline>
    <contour>
      <point x="867" y="1160" type="line"/>
      <point x="642" y="1500" type="line" name="at01"/>
      <point x="348" y="1500" type="line" name="at01.1"/>
      <point x="123" y="1160" type="line"/>
      <point x="393" y="1160" type="line" name="av01"/>
      <point x="494" y="1352" type="line"/>
      <point x="596" y="1160" type="line" name="av01.1"/>
    </contour>
    <contour>
      <point x="50" y="85" type="line"/>
      <point x="175" y="17"/>
      <point x="320" y="-20"/>
      <point x="465" y="-20" type="curve" smooth="yes"/>
      <point x="731" y="-20"/>
      <point x="900" y="104"/>
      <point x="900" y="298" type="curve" smooth="yes"/>
      <point x="900" y="496"/>
      <point x="725" y="557"/>
      <point x="592" y="604" type="curve" smooth="yes"/>
      <point x="511" y="633"/>
      <point x="446" y="656"/>
      <point x="446" y="701" type="curve" smooth="yes"/>
      <point x="446" y="728"/>
      <point x="468" y="744"/>
      <point x="512" y="744" type="curve" smooth="yes"/>
      <point x="592" y="744"/>
      <point x="732" y="690"/>
      <point x="797" y="634" type="curve"/>
      <point x="900" y="915" type="line"/>
      <point x="761" y="984"/>
      <point x="616" y="1020"/>
      <point x="479" y="1020" type="curve" smooth="yes"/>
      <point x="229" y="1020"/>
      <point x="68" y="900"/>
      <point x="68" y="710" type="curve" smooth="yes"/>
      <point x="68" y="513"/>
      <point x="243" y="451"/>
      <point x="375" y="404" type="curve" smooth="yes"/>
      <point x="456" y="375"/>
      <point x="521" y="352"/>
      <point x="521" y="306" type="curve" smooth="yes"/>
      <point x="521" y="276"/>
      <point x="492" y="260"/>
      <point x="439" y="260" type="curve" smooth="yes"/>
      <point x="333" y="260"/>
      <point x="179" y="324"/>
      <point x="126" y="389" type="curve"/>
    </contour>
  </outline>
</glyph>
<glyph name="scaron" format="1">
  <advance width="930"/>
  <unicode hex="0161"/>
  <outline>
    <contour>
      <point x="641" y="1160" type="line" name="at01"/>
      <point x="866" y="1500" type="line"/>
      <point x="597" y="1500" type="line" name="av01"/>
      <point x="495" y="1309" type="line"/>
      <point x="394" y="1500" type="line" name="av01.1"/>
      <point x="124" y="1500" type="line"/>
      <point x="349" y="1160" type="line" name="at01.1"/>
    </contour>
    <contour>
      <point x="50" y="85" type="line"/>
      <point x="175" y="17"/>
      <point x="320" y="-20"/>
      <point x="465" y="-20" type="curve" smooth="yes"/>
      <point x="731" y="-20"/>
      <point x="900" y="103"/>
      <point x="900" y="297" type="curve" smooth="yes"/>
      <point x="900" y="480"/>
      <point x="749" y="545"/>
      <point x="603" y="599" type="curve" smooth="yes"/>
      <point x="517" y="630"/>
      <point x="446" y="656"/>
      <point x="446" y="702" type="curve" smooth="yes"/>
      <point x="446" y="728"/>
      <point x="468" y="744"/>
      <point x="512" y="744" type="curve" smooth="yes"/>
      <point x="592" y="744"/>
      <point x="732" y="690"/>
      <point x="797" y="634" type="curve"/>
      <point x="900" y="915" type="line"/>
      <point x="761" y="984"/>
      <point x="616" y="1020"/>
      <point x="479" y="1020" type="curve" smooth="yes"/>
      <point x="229" y="1020"/>
      <point x="68" y="900"/>
      <point x="68" y="710" type="curve" smooth="yes"/>
      <point x="68" y="513"/>
      <point x="243" y="451"/>
      <point x="375" y="404" type="curve" smooth="yes"/>
      <point x="456" y="375"/>
      <point x="521" y="352"/>
      <point x="521" y="306" type="curve" smooth="yes"/>
      <point x="521" y="276"/>
      <point x="492" y="260"/>
      <point x="439" y="260" type="curve" smooth="yes"/>
      <point x="333" y="260"/>
      <point x="179" y="324"/>
      <point x="126" y="389" type="curve"/>
    </contour>
  </outline>
</glyph>
<glyph name="Tcaron" format="1">
  <advance width="1248"/>
  <unicode hex="0164"/>
  <outline>
    <contour>
      <point x="773" y="1660" type="line" name="at01"/>
      <point x="998" y="2000" type="line"/>
      <point x="728" y="2000" type="line" name="av01"/>
      <point x="627" y="1809" type="line"/>
      <point x="526" y="2000" type="line" name="av01.1"/>
      <point x="255" y="2000" type="line"/>
      <point x="480" y="1660" type="line" name="at01.1"/>
    </contour>
    <contour>
      <point x="822" y="0" type="line"/>
      <point x="822" y="1155" type="line"/>
      <point x="1238" y="1155" type="line"/>
      <point x="1238" y="1500" type="line"/>
      <point x="10" y="1500" type="line"/>
      <point x="10" y="1155" type="line"/>
      <point x="426" y="1155" type="line"/>
      <point x="426" y="0" type="line"/>
    </contour>
  </outline>
</glyph>
<glyph name="tcaron" format="2">
  <advance width="1215"/>
  <unicode hex="0165"/>
  <anchor x="524" y="0" name="bottom"/>
  <anchor x="454" y="500" name="center"/>
  <anchor x="454" y="1000" name="top"/>
  <anchor x="888" y="1500" name="topright"/>
  <outline>
    <contour>
      <point x="1060" y="1070" type="line"/>
      <point x="1205" y="1520" type="line"/>
      <point x="955" y="1520" type="line" name="av01"/>
      <point x="854" y="1070" type="line"/>
    </contour>
    <component base="t"/>
  </outline>
</glyph>
<glyph name="tbar" format="2">
  <advance width="908"/>
  <unicode hex="0167"/>
  <outline>
    <contour>
      <point x="832" y="443" type="line" name="av02"/>
      <point x="832" y="562" type="line"/>
      <point x="574" y="562" type="line"/>
      <point x="574" y="670" type="line"/>
      <point x="837" y="670" type="line"/>
      <point x="837" y="1000" type="line"/>
      <point x="574" y="1000" type="line"/>
      <point x="574" y="1250" type="line"/>
      <point x="225" y="1250" type="line"/>
      <point x="225" y="1000" type="line"/>
      <point x="30" y="1000" type="line"/>
      <point x="30" y="671" type="line"/>
      <point x="205" y="671" type="line"/>
      <point x="205" y="563" type="line"/>
      <point x="30" y="563" type="line" name="av01"/>
      <point x="30" y="443" type="line"/>
      <point x="205" y="443" type="line"/>
      <point x="205" y="399" type="line" smooth="yes"/>
      <point x="205" y="150"/>
      <point x="381" y="-20"/>
      <point x="637" y="-20" type="curve" smooth="yes"/>
      <point x="713" y="-20"/>
      <point x="794" y="-4"/>
      <point x="878" y="28" type="curve"/>
      <point x="832" y="338" type="line"/>
      <point x="796" y="313"/>
      <point x="756" y="300"/>
      <point x="715" y="300" type="curve" smooth="yes"/>
      <point x="635" y="300"/>
      <point x="574" y="351"/>
      <point x="575" y="415" type="curve" smooth="yes"/>
      <point x="575" y="443" type="line"/>
    </contour>
  </outline>
</glyph>
<glyph name="Ubreve" format="1">
  <advance width="1544"/>
  <unicode hex="016C"/>
  <outline>
    <contour>
      <point x="1096" y="2000" type="curve" name="at01"/>
      <point x="896" y="2000" type="line" name="ah01"/>
      <point x="896" y="1899"/>
      <point x="851" y="1840"/>
      <point x="773" y="1840" type="curve" smooth="yes"/>
      <point x="695" y="1840"/>
      <point x="649" y="1899"/>
      <point x="649" y="2000" type="curve" name="sh01"/>
      <point x="448" y="2000" type="line" name="at02"/>
      <point x="448" y="1804"/>
      <point x="580" y="1670"/>
      <point x="772" y="1670" type="curve" smooth="yes" name="av01"/>
      <point x="964" y="1670"/>
      <point x="1096" y="1804"/>
    </contour>
    <contour>
      <point x="1444" y="1500" type="line"/>
      <point x="1048" y="1500" type="line"/>
      <point x="1048" y="731" type="line" smooth="yes"/>
      <point x="1048" y="445"/>
      <point x="962" y="315"/>
      <point x="772" y="315" type="curve" smooth="yes"/>
      <point x="582" y="315"/>
      <point x="496" y="445"/>
      <point x="496" y="731" type="curve" smooth="yes"/>
      <point x="496" y="1500" type="line"/>
      <point x="100" y="1500" type="line"/>
      <point x="100" y="677" type="line" smooth="yes"/>
      <point x="100" y="236"/>
      <point x="353" y="-30"/>
      <point x="772" y="-30" type="curve" smooth="yes"/>
      <point x="1191" y="-30"/>
      <point x="1444" y="236"/>
      <point x="1444" y="677" type="curve" smooth="yes"/>
    </contour>
  </outline>
</glyph>
<glyph name="Uring" format="1">
  <advance width="1544"/>
  <unicode hex="016E"/>
  <outline>
    <contour>
      <point x="772" y="1580" type="curve" smooth="yes"/>
      <point x="910" y="1580"/>
      <point x="1002" y="1668"/>
      <point x="1002" y="1800" type="curve" smooth="yes"/>
      <point x="1002" y="1932"/>
      <point x="910" y="2020"/>
      <point x="772" y="2020" type="curve" smooth="yes"/>
      <point x="634" y="2020"/>
      <point x="542" y="1932"/>
      <point x="542" y="1800" type="curve" smooth="yes"/>
      <point x="542" y="1668"/>
      <point x="634" y="1580"/>
    </contour>
    <contour>
      <point x="772" y="1720" type="curve" smooth="yes"/>
      <point x="724" y="1720"/>
      <point x="692" y="1752"/>
      <point x="692" y="1800" type="curve" smooth="yes"/>
      <point x="692" y="1848"/>
      <point x="724" y="1880"/>
      <point x="772" y="1880" type="curve" smooth="yes"/>
      <point x="820" y="1880"/>
      <point x="852" y="1848"/>
      <point x="852" y="1800" type="curve" smooth="yes"/>
      <point x="852" y="1752"/>
      <point x="820" y="1720"/>
    </contour>
    <contour>
      <point x="1444" y="1500" type="line"/>
      <point x="1048" y="1500" type="line"/>
      <point x="1048" y="731" type="line" smooth="yes"/>
      <point x="1048" y="445"/>
      <point x="962" y="315"/>
      <point x="772" y="315" type="curve" smooth="yes"/>
      <point x="582" y="315"/>
      <point x="496" y="445"/>
      <point x="496" y="731" type="curve" smooth="yes"/>
      <point x="496" y="1500" type="line"/>
      <point x="100" y="1500" type="line"/>
      <point x="100" y="677" type="line" smooth="yes"/>
      <point x="100" y="236"/>
      <point x="353" y="-30"/>
      <point x="772" y="-30" type="curve" smooth="yes"/>
      <point x="1191" y="-30"/>
      <point x="1444" y="236"/>
      <point x="1444" y="677" type="curve" smooth="yes"/>
    </contour>
  </outline>
</glyph>
<glyph name="uhungarumlaut" format="1">
  <advance width="1220"/>
  <unicode hex="0171"/>
  <outline>
    <contour>
      <point x="499" y="1160" type="line" name="av01"/>
      <point x="700" y="1500" type="line" name="at01.1"/>
      <point x="370" y="1500" type="line"/>
      <point x="239" y="1160" type="line"/>
    </contour>
    <contour>
      <point x="920" y="1160" type="line" name="av01.1"/>
      <point x="1120" y="1500" type="line" name="at01.1.1"/>
      <point x="791" y="1500" type="line"/>
      <point x="659" y="1160" type="line"/>
    </contour>
    <contour>
      <point x="1119" y="0" type="line" name="dh01"/>
      <point x="1119" y="1000" type="line" name="at01"/>
      <point x="750" y="1000" type="line"/>
      <point x="750" y="518" type="line" smooth="yes"/>
      <point x="750" y="386"/>
      <point x="694" y="310"/>
      <point x="597" y="310" type="curve" smooth="yes" name="sv01"/>
      <point x="502" y="310"/>
      <point x="449" y="385"/>
      <point x="449" y="518" type="curve" smooth="yes"/>
      <point x="449" y="1000" type="line" name="dh02"/>
      <point x="80" y="1000" type="line" name="ab02"/>
      <point x="80" y="417" type="line" smooth="yes"/>
      <point x="80" y="143"/>
      <point x="228" y="-20"/>
      <point x="476" y="-20" type="curve" smooth="yes" name="at02"/>
      <point x="629" y="-20"/>
      <point x="745" y="42"/>
      <point x="815" y="159" type="curve"/>
      <point x="827" y="0" type="line"/>
    </contour>
  </outline>
</glyph>
<glyph name="wcircumflex" format="1">
  <advance width="1742"/>
  <unicode hex="0175"/>
  <outline>
    <contour>
      <point x="1243" y="1160" type="line"/>
      <point x="1018" y="1500" type="line" name="at01"/>
      <point x="724" y="1500" type="line" name="at01.1"/>
      <point x="499" y="1160" type="line"/>
      <point x="769" y="1160" type="line" name="av01"/>
      <point x="871" y="1352" type="line"/>
      <point x="972" y="1160" type="line" name="av01.1"/>
    </contour>
    <contour>
      <point x="1407" y="0" type="line"/>
      <point x="1732" y="1000" type="line"/>
      <point x="1342" y="1000" type="line"/>
      <point x="1203" y="367" type="line"/>
      <point x="1029" y="1000" type="line"/>
      <point x="713" y="1000" type="line"/>
      <point x="539" y="371" type="line"/>
      <point x="400" y="1000" type="line"/>
      <point x="10" y="1000" type="line"/>
      <point x="335" y="0" type="line"/>
      <point x="755" y="0" type="line"/>
      <point x="871" y="519" type="line"/>
      <point x="987" y="0" type="line"/>
    </contour>
  </outline>
</glyph>
<glyph name="ycircumflex" format="1">
  <advance width="1367"/>
  <unicode hex="0177"/>
  <outline>
    <contour>
      <point x="1087" y="1160" type="line"/>
      <point x="862" y="1500" type="line" name="at01"/>
      <point x="569" y="1500" type="line" name="at01.1"/>
      <point x="344" y="1160" type="line"/>
      <point x="613" y="1160" type="line" name="av01"/>
      <point x="715" y="1352" type="line"/>
      <point x="816" y="1160" type="line" name="av01.1"/>
    </contour>
    <contour>
      <point x="735" y="-500" type="line"/>
      <point x="1357" y="1000" type="line"/>
      <point x="968" y="1000" type="line"/>
      <point x="726" y="416" type="line"/>
      <point x="449" y="1000" type="line"/>
      <point x="10" y="1000" type="line"/>
      <point x="552" y="-3" type="line"/>
      <point x="346" y="-500" type="line"/>
    </contour>
  </outline>
</glyph>
<glyph name="zacute" format="1">
  <advance width="1147"/>
  <unicode hex="017A"/>
  <outline>
    <contour>
      <point x="703" y="1160" type="line" name="av01"/>
      <point x="904" y="1500" type="line" name="at01"/>
      <point x="574" y="1500" type="line"/>
      <point x="443" y="1160" type="line"/>
    </contour>
    <contour>
      <point x="1097" y="0" type="line"/>
      <point x="1097" y="330" type="line"/>
      <point x="611" y="330" type="line"/>
      <point x="1055" y="850" type="line"/>
      <point x="1055" y="1000" type="line"/>
      <point x="75" y="1000" type="line"/>
      <point x="75" y="670" type="line"/>
      <point x="468" y="670" type="line"/>
      <point x="50" y="180" type="line"/>
      <point x="50" y="0" type="line"/>
    </contour>
  </outline>
</glyph>
<glyph name="longs" format="1">
  <advance width="824"/>
  <unicode hex="017F"/>
  <outline>
    <contour>
      <point x="496" y="0" type="line" name="ab01.3"/>
      <point x="496" y="1016" type="line" smooth="yes" name="sh01.3"/>
      <point x="496" y="1118"/>
      <point x="558" y="1185"/>
      <point x="650" y="1185" type="curve" smooth="yes"/>
      <point x="676" y="1185"/>
      <point x="704" y="1180"/>
      <point x="733" y="1170" type="curve"/>
      <point x="814" y="1487" type="line"/>
      <point x="724" y="1515"/>
      <point x="638" y="1530"/>
      <point x="557" y="1530" type="curve" smooth="yes"/>
      <point x="274" y="1530"/>
      <point x="100" y="1348"/>
      <point x="100" y="1051" type="curve" smooth="yes"/>
      <point x="100" y="0" type="line" name="dh01.3"/>
    </contour>
  </outline>
</glyph>
<glyph name="florin" format="2">
  <advance width="1378"/>
  <unicode hex="0192"/>
  <outline>
    <contour>
      <point x="1163" y="670" type="line"/>
      <point x="1187" y="1000" type="line"/>
      <point x="887" y="1000" type="line"/>
      <point x="891" y="1048" type="line" smooth="yes"/>
      <point x="897" y="1137"/>
      <point x="964" y="1200"/>
      <point x="1053" y="1200" type="curve" smooth="yes"/>
      <point x="1111" y="1200"/>
      <point x="1165" y="1172"/>
      <point x="1205" y="1123" type="curve"/>
      <point x="1358" y="1407" type="line"/>
      <point x="1257" y="1484"/>
      <point x="1116" y="1530"/>
      <point x="980" y="1530" type="curve" smooth="yes"/>
      <point x="730" y="1530"/>
      <point x="545" y="1372"/>
      <point x="528" y="1144" type="curve" smooth="yes"/>
      <point x="518" y="1000" type="line"/>
      <point x="298" y="1000" type="line"/>
      <point x="274" y="670" type="line"/>
      <point x="494" y="670" type="line"/>
      <point x="478" y="451" type="line" smooth="yes"/>
      <point x="472" y="362"/>
      <point x="405" y="300"/>
      <point x="316" y="300" type="curve" smooth="yes"/>
      <point x="258" y="300"/>
      <point x="204" y="327"/>
      <point x="164" y="376" type="curve"/>
      <point x="10" y="94" type="line"/>
      <point x="111" y="17"/>
      <point x="253" y="-30"/>
      <point x="389" y="-30" type="curve" smooth="yes"/>
      <point x="639" y="-30"/>
      <point x="823" y="128"/>
      <point x="840" y="356" type="curve" smooth="yes"/>
      <point x="863" y="670" type="line"/>
    </contour>
  </outline>
</glyph>
<glyph name="uni021B" format="1">
  <advance width="908"/>
  <unicode hex="021B"/>
  <outline>
    <contour>
      <point x="878" y="28" type="curve"/>
      <point x="832" y="348" type="line"/>
      <point x="796" y="323"/>
      <point x="756" y="310"/>
      <point x="718" y="310" type="curve" smooth="yes"/>
      <point x="640" y="310"/>
      <point x="574" y="363"/>
      <point x="574" y="466" type="curve" smooth="yes"/>
      <point x="574" y="671" type="line"/>
      <point x="837" y="671" type="line"/>
      <point x="837" y="1000" type="line"/>
      <point x="574" y="1000" type="line"/>
      <point x="574" y="1250" type="line"/>
      <point x="225" y="1250" type="line"/>
      <point x="225" y="1000" type="line"/>
      <point x="30" y="1000" type="line"/>
      <point x="30" y="671" type="line"/>
      <point x="205" y="671" type="line"/>
      <point x="205" y="399" type="line" smooth="yes"/>
      <point x="205" y="150"/>
      <point x="381" y="-20"/>
      <point x="637" y="-20" type="curve" smooth="yes"/>
      <point x="713" y="-20"/>
      <point x="794" y="-4"/>
    </contour>
    <contour>
      <point x="417" y="-548" type="line"/>
      <point x="541" y="-484"/>
      <point x="619" y="-345"/>
      <point x="619" y="-190" type="curve" smooth="yes"/>
      <point x="619" y="-139"/>
      <point x="610" y="-86"/>
      <point x="592" y="-35" type="curve"/>
      <point x="320" y="-90" type="line"/>
      <point x="353" y="-135"/>
      <point x="369" y="-191"/>
      <point x="369" y="-247" type="curve" smooth="yes"/>
      <point x="369" y="-320"/>
      <point x="342" y="-392"/>
      <point x="289" y="-437" type="curve"/>
    </contour>
  </outline>
</glyph>
<glyph name="dotlessj" format="1">
  <advance width="553"/>
  <unicode hex="0237"/>
  <outline>
    <contour>
      <point x="-169" y="-499" type="line"/>
      <point x="-99" y="-513"/>
      <point x="-35" y="-520"/>
      <point x="23" y="-520" type="curve" smooth="yes"/>
      <point x="316" y="-520"/>
      <point x="463" y="-347"/>
      <point x="463" y="-2" type="curve" smooth="yes"/>
      <point x="463" y="1000" type="line"/>
      <point x="94" y="1000" type="line"/>
      <point x="94" y="15" type="line" smooth="yes"/>
      <point x="94" y="-132"/>
      <point x="20" y="-214"/>
      <point x="-109" y="-214" type="curve" smooth="yes"/>
      <point x="-128" y="-214"/>
      <point x="-148" y="-213"/>
      <point x="-169" y="-209" type="curve"/>
    </contour>
  </outline>
</glyph>
<glyph name="jdotless" format="2">
  <advance width="553"/>
  <unicode hex="0237"/>
  <anchor x="277" y="-500" name="bottom"/>
  <anchor x="277" y="1000" name="top"/>
  <outline>
    <contour>
      <point x="-169" y="-499" type="line"/>
      <point x="-99" y="-513"/>
      <point x="-35" y="-520"/>
      <point x="23" y="-520" type="curve" smooth="yes"/>
      <point x="316" y="-520"/>
      <point x="463" y="-347"/>
      <point x="463" y="-2" type="curve" smooth="yes"/>
      <point x="463" y="1000" type="line"/>
      <point x="94" y="1000" type="line"/>
      <point x="94" y="15" type="line" smooth="yes"/>
      <point x="94" y="-132"/>
      <point x="20" y="-214"/>
      <point x="-109" y="-214" type="curve" smooth="yes"/>
      <point x="-128" y="-214"/>
      <point x="-148" y="-213"/>
      <point x="-169" y="-209" type="curve"/>
    </contour>
  </outline>
</glyph>
<glyph name="caron" format="1">
  <advance width="942"/>
  <unicode hex="02C7"/>
  <outline>
    <contour>
      <point x="617" y="1160" type="line" name="at01"/>
      <point x="842" y="1500" type="line"/>
      <point x="572" y="1500" type="line" name="av01"/>
      <point x="471" y="1309" type="line"/>
      <point x="370" y="1500" type="line" name="av01.1"/>
      <point x="100" y="1500" type="line"/>
      <point x="325" y="1160" type="line" name="at01.1"/>
    </contour>
  </outline>
</glyph>
<glyph name="macronmod" format="2">
  <advance width="898"/>
  <unicode hex="02C9"/>
  <outline>
    <contour>
      <point x="798" y="1206" type="line"/>
      <point x="798" y="1411" type="line"/>
      <point x="100" y="1411" type="line"/>
      <point x="100" y="1206" type="line"/>
    </contour>
  </outline>
</glyph>
<glyph name="breve" format="1">
  <advance width="847"/>
  <unicode hex="02D8"/>
  <outline>
    <contour>
      <point x="747" y="1500" type="curve" name="at01"/>
      <point x="547" y="1500" type="line" name="ah01"/>
      <point x="547" y="1399"/>
      <point x="502" y="1340"/>
      <point x="424" y="1340" type="curve" smooth="yes"/>
      <point x="346" y="1340"/>
      <point x="300" y="1399"/>
      <point x="300" y="1500" type="curve" name="sh01"/>
      <point x="100" y="1500" type="line" name="at02"/>
      <point x="100" y="1304"/>
      <point x="232" y="1170"/>
      <point x="424" y="1170" type="curve" smooth="yes" name="av01"/>
      <point x="616" y="1170"/>
      <point x="747" y="1304"/>
    </contour>
  </outline>
</glyph>
<glyph name="dotaccent" format="1">
  <advance width="480"/>
  <unicode hex="02D9"/>
  <outline>
    <contour>
      <point x="240" y="1180" type="curve" smooth="yes"/>
      <point x="324" y="1180"/>
      <point x="380" y="1236"/>
      <point x="380" y="1320" type="curve" smooth="yes"/>
      <point x="380" y="1404"/>
      <point x="324" y="1460"/>
      <point x="240" y="1460" type="curve" smooth="yes"/>
      <point x="156" y="1460"/>
      <point x="100" y="1404"/>
      <point x="100" y="1320" type="curve" smooth="yes"/>
      <point x="100" y="1236"/>
      <point x="156" y="1180"/>
    </contour>
  </outline>
</glyph>
<glyph name="ogonek" format="1">
  <advance width="512"/>
  <unicode hex="02DB"/>
  <outline>
    <contour>
      <point x="360" y="-416" type="curve" name="av01"/>
      <point x="389" y="-238" type="line"/>
      <point x="324" y="-238"/>
      <point x="275" y="-199"/>
      <point x="275" y="-145" type="curve" smooth="yes"/>
      <point x="275" y="-90"/>
      <point x="329" y="-30"/>
      <point x="412" y="4" type="curve"/>
      <point x="295" y="4" type="line" name="ab01"/>
      <point x="175" y="-45"/>
      <point x="100" y="-136"/>
      <point x="100" y="-232" type="curve" smooth="yes"/>
      <point x="100" y="-343"/>
      <point x="204" y="-416"/>
    </contour>
  </outline>
</glyph>
<glyph name="gravecomb" format="2">
  <unicode hex="0300"/>
  <anchor x="325" y="1000" name="_top"/>
  <anchor x="261" y="1500" name="top"/>
  <outline>
    <contour>
      <point x="491" y="1160" type="line"/>
      <point x="360" y="1500" type="line"/>
      <point x="30" y="1500" type="line" name="at01"/>
      <point x="231" y="1160" type="line" name="av01"/>
    </contour>
  </outline>
</glyph>
<glyph name="acutecomb" format="2">
  <unicode hex="0301"/>
  <anchor x="193" y="1000" name="_top"/>
  <anchor x="271" y="1500" name="top"/>
  <outline>
    <contour>
      <point x="301" y="1160" type="line" name="av01"/>
      <point x="501" y="1500" type="line" name="at01"/>
      <point x="172" y="1500" type="line"/>
      <point x="40" y="1160" type="line"/>
    </contour>
  </outline>
</glyph>
<glyph name="circumflexcomb" format="2">
  <unicode hex="0302"/>
  <anchor x="472" y="1000" name="_top"/>
  <anchor x="472" y="1500" name="top"/>
  <outline>
    <contour>
      <point x="843" y="1160" type="line"/>
      <point x="618" y="1500" type="line" name="at01"/>
      <point x="325" y="1500" type="line" name="at01.1"/>
      <point x="100" y="1160" type="line"/>
      <point x="370" y="1160" type="line" name="av01"/>
      <point x="471" y="1352" type="line"/>
      <point x="573" y="1160" type="line" name="av01.1"/>
    </contour>
  </outline>
</glyph>
<glyph name="tildecomb" format="2">
  <unicode hex="0303"/>
  <anchor x="503" y="1000" name="_top"/>
  <anchor x="503" y="1490" name="top"/>
  <outline>
    <contour>
      <point x="905" y="1481" type="curve"/>
      <point x="777" y="1481" type="line"/>
      <point x="773" y="1405"/>
      <point x="737" y="1365"/>
      <point x="675" y="1365" type="curve" smooth="yes"/>
      <point x="626" y="1365"/>
      <point x="589" y="1390"/>
      <point x="547" y="1417" type="curve" smooth="yes"/>
      <point x="494" y="1451"/>
      <point x="436" y="1490"/>
      <point x="338" y="1490" type="curve" smooth="yes" name="av01"/>
      <point x="181" y="1490"/>
      <point x="100" y="1389"/>
      <point x="100" y="1196" type="curve"/>
      <point x="228" y="1196" type="line"/>
      <point x="232" y="1271"/>
      <point x="274" y="1313"/>
      <point x="343" y="1313" type="curve" smooth="yes"/>
      <point x="397" y="1313"/>
      <point x="435" y="1287"/>
      <point x="476" y="1259" type="curve" smooth="yes"/>
      <point x="525" y="1225"/>
      <point x="579" y="1188"/>
      <point x="673" y="1188" type="curve" smooth="yes" name="av02"/>
      <point x="827" y="1188"/>
      <point x="905" y="1287"/>
    </contour>
  </outline>
</glyph>
<glyph name="macroncomb" format="2">
  <unicode hex="0304"/>
  <anchor x="449" y="1000" name="_top"/>
  <anchor x="449" y="1430" name="top"/>
  <outline>
    <contour>
      <point x="798" y="1225" type="line"/>
      <point x="798" y="1430" type="line"/>
      <point x="100" y="1430" type="line"/>
      <point x="100" y="1225" type="line"/>
    </contour>
  </outline>
</glyph>
<glyph name="dotaccentcomb" format="2">
  <unicode hex="0307"/>
  <anchor x="240" y="1000" name="_top"/>
  <anchor x="240" y="1460" name="top"/>
  <outline>
    <contour>
      <point x="240" y="1180" type="curve" smooth="yes"/>
      <point x="324" y="1180"/>
      <point x="380" y="1236"/>
      <point x="380" y="1320" type="curve" smooth="yes"/>
      <point x="380" y="1404"/>
      <point x="324" y="1460"/>
      <point x="240" y="1460" type="curve" smooth="yes"/>
      <point x="156" y="1460"/>
      <point x="100" y="1404"/>
      <point x="100" y="1320" type="curve" smooth="yes"/>
      <point x="100" y="1236"/>
      <point x="156" y="1180"/>
    </contour>
  </outline>
</glyph>
